<svg width="135" height="36" viewBox="0 0 135 36" fill="none" xmlns="http://www.w3.org/2000/svg">
<path d="M106.859 26.9655C106.42 26.5559 105.731 26.5771 105.319 27.0104L103.937 28.453V23.4963C103.937 22.516 103.128 21.7207 102.136 21.7207C101.145 21.7207 100.34 22.516 100.34 23.4963V30.9341C100.34 31.917 101.145 32.7123 102.136 32.7123C102.772 32.7123 103.331 32.3846 103.649 31.8879L106.901 28.49C107.316 28.0567 107.297 27.3777 106.859 26.9655Z" fill="#EA0000"/>
<path d="M96.035 27.3203C95.2226 27.3203 94.5625 27.9729 94.5625 28.7735V30.6442C94.5625 31.4501 95.2226 32.1001 96.035 32.1001C96.8475 32.1001 97.5049 31.4501 97.5049 30.6442V28.7735C97.5049 27.9703 96.8448 27.3203 96.035 27.3203Z" fill="#EA0000"/>
<path d="M87.5958 21.6797H78.3436C77.5045 21.6797 76.8203 22.3561 76.8203 23.1884C76.8203 24.0207 77.5045 24.6971 78.3436 24.6971H84.2204L78.5173 31.115C78.0603 31.6302 78.1138 32.4123 78.6349 32.8641C78.8728 33.0702 79.1694 33.1733 79.4634 33.1733C79.8108 33.1733 80.1583 33.0306 80.4041 32.7505L87.561 24.6971H87.5985C88.443 24.6971 89.1271 24.0207 89.1271 23.1884C89.1271 22.3561 88.443 21.6797 87.5985 21.6797H87.5958Z" fill="#EA0000"/>
<path d="M89.4954 4.50584C89.4954 3.73167 88.8594 3.10547 88.079 3.10547H78.1347C77.3543 3.10547 76.7183 3.73167 76.7183 4.50584C76.7183 5.28 77.3543 5.9062 78.1347 5.9062H85.4466L83.9046 7.8033C83.3006 7.45982 82.5229 7.64477 82.1514 8.23398L78.9765 13.2225C78.5917 13.8249 78.7761 14.6255 79.3854 15.0059C79.6019 15.1407 79.8451 15.2041 80.0829 15.2041C80.5159 15.2041 80.9408 14.9901 81.1893 14.6017L84.2547 9.78231C84.4551 9.89329 84.6743 9.94613 84.8907 9.94613C85.2782 9.94613 85.6551 9.78231 85.9143 9.46261L89.0999 5.54422C89.1694 5.45967 89.2228 5.36455 89.2656 5.26943C89.4099 5.05013 89.4954 4.78855 89.4954 4.50848V4.50584Z" fill="#EA0000"/>
<path d="M105.504 3.46152C104.993 2.95422 104.165 2.95686 103.657 3.46152L94.608 12.4133C94.0949 12.9153 94.0949 13.7344 94.608 14.2417C94.8619 14.4927 95.1986 14.6195 95.53 14.6195C95.8614 14.6195 96.2008 14.4927 96.4547 14.2417L101.209 9.53858C101.054 9.76317 100.963 10.0327 100.963 10.326V14.2232C100.963 14.9974 101.599 15.6236 102.38 15.6236C103.16 15.6236 103.799 14.9974 103.799 14.2232V10.326C103.799 9.55179 103.163 8.92559 102.38 8.92559C102.083 8.92559 101.81 9.01807 101.581 9.17132L105.501 5.28992C106.011 4.78262 106.011 3.96618 105.501 3.46152H105.504Z" fill="#EA0000"/>
<path d="M53.9221 25.063C53.8927 25.063 53.8607 25.0524 53.8339 25.0286C53.7858 24.9811 53.7858 24.9018 53.8339 24.8569L59.9352 18.8247C59.9833 18.7772 60.0608 18.7772 60.1116 18.8247C60.157 18.8723 60.157 18.9516 60.1116 18.9965L54.0076 25.026C53.9863 25.0471 53.9542 25.0603 53.9221 25.0603V25.063Z" fill="#EA0000"/>
<path d="M34.4905 25.0623C34.4584 25.0623 34.429 25.0517 34.4023 25.0279L28.3037 18.9984C28.2529 18.9509 28.2529 18.8742 28.3037 18.8267C28.3518 18.7791 28.4293 18.7791 28.4801 18.8267L34.5787 24.8588C34.6268 24.9037 34.6268 24.983 34.5787 25.0306C34.5573 25.0517 34.5226 25.0649 34.4905 25.0649V25.0623Z" fill="#EA0000"/>
<path d="M35.2071 12.2183C35.5733 12.1945 36.0302 12.0518 36.4872 11.8405L32.3289 7.72656C31.9761 8.9684 32.0135 10.2921 32.4224 11.5155C32.7671 11.8114 33.0077 11.9356 33.013 11.9356C33.7079 12.2632 34.4775 12.2659 35.2044 12.2157L35.2071 12.2183Z" fill="#EA0000"/>
<path d="M43.5585 5.36763L43.1336 4.94752C41.5301 3.35955 39.2772 2.78884 37.2007 3.22216L41.4606 7.43911L43.5585 5.36498V5.36763Z" fill="#EA0000"/>
<path d="M36.2225 14.7588C37.9863 15.0257 38.9725 14.7033 39.7769 14.3123C40.3007 14.056 41.0837 13.4245 41.6343 12.9198L41.832 12.7481L51.4556 3.28108C49.5555 2.81077 47.4817 3.19917 45.8755 4.44629L45.5922 4.6973C45.5147 4.76864 45.4292 4.83998 45.365 4.91396L39.6646 10.5419C39.5898 10.6211 39.5016 10.7083 39.4241 10.8008L38.8228 11.3953C37.8794 12.3306 36.3481 13.0889 35.2684 13.1629C35.0466 13.1788 34.8194 13.1867 34.5896 13.1867C34.1112 13.1867 33.6221 13.1418 33.1357 12.9938C33.3656 13.3426 33.6355 13.6729 33.9428 13.9794L34.1834 14.0903C35.3539 14.6241 36.2118 14.7614 36.2198 14.7641L36.2225 14.7588Z" fill="#EA0000"/>
<path d="M38.7318 10.153C38.7987 10.0737 38.8922 9.97598 38.9857 9.88086L40.0039 8.87682L35.1267 4.04688C34.7151 4.29788 34.3276 4.59645 33.9695 4.94522C33.7076 5.2068 33.4777 5.48688 33.2666 5.78016L38.2054 10.6682L38.7318 10.153Z" fill="#EA0000"/>
<path d="M39.4636 17.9598C41.2302 18.2267 42.2163 17.9017 43.0154 17.5106C43.6701 17.2015 44.5895 16.3824 44.8915 16.1103C44.9743 16.0416 45.0144 16.0019 45.0518 15.9676L55.2687 5.92457C55.0362 5.57844 54.769 5.25081 54.459 4.94696C54.1543 4.64575 53.8256 4.38153 53.4808 4.1543L43.0314 14.4166C42.6252 14.7865 41.5749 15.7034 40.6876 16.134C39.9287 16.5039 38.9104 16.8844 37.4192 16.8844C37.2428 16.8844 37.0584 16.8739 36.8687 16.8633L37.1733 17.1619L37.4379 17.2834C38.6058 17.8171 39.4636 17.9545 39.4717 17.9572L39.4636 17.9598Z" fill="#EA0000"/>
<path d="M46.4928 17.4179C46.4179 17.4919 46.3351 17.5659 46.2362 17.6478C45.6509 18.1736 44.7316 18.9557 43.9138 19.3415C43.1655 19.7035 42.15 20.0866 40.6614 20.0866C40.5037 20.0866 40.3327 20.076 40.167 20.0654C41.6449 21.2333 43.5317 21.6666 45.3142 21.368C46.589 21.1514 47.8103 20.5648 48.7938 19.5978C48.7965 19.5925 48.8018 19.5872 48.8045 19.5819L54.4568 14.0016C56.1164 12.3608 56.6749 10.033 56.1485 7.92188L46.4928 17.4153V17.4179Z" fill="#EA0000"/>
</svg>
