<svg width="135" height="36" viewBox="0 0 135 36" fill="none" xmlns="http://www.w3.org/2000/svg">
<path d="M65.5943 6C62.718 6 59.7712 6.26576 58.7928 10.0546C57.8121 13.8434 60.2603 15.5038 62.7086 17.1643L72.8475 24.0458C73.5319 24.5115 73.2614 25.5627 72.4547 25.5627H56.1634C55.2462 25.5627 54.6582 26.0472 54.4254 26.9433L53.8892 29.0153H73.4519C76.3282 29.0153 79.3503 28.4602 80.3287 24.6714C81.3094 20.8825 78.8612 19.2221 76.4129 17.5617L66.361 10.739C65.4791 10.1416 65.7778 8.99156 66.8126 8.99156H79.7784C83.2333 8.99156 83.6778 7.27235 84.007 6H65.5943Z" fill="#042275"/>
<path d="M97.6196 29.0153L103.572 6H117.498C126.416 6 129.438 9.22204 127.382 17.1619L124.318 29.0153H116.724L119.788 17.1619C121.246 11.5245 120.463 8.99156 116.724 8.99156H110.395L105.216 29.0153H97.622H97.6196Z" fill="#042275"/>
<path d="M40.4961 29.0153L45.6137 9.22204C46.3287 6.46096 47.8927 6 49.6707 6H55.6538L55.5715 6.3222C55.5715 6.3222 53.8946 6.57385 53.269 8.99156L48.0902 29.0153H40.4961Z" fill="#042275"/>
<path d="M84.228 29.0153L89.3457 9.22204C90.0606 6.46096 91.6246 6 93.4026 6H99.3857L99.3034 6.3222C99.3034 6.3222 97.6265 6.57385 97.001 8.99156L91.8222 29.0153H84.228Z" fill="#042275"/>
<path d="M26.7255 6C20.1121 6 13.4728 7.85797 11.0645 17.1619L8 29.0153H15.5941L16.041 27.289C17.3816 22.1055 29.2631 20.6615 29.2631 20.6615L27.1018 29.0153H34.6959L40.6508 6H26.7255ZM29.7946 18.6036L17.9154 20.0406L18.6586 17.1643C20.1168 11.5245 22.4192 8.99391 27.4969 8.99391H32.2782L29.7923 18.6059L29.7946 18.6036Z" fill="#042275"/>
</svg>
