<svg width="135" height="36" viewBox="0 0 135 36" fill="none" xmlns="http://www.w3.org/2000/svg">
<g clip-path="url(#clip0_86_1399)">
<path d="M16.167 26.1647V24.5469H14.5492V26.1647H16.167Z" fill="black"/>
<path d="M16.167 24.5475V22.9297H14.5492V24.5475H16.167Z" fill="#050505"/>
<path d="M16.1709 22.9362V21.3184H14.5531V22.9362H16.1709Z" fill="#050505"/>
<path d="M16.167 21.317V19.6992H14.5492V21.317H16.167Z" fill="black"/>
<path d="M16.167 19.7018V18.084H14.5492V19.7018H16.167Z" fill="#050505"/>
<path d="M16.1709 18.0846V16.4668H14.5531V18.0846H16.1709Z" fill="#030303"/>
<path d="M16.167 14.8522V13.2344H14.5492V14.8522H16.167Z" fill="#030303"/>
<path d="M16.167 13.235V11.6172H14.5492V13.235H16.167Z" fill="#030303"/>
<path d="M16.167 11.6178V10H14.5492V11.6178H16.167Z" fill="black"/>
<path d="M14.5493 26.1647V24.5469H12.9315V26.1647H14.5493Z" fill="#1A1A1A"/>
<path d="M14.5527 24.5475V22.9297H12.9349V24.5475H14.5527Z" fill="#171717"/>
<path d="M14.5527 22.9303V21.3125H12.9349V22.9303H14.5527Z" fill="#141414"/>
<path d="M14.5493 21.317V19.6992H12.9315V21.317H14.5493Z" fill="#0D0D0D"/>
<path d="M14.5527 19.6979V18.0801H12.9349V19.6979H14.5527Z" fill="#0F0F0F"/>
<path d="M14.5527 18.0846V16.4668H12.9349V18.0846H14.5527Z" fill="#0F0F0F"/>
<path d="M14.5527 14.8522V13.2344H12.9349V14.8522H14.5527Z" fill="#0A0A0A"/>
<path d="M14.5493 13.235V11.6172H12.9315V13.235H14.5493Z" fill="#080808"/>
<path d="M14.5527 11.6178V10H12.9349V11.6178H14.5527Z" fill="#050505"/>
<path d="M12.9351 26.1647V24.5469H11.3172V26.1647H12.9351Z" fill="#545454"/>
<path d="M12.9351 24.5475V22.9297H11.3172V24.5475H12.9351Z" fill="#4A4A4A"/>
<path d="M12.9351 22.9303V21.3125H11.3172V22.9303H12.9351Z" fill="#424242"/>
<path d="M12.9351 21.3131V19.6953H11.3172V21.3131H12.9351Z" fill="#2E2E2E"/>
<path d="M12.9351 19.6979V18.0801H11.3172V19.6979H12.9351Z" fill="#212121"/>
<path d="M12.9351 18.0827V16.4648H11.3172V18.0827H12.9351Z" fill="#1F1F1F"/>
<path d="M12.9351 14.8522V13.2344H11.3172V14.8522H12.9351Z" fill="#171717"/>
<path d="M12.9351 13.2331V11.6152H11.3172V13.2331H12.9351Z" fill="#0D0D0D"/>
<path d="M12.9351 11.6178V10H11.3172V11.6178H12.9351Z" fill="#030303"/>
<path d="M11.3174 26.1647V24.5469H9.69956V26.1647H11.3174Z" fill="#8F8F8F"/>
<path d="M11.3174 24.5475V22.9297H9.69956V24.5475H11.3174Z" fill="#6E6E6E"/>
<path d="M11.3213 22.9362V21.3184H9.70347V22.9362H11.3213Z" fill="#636363"/>
<path d="M11.3174 21.317V19.6992H9.69956V21.317H11.3174Z" fill="#4A4A4A"/>
<path d="M11.3174 19.6979V18.0801H9.69956V19.6979H11.3174Z" fill="#3D3D3D"/>
<path d="M11.3213 18.0846V16.4668H9.70347V18.0846H11.3213Z" fill="#333333"/>
<path d="M11.3213 14.8522V13.2344H9.70347V14.8522H11.3213Z" fill="#1A1A1A"/>
<path d="M11.3174 13.235V11.6172H9.69956V13.235H11.3174Z" fill="#0F0F0F"/>
<path d="M11.3174 11.6178V10H9.69956V11.6178H11.3174Z" fill="#050505"/>
<path d="M9.69922 26.1647V24.5469H8.0814V26.1647H9.69922Z" fill="#ABABAB"/>
<path d="M9.70312 24.5475V22.9297H8.08531V24.5475H9.70312Z" fill="#8F8F8F"/>
<path d="M9.70312 22.9303V21.3125H8.08531V22.9303H9.70312Z" fill="#787878"/>
<path d="M9.69922 21.317V19.6992H8.0814V21.317H9.69922Z" fill="#696969"/>
<path d="M9.70312 19.6979V18.0801H8.08531V19.6979H9.70312Z" fill="#525252"/>
<path d="M9.70312 18.0827V16.4648H8.08531V18.0827H9.70312Z" fill="#3D3D3D"/>
<path d="M9.70312 14.8522V13.2344H8.08531V14.8522H9.70312Z" fill="#1F1F1F"/>
<path d="M9.69922 13.235V11.6172H8.0814V13.235H9.69922Z" fill="#121212"/>
<path d="M9.70312 11.6178V10H8.08531V11.6178H9.70312Z" fill="#030303"/>
<path d="M8.08496 26.1647V24.5469H6.46714V26.1647H8.08496Z" fill="#C2C2C2"/>
<path d="M8.08496 24.5456V22.9277H6.46714V24.5456H8.08496Z" fill="#ADADAD"/>
<path d="M8.08496 22.9303V21.3125H6.46714V22.9303H8.08496Z" fill="#919191"/>
<path d="M8.08496 21.3131V19.6953H6.46714V21.3131H8.08496Z" fill="#808080"/>
<path d="M8.08496 19.6979V18.0801H6.46714V19.6979H8.08496Z" fill="#737373"/>
<path d="M8.08887 18.0827V16.4648H6.47105V18.0827H8.08887Z" fill="#4F4F4F"/>
<path d="M8.08496 14.8522V13.2344H6.46714V14.8522H8.08496Z" fill="#1C1C1C"/>
<path d="M8.08496 13.2331V11.6152H6.46714V13.2331H8.08496Z" fill="#0F0F0F"/>
<path d="M8.08496 11.6178V10H6.46714V11.6178H8.08496Z" fill="#030303"/>
<path d="M6.46777 26.1647V24.5469H4.84995V26.1647H6.46777Z" fill="#D4D4D4"/>
<path d="M6.46777 24.5475V22.9297H4.84995V24.5475H6.46777Z" fill="#BFBFBF"/>
<path d="M6.47119 22.9303V21.3125H4.85337V22.9303H6.47119Z" fill="#B3B3B3"/>
<path d="M6.46777 21.317V19.6992H4.84995V21.317H6.46777Z" fill="#999999"/>
<path d="M6.47119 19.6979V18.0801H4.85337V19.6979H6.47119Z" fill="#878787"/>
<path d="M6.47119 18.0846V16.4668H4.85337V18.0846H6.47119Z" fill="#666666"/>
<path d="M6.47119 14.8522V13.2344H4.85337V14.8522H6.47119Z" fill="#212121"/>
<path d="M6.46777 13.235V11.6172H4.84995V13.235H6.46777Z" fill="#0F0F0F"/>
<path d="M6.46777 11.6178V10H4.84995V11.6178H6.46777Z" fill="#050505"/>
<path d="M4.84961 26.1647V24.5469H3.23179V26.1647H4.84961Z" fill="#E3E3E3"/>
<path d="M4.85352 24.5475V22.9297H3.2357V24.5475H4.85352Z" fill="#D1D1D1"/>
<path d="M4.85352 22.9303V21.3125H3.2357V22.9303H4.85352Z" fill="#BABABA"/>
<path d="M4.85352 21.3131V19.6953H3.2357V21.3131H4.85352Z" fill="#B0B0B0"/>
<path d="M4.85352 19.6979V18.0801H3.2357V19.6979H4.85352Z" fill="#919191"/>
<path d="M4.85352 18.0827V16.4648H3.2357V18.0827H4.85352Z" fill="#7A7A7A"/>
<path d="M4.85352 14.8522V13.2344H3.2357V14.8522H4.85352Z" fill="#262626"/>
<path d="M4.84961 13.2331V11.6152H3.23179V13.2331H4.84961Z" fill="#0F0F0F"/>
<path d="M4.85352 11.6178V10H3.2357V11.6178H4.85352Z" fill="#050505"/>
<path d="M3.23584 26.1647V24.5469H1.61802V26.1647H3.23584Z" fill="#EDEDED"/>
<path d="M3.23584 24.5475V22.9297H1.61802V24.5475H3.23584Z" fill="#E0E0E0"/>
<path d="M3.23926 22.9362V21.3184H1.62144V22.9362H3.23926Z" fill="#CFCFCF"/>
<path d="M3.23584 21.317V19.6992H1.61802V21.317H3.23584Z" fill="#B8B8B8"/>
<path d="M3.23584 19.6979V18.0801H1.61802V19.6979H3.23584Z" fill="#A8A8A8"/>
<path d="M3.23926 18.0846V16.4668H1.62144V18.0846H3.23926Z" fill="#919191"/>
<path d="M3.23584 14.8522V13.2344H1.61802V14.8522H3.23584Z" fill="#2B2B2B"/>
<path d="M3.23584 13.235V11.6172H1.61802V13.235H3.23584Z" fill="#141414"/>
<path d="M3.23584 11.6178V10H1.61802V11.6178H3.23584Z" fill="#030303"/>
<path d="M1.61816 26.1647V24.5469H0.000343442V26.1647H1.61816Z" fill="#F0F0F0"/>
<path d="M1.62158 24.5475V22.9297H0.00376284V24.5475H1.62158Z" fill="#E8E8E8"/>
<path d="M1.62158 22.9303V21.3125H0.00376213V22.9303H1.62158Z" fill="#E3E3E3"/>
<path d="M1.61816 21.317V19.6992H0.000343442V21.317H1.61816Z" fill="#CFCFCF"/>
<path d="M1.62158 19.6979V18.0801H0.00376213V19.6979H1.62158Z" fill="#BABABA"/>
<path d="M1.62158 18.0827V16.4648H0.00376213V18.0827H1.62158Z" fill="#A6A6A6"/>
<path d="M1.62158 14.8522V13.2344H0.00376213V14.8522H1.62158Z" fill="#363636"/>
<path d="M16.167 16.4674V14.8496H14.5492V16.4674H16.167Z" fill="black"/>
<path d="M14.5493 16.4674V14.8496H12.9315V16.4674H14.5493Z" fill="#0D0D0D"/>
<path d="M12.9351 16.4674V14.8496H11.3172V16.4674H12.9351Z" fill="#1A1A1A"/>
<path d="M11.3174 16.4674V14.8496H9.69956V16.4674H11.3174Z" fill="#262626"/>
<path d="M9.70312 16.4674V14.8496H8.08531V16.4674H9.70312Z" fill="#2E2E2E"/>
<path d="M8.08496 16.4655V14.8477H6.46714V16.4655H8.08496Z" fill="#333333"/>
<path d="M6.46777 16.4674V14.8496H4.84995V16.4674H6.46777Z" fill="#3D3D3D"/>
<path d="M4.85352 16.4674V14.8496H3.2357V16.4674H4.85352Z" fill="#4D4D4D"/>
<path d="M3.23584 16.4674V14.8496H1.61802V16.4674H3.23584Z" fill="#666666"/>
<path d="M1.61816 16.4674V14.8496H0.000344157V16.4674H1.61816Z" fill="#7D7D7D"/>
<path d="M1.61816 13.235V11.6172H0.000344157V13.235H1.61816Z" fill="#171717"/>
<path d="M1.62158 11.6178V10H0.00376213V11.6178H1.62158Z" fill="#0A0A0A"/>
<path d="M40.722 13.2305L40.651 13.3015L37.5349 21.4204L34.4301 13.3015L34.3628 13.2305H33.3353L33.2681 13.3015L36.982 22.8589L37.0492 22.9299H38.0206L38.0879 22.8589L41.8167 13.3015L41.7457 13.2305H40.722Z" fill="black"/>
<path d="M63.2147 13.2305L63.1474 13.3015V21.2262L57.132 13.3015L56.9937 13.2305H56.0111L55.9438 13.3015V22.8589L56.0111 22.9299H56.9377L57.0087 22.8589V14.9342L63.0204 22.8589L63.1587 22.9299H64.145L64.2123 22.8589V13.3015L64.145 13.2305H63.2147Z" fill="black"/>
<path d="M68.0602 13.2305L67.9893 13.3015V14.2281L68.0602 14.2991H70.8662V22.8589L70.9335 22.9299H71.875L71.946 22.8589V14.2991H74.752L74.8192 14.2281V13.3015L74.752 13.2305H68.0602Z" fill="black"/>
<path d="M27.5144 13.2305H26.5429L26.4757 13.3015L22.6235 22.8627L22.6945 22.9337H23.7183L23.7893 22.8627L25.2203 19.2609H28.8482L30.2867 22.8627L30.3577 22.9337H31.3814L31.4524 22.8627L27.5853 13.3015L27.5144 13.2305ZM25.6425 18.1923L27.0286 14.7026L28.4223 18.1923H25.6425Z" fill="black"/>
<path d="M48.5275 13.2305H47.5561L47.4888 13.3015L43.6367 22.8627L43.7077 22.9337H44.7315L44.8024 22.8627L46.2335 19.2609H49.8614L51.2999 22.8627L51.3709 22.9337H52.3946L52.4656 22.8627L48.5985 13.3015L48.5275 13.2305ZM46.6557 18.1923L48.0418 14.7026L49.4355 18.1923H46.6557Z" fill="black"/>
<path d="M88.0426 17.1841L87.9716 17.2551V18.1966L88.0426 18.2676H90.2321V20.7896C89.5222 21.5481 88.5209 22.0188 87.4075 22.0188C85.2591 22.0188 83.4993 20.259 83.4993 18.0845C83.4993 15.91 85.2591 14.1502 87.4075 14.1502C88.3789 14.1502 89.2681 14.5126 89.9519 15.1067C89.9855 15.1067 90.049 15.0992 90.049 15.0992L90.6991 14.3071C90.6991 14.3071 90.6917 14.2473 90.6917 14.21C89.8024 13.4739 88.6554 13.0293 87.4075 13.0293C84.5828 13.0293 82.2812 15.301 82.2812 18.0845C82.2812 20.8681 84.5828 23.1435 87.4075 23.1435C88.9618 23.1435 90.3591 22.456 91.3007 21.3725V17.2588L91.2297 17.1878H88.0426V17.1841Z" fill="black"/>
<path d="M109.597 13.0254C106.772 13.0254 104.471 15.2971 104.471 18.0806C104.471 20.8642 106.772 23.1358 109.597 23.1358C112.422 23.1358 114.723 20.8642 114.723 18.0806C114.723 15.2971 112.422 13.0254 109.597 13.0254ZM109.597 22.0187C107.449 22.0187 105.689 20.2589 105.689 18.0843C105.689 15.9098 107.449 14.15 109.597 14.15C111.745 14.15 113.49 15.9098 113.49 18.0843C113.49 20.2589 111.745 22.0187 109.597 22.0187Z" fill="black"/>
<path d="M132.127 13.2305H129.452L129.385 13.3015V22.8627L129.452 22.9337H130.379L130.45 22.8627V18.2147H132.127C133.887 18.2147 135 17.2022 135 15.7263C135 14.2505 133.883 13.2379 132.127 13.2379V13.2305ZM132.064 17.1424H130.45V14.2991H132.135C133.181 14.2991 133.775 14.8333 133.775 15.7226C133.775 16.6604 133.046 17.1461 132.06 17.1461L132.064 17.1424Z" fill="black"/>
<path d="M100.884 15.7228C100.884 14.2469 99.7671 13.2344 98.011 13.2344H95.3358L95.2686 13.3054V22.8666L95.3358 22.9376H96.2624L96.3334 22.8666V18.2186H97.6934L101.187 22.8666L101.258 22.9376H102.506L102.577 22.8666L99.0347 18.0841C100.189 17.7665 100.888 16.8922 100.888 15.7265L100.884 15.7228ZM96.3297 14.2992H98.0147C99.0609 14.2992 99.655 14.8335 99.655 15.7228C99.655 16.6606 98.9264 17.1463 97.94 17.1463H96.3259V14.303L96.3297 14.2992Z" fill="black"/>
<path d="M124.378 13.2305L124.307 13.3015V18.9097C124.307 20.9459 123.152 21.9772 121.673 22.0145C120.193 21.9772 119.039 20.9459 119.039 18.9097V13.3015L118.968 13.2305H118.026L117.959 13.3015V19.0853C117.959 21.6409 119.554 23.1391 121.677 23.1391C123.799 23.1391 125.394 21.6446 125.394 19.0853V13.3015L125.327 13.2305H124.385H124.378Z" fill="black"/>
</g>
<defs>
<clipPath id="clip0_86_1399">
<rect width="135" height="36" fill="white"/>
</clipPath>
</defs>
</svg>
