<svg width="1440" height="844" viewBox="0 0 1440 844" fill="none" xmlns="http://www.w3.org/2000/svg">
<mask id="mask0_86_949" style="mask-type:alpha" maskUnits="userSpaceOnUse" x="0" y="0" width="1440" height="844">
<rect width="1440" height="844" fill="#D6E2EE"/>
</mask>
<g mask="url(#mask0_86_949)">
<g opacity="0.15">
<path d="M719.649 1076.01C560.332 1076.01 405.775 1058.76 260.275 1024.75C190.339 1008.4 122.885 988.167 59.7831 964.607C-2.72879 941.272 -61.5077 914.465 -114.932 884.942C-168.368 855.413 -216.885 822.914 -259.134 788.352C-301.801 753.448 -338.453 716.129 -368.07 677.436C-398.246 638.007 -421.429 596.734 -436.962 554.776C-452.915 511.705 -461 467.368 -461 423.006C-461 378.645 -452.915 334.307 -436.962 291.23C-421.423 249.267 -398.246 207.999 -368.07 168.57C-338.453 129.871 -301.801 92.5578 -259.134 57.6543C-216.885 23.0927 -168.368 -9.40059 -114.932 -38.9356C-61.5077 -68.4589 -2.7229 -95.2655 59.7831 -118.601C122.885 -142.161 190.339 -162.397 260.275 -178.744C405.775 -212.752 560.327 -230 719.649 -230C878.972 -230 1033.52 -212.757 1179.02 -178.744C1248.96 -162.397 1316.41 -142.161 1379.52 -118.601C1442.03 -95.2655 1500.81 -68.4589 1554.23 -38.9356C1607.67 -9.40648 1656.18 23.0927 1698.43 57.6543C1741.1 92.5578 1777.75 129.877 1807.37 168.57C1837.54 207.999 1860.73 249.273 1876.26 291.23C1892.21 334.301 1900.3 378.639 1900.3 423.006C1900.3 467.373 1892.21 511.705 1876.26 554.782C1860.72 596.745 1837.54 638.013 1807.37 677.442C1777.75 716.141 1741.1 753.454 1698.43 788.358C1656.18 822.919 1607.67 855.413 1554.23 884.948C1500.81 914.471 1442.02 941.278 1379.52 964.613C1316.41 988.173 1248.96 1008.41 1179.02 1024.76C1033.52 1058.76 878.966 1076.01 719.649 1076.01ZM719.649 -227.643C404.796 -227.643 108.808 -159.893 -113.794 -36.8731C-336.171 86.0226 -458.641 249.343 -458.641 423.006C-458.641 596.669 -336.171 759.99 -113.794 882.885C108.808 1005.9 404.796 1073.66 719.649 1073.66C1034.5 1073.66 1330.49 1005.9 1553.09 882.885C1775.47 759.99 1897.94 596.669 1897.94 423.006C1897.94 249.343 1775.47 86.0226 1553.09 -36.8731C1330.49 -159.893 1034.5 -227.643 719.649 -227.643Z" fill="#8EABC5" fill-opacity="0.6"/>
<path d="M719.649 1075.99C564.685 1075.99 414.355 1058.75 272.831 1024.73C204.805 1008.39 139.191 988.15 77.8172 964.59C17.0155 941.254 -40.1593 914.447 -92.1267 884.924C-144.1 855.395 -191.291 822.896 -232.389 788.334C-273.895 753.431 -309.544 716.111 -338.347 677.419C-367.698 637.99 -390.244 596.722 -405.359 554.765C-420.869 511.694 -428.736 467.362 -428.736 423.006C-428.736 378.651 -420.869 334.313 -405.359 291.248C-390.249 249.29 -367.704 208.023 -338.347 168.593C-309.538 129.901 -273.889 92.5814 -232.389 57.6779C-191.297 23.1163 -144.106 -9.37698 -92.1267 -38.912C-40.1593 -68.4353 17.0155 -95.2419 77.8172 -118.578C139.197 -142.137 204.805 -162.373 272.831 -178.72C414.355 -212.728 564.685 -229.976 719.649 -229.976C874.614 -229.976 1024.94 -212.734 1166.47 -178.72C1234.49 -162.373 1300.11 -142.137 1361.48 -118.578C1422.28 -95.2419 1479.46 -68.4353 1531.43 -38.912C1583.4 -9.38287 1630.59 23.1163 1671.69 57.6779C1713.19 92.5814 1748.84 129.901 1777.65 168.593C1807 208.023 1829.54 249.29 1844.66 291.248C1860.17 334.318 1868.03 378.651 1868.03 423.006C1868.03 467.362 1860.17 511.7 1844.66 554.765C1829.55 596.722 1807 637.99 1777.65 677.419C1748.84 716.111 1713.19 753.431 1671.69 788.334C1630.6 822.896 1583.4 855.389 1531.43 884.924C1479.46 914.447 1422.28 941.254 1361.48 964.59C1300.1 988.15 1234.49 1008.39 1166.47 1024.73C1024.94 1058.75 874.614 1075.99 719.649 1075.99ZM719.649 -227.625C413.424 -227.625 125.539 -159.881 -90.9649 -36.8672C-307.256 86.0226 -426.377 249.343 -426.377 423.006C-426.377 596.669 -307.256 759.99 -90.9649 882.879C125.539 1005.89 413.418 1073.64 719.649 1073.64C1025.88 1073.64 1313.76 1005.89 1530.26 882.879C1746.55 759.99 1865.68 596.669 1865.68 423.006C1865.68 249.343 1746.55 86.0226 1530.26 -36.8672C1313.76 -159.881 1025.88 -227.625 719.649 -227.625Z" fill="#8EABC5" fill-opacity="0.6"/>
<path d="M719.649 1075.97C569.037 1075.97 422.93 1058.73 285.38 1024.71C219.265 1008.37 155.497 988.132 95.8394 964.572C36.748 941.23 -18.8227 914.43 -69.3275 884.906C-119.844 855.377 -165.708 822.878 -205.651 788.317C-245.989 753.413 -280.635 716.094 -308.63 677.401C-337.156 637.972 -359.064 596.71 -373.755 554.753C-388.828 511.688 -396.471 467.362 -396.471 423.006C-396.471 378.65 -388.828 334.324 -373.755 291.259C-359.07 249.302 -337.156 208.04 -308.63 168.611C-280.635 129.918 -245.989 92.599 -205.651 57.6955C-165.708 23.1339 -119.844 -9.36526 -69.3275 -38.8944C-18.8227 -68.4177 36.748 -95.2243 95.8394 -118.56C155.491 -142.12 219.265 -162.356 285.38 -178.703C422.93 -212.716 569.037 -229.959 719.649 -229.959C870.262 -229.959 1016.37 -212.716 1153.92 -178.703C1220.03 -162.356 1283.8 -142.12 1343.46 -118.56C1402.55 -95.2184 1458.12 -68.4177 1508.63 -38.8944C1559.14 -9.36526 1605.01 23.1339 1644.95 57.6955C1685.29 92.599 1719.93 129.918 1747.93 168.611C1776.45 208.04 1798.37 249.302 1813.05 291.259C1828.13 334.324 1835.77 378.65 1835.77 423.006C1835.77 467.362 1828.13 511.688 1813.05 554.753C1798.37 596.71 1776.45 637.972 1747.93 677.401C1719.93 716.094 1685.29 753.413 1644.95 788.317C1605.01 822.878 1559.14 855.377 1508.63 884.906C1458.12 914.43 1402.55 941.236 1343.46 964.572C1283.81 988.132 1220.03 1008.37 1153.92 1024.71C1016.37 1058.73 870.262 1075.97 719.649 1075.97ZM719.649 -227.607C422.045 -227.607 142.269 -159.869 -68.1363 -36.8614C-278.341 86.0226 -394.112 249.343 -394.112 423.006C-394.112 596.669 -278.347 759.99 -68.1363 882.873C142.269 1005.88 422.045 1073.62 719.649 1073.62C1017.25 1073.62 1297.03 1005.88 1507.43 882.873C1717.64 759.984 1833.41 596.669 1833.41 423.006C1833.41 249.343 1717.65 86.0226 1507.43 -36.8614C1297.03 -159.869 1017.25 -227.607 719.649 -227.607Z" fill="#8EABC5" fill-opacity="0.6"/>
<path d="M719.649 1075.95C573.389 1075.95 431.505 1058.71 297.936 1024.7C233.732 1008.35 171.803 988.114 113.874 964.554C56.4867 941.213 2.52005 914.412 -46.5223 884.883C-95.5764 855.348 -140.119 822.854 -178.9 788.293C-218.07 753.389 -251.715 716.07 -278.901 677.377C-306.601 637.948 -327.879 596.686 -342.139 554.735C-356.776 511.676 -364.195 467.35 -364.195 423C-364.195 378.65 -356.776 334.324 -342.139 291.265C-327.879 249.314 -306.601 208.046 -278.901 168.623C-251.715 129.93 -218.07 92.6105 -178.9 57.7071C-140.113 23.1454 -95.5764 -9.35371 -46.5223 -38.8829C2.52597 -68.4061 56.4867 -95.2128 113.874 -118.554C171.803 -142.114 233.732 -162.35 297.936 -178.697C431.511 -212.711 573.395 -229.953 719.649 -229.953C865.904 -229.953 1007.79 -212.711 1141.36 -178.697C1205.57 -162.35 1267.5 -142.114 1325.43 -118.554C1382.81 -95.2128 1436.78 -68.412 1485.82 -38.8829C1534.88 -9.35371 1579.42 23.1454 1618.2 57.7071C1657.37 92.6105 1691.01 129.93 1718.2 168.623C1745.9 208.046 1767.18 249.314 1781.44 291.265C1796.07 334.324 1803.49 378.65 1803.49 423C1803.49 467.35 1796.07 511.676 1781.44 554.735C1767.18 596.686 1745.9 637.954 1718.2 677.377C1691.01 716.07 1657.37 753.389 1618.2 788.293C1579.41 822.854 1534.88 855.354 1485.82 884.883C1436.77 914.406 1382.81 941.213 1325.43 964.554C1267.5 988.114 1205.57 1008.35 1141.36 1024.7C1007.79 1058.71 865.91 1075.95 719.649 1075.95ZM719.649 -227.59C430.668 -227.59 159 -159.852 -45.3075 -36.8616C-249.427 86.0223 -361.842 249.337 -361.842 423C-361.842 596.663 -249.427 759.983 -45.3075 882.861C159 1005.86 430.668 1073.59 719.649 1073.59C1008.63 1073.59 1280.3 1005.85 1484.61 882.861C1688.73 759.978 1801.14 596.663 1801.14 423C1801.14 249.337 1688.73 86.0164 1484.61 -36.8616C1280.3 -159.857 1008.63 -227.59 719.649 -227.59Z" fill="#8EABC5" fill-opacity="0.6"/>
<path d="M719.65 1075.93C577.748 1075.93 440.08 1058.69 310.486 1024.68C248.192 1008.33 188.11 988.096 131.902 964.536C76.2254 941.195 23.8628 914.394 -23.7229 884.865C-71.3204 855.336 -114.53 822.836 -152.161 788.275C-190.164 753.371 -222.806 716.052 -249.184 677.359C-276.059 637.936 -296.699 596.674 -310.535 554.723C-324.735 511.664 -331.936 467.349 -331.936 423C-331.936 378.65 -324.735 334.336 -310.535 291.277C-296.699 249.325 -276.059 208.063 -249.184 168.64C-222.806 129.948 -190.164 92.6281 -152.161 57.7246C-114.53 23.163 -71.3145 -9.33615 -23.7229 -38.8653C23.8628 -68.3885 76.2195 -95.1952 131.902 -118.537C188.11 -142.097 248.192 -162.333 310.486 -178.679C440.08 -212.693 577.748 -229.936 719.65 -229.936C861.552 -229.936 999.219 -212.693 1128.81 -178.679C1191.11 -162.333 1251.19 -142.097 1307.4 -118.537C1363.07 -95.1952 1415.44 -68.3944 1463.02 -38.8653C1510.62 -9.33026 1553.83 23.163 1591.46 57.7246C1629.46 92.6281 1662.1 129.948 1688.48 168.64C1715.36 208.063 1736 249.325 1749.83 291.277C1764.03 334.336 1771.24 378.65 1771.24 423C1771.24 467.349 1764.03 511.664 1749.83 554.723C1736 596.674 1715.36 637.936 1688.48 677.359C1662.1 716.052 1629.46 753.371 1591.46 788.275C1553.83 822.836 1510.61 855.336 1463.02 884.865C1415.44 914.394 1363.08 941.195 1307.4 964.536C1251.19 988.096 1191.11 1008.33 1128.81 1024.68C999.219 1058.69 861.552 1075.93 719.65 1075.93ZM719.65 -227.573C439.296 -227.573 175.737 -159.84 -22.4786 -36.8558C-220.512 86.0222 -329.577 249.337 -329.577 423.006C-329.577 596.674 -220.512 759.989 -22.4786 882.867C175.731 1005.85 439.29 1073.58 719.65 1073.58C1000.01 1073.58 1263.56 1005.85 1461.78 882.867C1659.81 759.989 1768.88 596.674 1768.88 423.006C1768.88 249.337 1659.81 86.0222 1461.78 -36.8558C1263.56 -159.846 1000 -227.573 719.65 -227.573Z" fill="#8EABC5" fill-opacity="0.6"/>
<path d="M719.649 1075.92C582.099 1075.92 448.654 1058.68 323.035 1024.67C262.652 1008.32 204.41 988.085 149.93 964.52C95.9574 941.178 45.2048 914.371 -0.918335 884.848C-47.0533 855.313 -88.9422 822.82 -125.417 788.252C-162.252 753.349 -193.897 716.035 -219.462 677.337C-245.511 637.913 -265.515 596.658 -278.925 554.706C-292.69 511.653 -299.666 467.339 -299.666 423.001C-299.666 378.663 -292.69 334.348 -278.925 291.295C-265.515 249.35 -245.511 208.088 -219.462 168.665C-193.897 129.972 -162.252 92.6526 -125.417 57.7491C-88.9422 23.1875 -47.0533 -9.31166 -0.918335 -38.8467C45.2107 -68.3759 95.9633 -95.1766 149.93 -118.518C204.41 -142.078 262.652 -162.314 323.035 -178.667C448.654 -212.68 582.099 -229.923 719.649 -229.923C857.199 -229.923 990.638 -212.674 1116.26 -178.667C1176.65 -162.32 1234.89 -142.084 1289.37 -118.518C1343.34 -95.1766 1394.09 -68.3699 1440.22 -38.8467C1486.35 -9.31166 1528.24 23.1816 1564.72 57.7491C1601.55 92.6526 1633.2 129.972 1658.76 168.665C1684.81 208.088 1704.81 249.344 1718.22 291.295C1731.99 334.348 1738.96 378.663 1738.96 423.001C1738.96 467.339 1731.99 511.653 1718.22 554.706C1704.81 596.652 1684.81 637.913 1658.76 677.337C1633.2 716.029 1601.56 753.349 1564.72 788.252C1528.24 822.814 1486.35 855.313 1440.22 884.848C1394.09 914.377 1343.34 941.178 1289.37 964.52C1234.89 988.079 1176.65 1008.32 1116.26 1024.67C990.638 1058.68 857.199 1075.92 719.649 1075.92ZM719.649 -227.554C447.917 -227.554 192.468 -159.827 0.355469 -36.849C-191.597 86.0231 -297.307 249.338 -297.307 423.007C-297.307 596.675 -191.597 759.99 0.355469 882.862C192.468 1005.84 447.917 1073.57 719.649 1073.57C991.381 1073.57 1246.83 1005.84 1438.94 882.862C1630.9 759.99 1736.61 596.675 1736.61 423.007C1736.61 249.338 1630.9 86.0231 1438.94 -36.849C1246.83 -159.827 991.381 -227.554 719.649 -227.554Z" fill="#8EABC5" fill-opacity="0.6"/>
<path d="M719.649 1075.91C586.452 1075.91 457.235 1058.66 335.584 1024.64C277.112 1008.3 220.716 988.061 167.958 964.496C115.696 941.154 66.5473 914.347 21.8808 884.824C-22.7916 855.289 -63.3536 822.79 -98.6787 788.228C-134.352 753.325 -164.988 716.011 -189.746 677.319C-214.969 637.901 -234.341 596.645 -247.321 554.7C-260.649 511.653 -267.402 467.344 -267.402 423.006C-267.402 378.668 -260.644 334.36 -247.321 291.313C-234.335 249.367 -214.963 208.111 -189.746 168.694C-164.988 130.001 -134.352 92.6877 -98.6787 57.7843C-63.3595 23.2226 -22.7975 -9.27649 21.8808 -38.8115C66.5473 -68.3407 115.696 -95.1473 167.958 -118.483C220.716 -142.043 277.112 -162.279 335.584 -178.632C457.229 -212.645 586.446 -229.894 719.649 -229.894C852.853 -229.894 982.064 -212.645 1103.71 -178.632C1162.19 -162.285 1218.58 -142.049 1271.34 -118.483C1323.6 -95.1414 1372.75 -68.3348 1417.42 -38.8115C1462.09 -9.27649 1502.65 23.2226 1537.98 57.7843C1573.64 92.6877 1604.29 130.001 1629.04 168.694C1654.27 208.117 1673.64 249.373 1686.62 291.313C1699.95 334.36 1706.7 378.668 1706.7 423.006C1706.7 467.344 1699.94 511.653 1686.62 554.7C1673.63 596.645 1654.26 637.901 1629.04 677.319C1604.29 716.011 1573.65 753.325 1537.98 788.228C1502.66 822.79 1462.1 855.289 1417.42 884.824C1372.75 914.353 1323.6 941.16 1271.34 964.496C1218.58 988.055 1162.19 1008.29 1103.71 1024.64C982.064 1058.66 852.847 1075.91 719.649 1075.91ZM719.649 -227.542C456.545 -227.542 209.198 -159.821 23.1841 -36.8551C-162.683 86.0111 -265.043 249.326 -265.043 423C-265.043 596.675 -162.683 759.984 23.1841 882.856C209.198 1005.82 456.545 1073.54 719.649 1073.54C982.754 1073.54 1230.1 1005.82 1416.11 882.856C1601.98 759.99 1704.34 596.675 1704.34 423C1704.34 249.326 1601.98 86.017 1416.11 -36.8551C1230.1 -159.821 982.754 -227.542 719.649 -227.542Z" fill="#8EABC5" fill-opacity="0.6"/>
<path d="M719.649 1075.89C590.804 1075.89 465.81 1058.64 348.134 1024.63C291.573 1008.27 237.016 988.038 185.98 964.478C135.428 941.136 87.884 914.33 44.68 884.801C1.4642 855.266 -37.7708 822.766 -71.9342 788.205C-106.44 753.301 -136.074 715.988 -160.023 677.295C-184.42 637.878 -203.156 596.622 -215.717 554.682C-228.603 511.641 -235.143 467.338 -235.143 423.006C-235.143 378.674 -228.609 334.372 -215.717 291.324C-203.162 249.385 -184.42 208.129 -160.023 168.711C-136.08 130.019 -106.44 92.7051 -71.9342 57.8017C-37.765 23.2401 1.47011 -9.25911 44.68 -38.7941C87.884 -68.3233 135.428 -95.1299 185.98 -118.472C237.016 -142.031 291.567 -162.273 348.134 -178.62C465.804 -212.634 590.798 -229.882 719.649 -229.882C848.5 -229.882 973.489 -212.634 1091.16 -178.62C1147.73 -162.267 1202.28 -142.031 1253.32 -118.472C1303.87 -95.1299 1351.41 -68.3233 1394.62 -38.7941C1437.83 -9.25911 1477.07 23.2401 1511.23 57.8017C1545.74 92.7051 1575.37 130.019 1599.32 168.711C1623.72 208.129 1642.45 249.385 1655.02 291.324C1667.9 334.366 1674.44 378.674 1674.44 423.006C1674.44 467.338 1667.91 511.641 1655.02 554.682C1642.46 596.628 1623.72 637.878 1599.32 677.295C1575.37 715.988 1545.74 753.301 1511.23 788.205C1477.06 822.766 1437.83 855.266 1394.62 884.801C1351.41 914.33 1303.87 941.136 1253.32 964.478C1202.28 988.038 1147.73 1008.28 1091.16 1024.63C973.489 1058.64 848.495 1075.89 719.649 1075.89ZM719.649 -227.525C465.167 -227.525 225.935 -159.81 46.0128 -36.8495C-133.768 86.0167 -232.778 249.326 -232.778 423C-232.778 596.675 -133.768 759.99 46.0128 882.85C225.929 1005.81 465.167 1073.53 719.649 1073.53C974.132 1073.53 1213.36 1005.81 1393.29 882.85C1573.07 759.984 1672.08 596.675 1672.08 423C1672.08 249.326 1573.07 86.0108 1393.29 -36.8495C1213.36 -159.81 974.132 -227.525 719.649 -227.525Z" fill="#8EABC5" fill-opacity="0.6"/>
<path d="M719.649 1075.87C595.156 1075.87 474.379 1058.62 360.684 1024.61C306.033 1008.26 253.322 988.02 204.009 964.454C155.161 941.113 109.227 914.306 67.4792 884.777C25.7259 855.242 -12.1823 822.743 -45.1956 788.181C-78.5333 753.278 -107.165 715.964 -130.3 677.271C-153.872 637.854 -171.971 596.604 -184.108 554.664C-196.557 511.623 -202.873 467.326 -202.873 423C-202.873 378.674 -196.557 334.377 -184.108 291.336C-171.977 249.396 -153.872 208.146 -130.3 168.729C-107.165 130.036 -78.5333 92.7228 -45.1956 57.8193C-12.1823 23.2577 25.7259 -9.24147 67.4792 -38.7765C109.227 -68.3057 155.161 -95.1123 204.009 -118.454C253.316 -142.02 306.033 -162.256 360.684 -178.602C474.379 -212.616 595.156 -229.864 719.649 -229.864C844.142 -229.864 964.914 -212.616 1078.62 -178.602C1133.27 -162.25 1185.98 -142.014 1235.29 -118.454C1284.14 -95.1123 1330.07 -68.3057 1371.82 -38.7765C1413.57 -9.24147 1451.48 23.2577 1484.49 57.8193C1517.83 92.7228 1546.46 130.036 1569.6 168.729C1593.17 208.146 1611.27 249.396 1623.41 291.336C1635.86 334.377 1642.17 378.674 1642.17 423C1642.17 467.326 1635.86 511.629 1623.41 554.664C1611.28 596.604 1593.17 637.854 1569.6 677.271C1546.46 715.964 1517.83 753.278 1484.49 788.181C1451.48 822.743 1413.57 855.242 1371.82 884.777C1330.07 914.306 1284.14 941.113 1235.29 964.454C1185.98 988.02 1133.27 1008.26 1078.62 1024.61C964.914 1058.62 844.142 1075.87 719.649 1075.87ZM719.649 -227.507C473.795 -227.507 242.666 -159.798 68.8474 -36.8495C-104.847 86.0108 -200.508 249.32 -200.508 423C-200.508 596.681 -104.847 759.99 68.8474 882.85C242.666 1005.8 473.795 1073.51 719.649 1073.51C965.504 1073.51 1196.63 1005.8 1370.45 882.85C1544.15 759.99 1639.81 596.681 1639.81 423C1639.81 249.32 1544.15 86.0108 1370.45 -36.8495C1196.63 -159.798 965.504 -227.507 719.649 -227.507Z" fill="#8EABC5" fill-opacity="0.6"/>
<path d="M719.65 1075.85C599.509 1075.85 482.953 1058.6 373.233 1024.59C320.493 1008.24 269.623 988.002 222.037 964.437C174.9 941.095 130.569 914.289 90.2844 884.759C49.9878 855.224 13.4066 822.725 -18.4509 788.164C-50.621 753.26 -78.2501 715.946 -100.577 677.26C-147.043 596.74 -170.603 511.199 -170.603 423.012C-170.603 334.825 -147.043 249.285 -100.577 168.764C-78.2501 130.078 -50.621 92.7583 -18.4509 57.8608C13.4066 23.2991 49.9878 -9.20001 90.2844 -38.735C130.569 -68.2642 174.9 -95.0708 222.037 -118.418C269.623 -141.984 320.493 -162.22 373.233 -178.573C482.953 -212.592 599.509 -229.835 719.65 -229.835C839.79 -229.835 956.346 -212.586 1066.07 -178.573C1118.81 -162.22 1169.68 -141.984 1217.26 -118.418C1264.4 -95.0767 1308.73 -68.2701 1349.01 -38.735C1389.31 -9.20001 1425.89 23.2991 1457.75 57.8608C1489.92 92.7642 1517.55 130.078 1539.88 168.764C1586.34 249.285 1609.9 334.831 1609.9 423.012C1609.9 511.193 1586.34 596.74 1539.88 677.26C1517.55 715.952 1489.92 753.266 1457.75 788.164C1425.89 822.725 1389.31 855.224 1349.01 884.759C1308.73 914.289 1264.4 941.095 1217.26 964.437C1169.68 988.002 1118.81 1008.24 1066.07 1024.59C956.346 1058.6 839.79 1075.85 719.65 1075.85ZM719.65 -227.489C482.417 -227.489 259.403 -159.786 91.6762 -36.8493C-75.9383 86.0051 -168.244 249.32 -168.244 423C-168.244 596.681 -75.9324 759.996 91.6762 882.85C259.397 1005.79 482.417 1073.49 719.65 1073.49C956.882 1073.49 1179.9 1005.79 1347.62 882.85C1515.24 759.996 1607.54 596.681 1607.54 423C1607.54 249.32 1515.23 86.0051 1347.62 -36.8493C1179.9 -159.786 956.882 -227.489 719.65 -227.489Z" fill="#8EABC5" fill-opacity="0.6"/>
<path d="M719.649 1075.84C603.861 1075.84 491.528 1058.59 385.783 1024.57C334.953 1008.21 285.923 987.979 240.065 964.413C194.632 941.071 151.911 914.259 113.083 884.73C74.2493 855.195 38.9949 822.696 8.2933 788.134C-22.7091 753.231 -49.3356 715.923 -70.855 677.23C-115.634 596.716 -138.338 511.181 -138.338 423.006C-138.338 334.831 -115.634 249.296 -70.855 168.782C-49.3415 130.095 -22.7091 92.7818 8.2933 57.8784C38.9949 23.3167 74.2493 -9.18239 113.083 -38.7174C151.911 -68.2466 194.632 -95.0591 240.065 -118.401C285.929 -141.966 334.953 -162.202 385.783 -178.555C491.528 -212.575 603.861 -229.823 719.649 -229.823C835.438 -229.823 947.77 -212.575 1053.52 -178.555C1104.34 -162.202 1153.38 -141.966 1199.23 -118.401C1244.67 -95.0591 1287.39 -68.2466 1326.22 -38.7174C1365.05 -9.18239 1400.3 23.3167 1431.01 57.8784C1462.01 92.7818 1488.63 130.095 1510.15 168.782C1554.93 249.296 1577.63 334.831 1577.63 423.006C1577.63 511.181 1554.93 596.716 1510.15 677.23C1488.64 715.917 1462.01 753.231 1431.01 788.134C1400.3 822.696 1365.05 855.195 1326.22 884.73C1287.39 914.259 1244.67 941.071 1199.23 964.413C1153.37 987.979 1104.34 1008.21 1053.52 1024.57C947.77 1058.59 835.438 1075.84 719.649 1075.84ZM719.649 -227.472C491.044 -227.472 276.133 -159.775 114.51 -36.8494C-47.0179 86.005 -135.979 249.314 -135.979 423C-135.979 596.687 -47.0238 759.996 114.51 882.85C276.133 1005.78 491.044 1073.47 719.649 1073.47C948.254 1073.47 1163.17 1005.78 1324.79 882.85C1486.32 759.996 1575.28 596.687 1575.28 423C1575.28 249.314 1486.32 86.005 1324.79 -36.8494C1163.17 -159.775 948.254 -227.472 719.649 -227.472Z" fill="#8EABC5" fill-opacity="0.6"/>
<path d="M719.65 1075.82C608.208 1075.82 500.104 1058.57 398.327 1024.55C349.409 1008.2 302.224 987.955 258.088 964.389C214.365 941.048 173.249 914.235 135.883 884.706C98.5117 855.171 64.5783 822.672 35.0326 788.104C5.19792 753.207 -20.426 715.893 -41.1316 677.206C-84.2177 596.698 -106.067 511.169 -106.067 423.006C-106.067 334.843 -84.2177 249.314 -41.1316 168.805C-20.426 130.119 5.19792 92.8051 35.0326 57.9076C64.5783 23.3459 98.5117 -9.1591 135.883 -38.6941C173.249 -68.2233 214.365 -95.0358 258.088 -118.377C302.224 -141.943 349.409 -162.185 398.327 -178.538C500.104 -212.557 608.208 -229.806 719.65 -229.806C831.092 -229.806 939.197 -212.557 1040.97 -178.538C1089.89 -162.185 1137.08 -141.943 1181.21 -118.377C1224.93 -95.0358 1266.05 -68.2233 1303.42 -38.6941C1340.79 -9.1591 1374.72 23.34 1404.27 57.9076C1434.1 92.811 1459.73 130.119 1480.43 168.805C1523.52 249.314 1545.37 334.843 1545.37 423.006C1545.37 511.169 1523.52 596.698 1480.43 677.206C1459.73 715.893 1434.1 753.207 1404.27 788.104C1374.72 822.666 1340.79 855.171 1303.42 884.706C1266.05 914.235 1224.93 941.048 1181.21 964.389C1137.08 987.955 1089.89 1008.2 1040.97 1024.55C939.197 1058.57 831.092 1075.82 719.65 1075.82ZM719.65 -227.454C499.673 -227.454 292.871 -159.763 137.346 -36.8497C-18.1025 85.9989 -103.708 249.314 -103.708 423C-103.708 596.686 -18.1025 760.001 137.346 882.85C292.871 1005.76 499.673 1073.45 719.65 1073.45C939.627 1073.45 1146.43 1005.76 1301.95 882.85C1457.4 760.001 1543.01 596.686 1543.01 423C1543.01 249.314 1457.4 85.9989 1301.95 -36.8497C1146.43 -159.763 939.627 -227.454 719.65 -227.454Z" fill="#8EABC5" fill-opacity="0.6"/>
<path d="M719.65 1075.8C612.56 1075.8 508.672 1058.55 410.876 1024.53C363.869 1008.17 318.524 987.931 276.11 964.366C234.097 941.018 194.585 914.212 158.682 884.677C122.773 855.141 90.1667 822.642 61.7769 788.075C33.1098 753.177 8.48838 715.864 -11.4093 677.177C-52.8087 596.674 -73.8032 511.157 -73.8032 423C-73.8032 334.843 -52.8146 249.325 -11.4093 168.823C8.48248 130.136 33.1098 92.8287 61.7769 57.9252C90.1667 23.3636 122.773 -9.14146 158.682 -38.6765C194.591 -68.2115 234.097 -95.0182 276.11 -118.366C318.524 -141.931 363.863 -162.173 410.876 -178.526C508.678 -212.545 612.566 -229.8 719.65 -229.8C826.734 -229.8 930.627 -212.551 1028.42 -178.526C1075.43 -162.173 1120.78 -141.931 1163.19 -118.366C1205.2 -95.0182 1244.71 -68.2115 1280.62 -38.6765C1316.53 -9.14146 1349.13 23.3577 1377.52 57.9252C1406.19 92.8228 1430.81 130.136 1450.71 168.823C1492.11 249.325 1513.1 334.843 1513.1 423C1513.1 511.157 1492.11 596.674 1450.71 677.177C1430.81 715.864 1406.19 753.171 1377.52 788.075C1349.13 822.636 1316.53 855.141 1280.62 884.677C1244.71 914.212 1205.2 941.018 1163.19 964.366C1120.78 987.931 1075.44 1008.17 1028.42 1024.53C930.627 1058.55 826.74 1075.8 719.65 1075.8ZM719.65 -227.437C283.44 -227.437 -71.4443 64.3485 -71.4443 423.006C-71.4443 781.663 283.44 1073.44 719.65 1073.44C1155.86 1073.44 1510.74 781.657 1510.74 423C1510.74 64.3426 1155.86 -227.437 719.65 -227.437Z" fill="#8EABC5" fill-opacity="0.6"/>
<path d="M719.65 1075.78C616.912 1075.78 517.247 1058.53 423.42 1024.51C378.323 1008.16 334.824 987.913 294.132 964.342C253.824 940.995 215.922 914.182 181.475 884.653C147.023 855.118 115.749 822.613 88.5154 788.051C61.016 753.154 37.3972 715.84 18.3133 677.159C-21.3994 596.663 -41.533 511.151 -41.533 423.006C-41.533 334.86 -21.3994 249.349 18.3133 168.852C37.3972 130.166 61.016 92.858 88.5154 57.9604C115.749 23.3988 147.029 -9.10625 181.475 -38.6413C215.922 -68.1763 253.824 -94.9889 294.132 -118.331C334.824 -141.902 378.323 -162.144 423.42 -178.497C517.247 -212.522 616.912 -229.776 719.65 -229.776C822.387 -229.776 922.053 -212.522 1015.88 -178.497C1060.98 -162.144 1104.48 -141.902 1145.17 -118.331C1185.48 -94.983 1223.38 -68.1704 1257.82 -38.6413C1292.28 -9.10625 1323.55 23.3929 1350.78 57.9604C1378.28 92.858 1401.9 130.172 1420.99 168.852C1460.7 249.349 1480.83 334.86 1480.83 423.006C1480.83 511.151 1460.7 596.663 1420.99 677.159C1401.9 715.84 1378.28 753.154 1350.78 788.051C1323.55 822.613 1292.27 855.118 1257.82 884.653C1223.38 914.188 1185.48 941 1145.17 964.342C1104.48 987.908 1060.98 1008.16 1015.88 1024.51C922.053 1058.53 822.387 1075.78 719.65 1075.78ZM719.65 -227.419C301.233 -227.419 -39.1799 64.3601 -39.1799 423.006C-39.1799 781.651 301.233 1073.42 719.65 1073.42C1138.07 1073.42 1478.48 781.646 1478.48 423C1478.48 64.3542 1138.07 -227.419 719.65 -227.419Z" fill="#8EABC5" fill-opacity="0.6"/>
<path d="M719.649 1075.77C621.264 1075.77 525.815 1058.51 435.963 1024.49C392.777 1008.13 351.118 987.885 312.154 964.313C273.556 940.966 237.258 914.153 204.274 884.618C171.284 855.083 141.338 822.578 115.254 788.017C88.9221 753.119 66.3058 715.811 48.0299 677.13C10.0038 596.64 -9.27466 511.14 -9.27466 423.001C-9.27466 334.861 10.0038 249.362 48.0299 168.871C66.3058 130.19 88.9221 92.8824 115.254 57.9849C141.332 23.4233 171.284 -9.08179 204.274 -38.6168C237.258 -68.1519 273.556 -94.9644 312.154 -118.312C351.118 -141.883 392.777 -162.125 435.963 -178.484C525.815 -212.509 621.264 -229.764 719.649 -229.764C818.035 -229.764 913.484 -212.509 1003.34 -178.484C1046.52 -162.125 1088.18 -141.883 1127.14 -118.312C1165.74 -94.9644 1202.04 -68.1519 1235.02 -38.6168C1268.01 -9.08179 1297.96 23.4233 1324.05 57.9849C1350.38 92.8824 1372.99 130.19 1391.27 168.871C1429.29 249.362 1448.57 334.861 1448.57 423.001C1448.57 511.14 1429.3 596.64 1391.27 677.13C1372.99 715.811 1350.38 753.119 1324.05 788.017C1297.97 822.578 1268.01 855.083 1235.02 884.618C1202.04 914.153 1165.74 940.966 1127.14 964.313C1088.18 987.885 1046.52 1008.13 1003.34 1024.49C913.484 1058.52 818.035 1075.77 719.649 1075.77ZM719.649 -227.401C319.025 -227.401 -6.90982 64.3727 -6.90982 423.007C-6.90982 781.64 319.025 1073.41 719.649 1073.41C1120.27 1073.41 1446.21 781.635 1446.21 423.001C1446.21 64.3669 1120.27 -227.401 719.649 -227.401Z" fill="#8EABC5" fill-opacity="0.6"/>
<path d="M719.649 1075.75C625.61 1075.75 534.384 1058.5 448.507 1024.47C407.231 1008.11 367.418 987.867 330.176 964.296C293.288 940.948 258.6 914.135 227.073 884.595C195.546 855.06 166.92 822.554 141.998 787.993C116.834 753.095 95.2201 715.788 77.7581 677.113C41.4245 596.628 23.0012 511.14 23.0012 423.007C23.0012 334.873 41.4245 249.385 77.7581 168.9C95.2201 130.219 116.834 92.9118 141.998 58.0201C166.92 23.4585 195.546 -9.04657 227.073 -38.5816C258.6 -68.1167 293.288 -94.9292 330.176 -118.283C367.418 -141.854 407.231 -162.102 448.507 -178.455C534.39 -212.486 625.616 -229.74 719.649 -229.74C813.682 -229.74 904.914 -212.486 990.792 -178.455C1032.07 -162.096 1071.88 -141.854 1109.12 -118.283C1146.01 -94.9351 1180.7 -68.1225 1212.23 -38.5816C1243.75 -9.04657 1272.38 23.4585 1297.3 58.0201C1322.46 92.9177 1344.08 130.225 1361.54 168.9C1397.87 249.379 1416.3 334.873 1416.3 423.007C1416.3 511.14 1397.87 596.628 1361.54 677.113C1344.08 715.793 1322.46 753.101 1297.3 787.993C1272.38 822.554 1243.75 855.06 1212.23 884.595C1180.7 914.13 1146.01 940.942 1109.12 964.296C1071.88 987.867 1032.07 1008.11 990.792 1024.47C904.914 1058.49 813.688 1075.75 719.649 1075.75ZM719.649 -227.383C336.817 -227.383 25.3543 64.3785 25.3543 423.007C25.3543 781.634 336.817 1073.4 719.649 1073.4C1102.48 1073.4 1413.94 781.634 1413.94 423.007C1413.94 64.3785 1102.49 -227.383 719.649 -227.383Z" fill="#8EABC5" fill-opacity="0.6"/>
<path d="M719.649 1075.74C629.962 1075.74 542.953 1058.48 461.045 1024.44C421.68 1008.09 383.707 987.837 348.187 964.266C313.009 940.918 279.925 914.1 249.861 884.565C219.796 855.03 192.497 822.525 168.731 787.963C144.734 753.066 124.123 715.764 107.469 677.089C72.8221 596.616 55.2539 511.128 55.2539 423.012C55.2539 334.896 72.8221 249.408 107.469 168.935C124.123 130.26 144.734 92.9528 168.731 58.0611C192.497 23.4995 219.796 -9.00558 249.861 -38.5406C279.925 -68.0757 313.009 -94.8941 348.187 -118.242C383.707 -141.813 421.674 -162.061 461.045 -178.42C542.953 -212.457 629.956 -229.711 719.649 -229.711C809.342 -229.711 896.346 -212.451 978.254 -178.42C1017.62 -162.061 1055.59 -141.813 1091.11 -118.242C1126.29 -94.8941 1159.37 -68.0757 1189.44 -38.5406C1219.5 -9.00558 1246.8 23.4995 1270.57 58.0611C1294.56 92.9586 1315.18 130.26 1331.83 168.935C1366.48 249.408 1384.04 334.896 1384.04 423.012C1384.04 511.128 1366.48 596.616 1331.83 677.089C1315.18 715.764 1294.57 753.071 1270.57 787.963C1246.8 822.525 1219.5 855.03 1189.44 884.565C1159.37 914.1 1126.29 940.918 1091.11 964.266C1055.59 987.837 1017.62 1008.09 978.254 1024.44C896.346 1058.48 809.336 1075.74 719.649 1075.74ZM719.649 -227.372C354.603 -227.372 57.6187 64.3842 57.6187 423C57.6187 781.617 354.603 1073.38 719.649 1073.38C1084.7 1073.38 1381.67 781.622 1381.67 423.006C1381.67 64.39 1084.7 -227.372 719.649 -227.372Z" fill="#8EABC5" fill-opacity="0.6"/>
<path d="M719.649 1075.72C634.308 1075.72 551.521 1058.46 473.588 1024.42C436.134 1008.06 400.007 987.814 366.209 964.236C332.736 940.883 301.262 914.07 272.659 884.529C244.057 854.994 218.085 822.489 195.475 787.928C172.646 753.036 153.038 715.734 137.197 677.059C104.237 596.592 87.5298 511.116 87.5298 423.006C87.5298 334.896 104.243 249.42 137.197 168.953C153.038 130.278 172.646 92.9763 195.475 58.0847C218.085 23.523 244.057 -8.97612 272.659 -38.517C301.262 -68.0521 332.736 -94.8705 366.209 -118.224C400.001 -141.801 436.128 -162.049 473.588 -178.408C551.521 -212.445 634.308 -229.705 719.649 -229.705C804.99 -229.705 887.777 -212.445 965.71 -178.408C1003.17 -162.049 1039.29 -141.801 1073.09 -118.224C1106.56 -94.8705 1138.04 -68.058 1166.64 -38.517C1195.24 -8.98201 1221.21 23.523 1243.82 58.0847C1266.65 92.9763 1286.26 130.278 1302.1 168.953C1335.06 249.42 1351.77 334.896 1351.77 423.006C1351.77 511.116 1335.06 596.592 1302.1 677.059C1286.26 715.734 1266.65 753.036 1243.82 787.928C1221.21 822.489 1195.24 854.988 1166.64 884.529C1138.04 914.065 1106.56 940.883 1073.09 964.236C1039.3 987.814 1003.17 1008.06 965.71 1024.42C887.777 1058.46 804.99 1075.72 719.649 1075.72ZM719.649 -227.354C372.395 -227.354 89.8887 64.396 89.8887 423C89.8887 781.605 372.395 1073.36 719.649 1073.36C1066.9 1073.36 1349.41 781.611 1349.41 423.006C1349.41 64.4019 1066.9 -227.354 719.649 -227.354Z" fill="#8EABC5" fill-opacity="0.6"/>
<path d="M719.649 1075.7C638.654 1075.7 560.09 1058.44 486.125 1024.39C450.582 1008.03 416.295 987.778 384.225 964.201C352.462 940.848 322.598 914.029 295.452 884.494C240.371 824.552 197.126 754.751 166.92 677.03C135.646 596.569 119.794 511.105 119.794 423.006C119.794 334.908 135.652 249.438 166.92 168.983C197.126 91.2616 240.371 21.4606 295.452 -38.4816C322.598 -68.0225 352.462 -94.8351 384.225 -118.188C416.295 -141.766 450.576 -162.02 486.125 -178.378C560.09 -212.421 638.66 -229.687 719.649 -229.687C800.637 -229.687 879.207 -212.427 953.172 -178.378C988.715 -162.014 1023 -141.766 1055.07 -118.188C1086.84 -94.8351 1116.7 -68.0166 1143.84 -38.4816C1198.93 21.4606 1242.17 91.2616 1272.38 168.983C1303.65 249.444 1319.5 334.908 1319.5 423.006C1319.5 511.105 1303.65 596.575 1272.38 677.03C1242.17 754.751 1198.93 824.552 1143.84 884.494C1116.71 914.029 1086.84 940.848 1055.07 964.201C1023 987.778 988.721 1008.03 953.172 1024.39C879.207 1058.43 800.643 1075.7 719.649 1075.7ZM719.649 -227.336C390.187 -227.336 122.153 64.4019 122.153 423C122.153 781.599 390.187 1073.34 719.649 1073.34C1049.11 1073.34 1317.14 781.599 1317.14 423C1317.14 64.4019 1049.11 -227.336 719.649 -227.336Z" fill="#8EABC5" fill-opacity="0.6"/>
<path d="M719.649 1075.68C643.007 1075.68 568.654 1058.42 498.664 1024.37C431.074 991.485 370.373 944.413 318.252 884.459C266.137 824.516 225.227 754.721 196.649 677.006C167.068 596.557 152.065 511.099 152.065 423.006C152.065 334.914 167.068 249.455 196.649 169.006C225.227 91.2909 266.137 21.4958 318.252 -38.4465C370.373 -98.4005 431.074 -145.473 498.664 -178.355C568.654 -212.404 643.007 -229.67 719.649 -229.67C796.291 -229.67 870.645 -212.404 940.635 -178.355C1008.22 -145.473 1068.93 -98.4005 1121.05 -38.4465C1173.16 21.4958 1214.07 91.2909 1242.65 169.006C1272.23 249.455 1287.23 334.914 1287.23 423.006C1287.23 511.099 1272.23 596.557 1242.65 677.006C1214.07 754.721 1173.16 824.516 1121.05 884.459C1068.93 944.413 1008.22 991.485 940.635 1024.37C870.645 1058.42 796.291 1075.68 719.649 1075.68ZM719.649 -227.319C407.98 -227.319 154.418 64.4135 154.418 423C154.418 781.587 407.98 1073.32 719.649 1073.32C1031.32 1073.32 1284.88 781.587 1284.88 423C1284.88 64.4135 1031.32 -227.319 719.649 -227.319Z" fill="#8EABC5" fill-opacity="0.6"/>
<path d="M719.649 1075.66C647.348 1075.66 577.216 1058.39 511.196 1024.34C447.445 991.449 390.2 944.377 341.039 884.417C291.897 824.481 253.316 754.686 226.365 676.977C198.471 596.533 184.323 511.086 184.323 423.006C184.323 334.925 198.465 249.479 226.365 169.035C253.316 91.3259 291.897 21.5308 341.039 -38.4055C390.194 -98.3595 447.445 -145.438 511.196 -178.326C577.216 -212.386 647.348 -229.653 719.649 -229.653C791.951 -229.653 862.082 -212.381 928.103 -178.326C991.853 -145.438 1049.1 -98.3654 1098.26 -38.4055C1147.4 21.5308 1185.98 91.3259 1212.93 169.035C1240.83 249.479 1254.98 334.925 1254.98 423.006C1254.98 511.086 1240.83 596.533 1212.93 676.977C1185.98 754.686 1147.4 824.481 1098.26 884.417C1049.1 944.371 991.853 991.449 928.103 1024.34C862.082 1058.39 791.951 1075.66 719.649 1075.66ZM719.649 -227.301C425.773 -227.301 186.688 64.425 186.688 423C186.688 781.575 425.773 1073.31 719.649 1073.31C1013.53 1073.31 1252.61 781.581 1252.61 423.006C1252.61 64.4309 1013.53 -227.301 719.649 -227.301Z" fill="#8EABC5" fill-opacity="0.6"/>
<path d="M719.649 1075.65C651.694 1075.65 585.78 1058.37 523.728 1024.31C463.822 991.42 410.027 944.336 363.833 884.382C317.657 824.445 281.412 754.656 256.088 676.953C229.881 596.521 216.588 511.081 216.588 423.006C216.588 334.931 229.875 249.496 256.088 169.059C281.406 91.3553 317.657 21.5661 363.833 -38.3702C410.027 -98.3302 463.822 -145.408 523.728 -178.296C585.78 -212.369 651.694 -229.641 719.649 -229.641C787.605 -229.641 853.519 -212.369 915.571 -178.302C975.476 -145.414 1029.27 -98.3302 1075.47 -38.3761C1121.64 21.5602 1157.89 91.3494 1183.21 169.053C1209.42 249.484 1222.71 334.925 1222.71 423C1222.71 511.075 1209.42 596.509 1183.21 676.947C1157.89 754.65 1121.64 824.44 1075.47 884.376C1029.27 944.336 975.476 991.414 915.571 1024.3C853.519 1058.37 787.605 1075.65 719.649 1075.65ZM719.649 -227.284C585.968 -227.284 460.266 -159.681 365.702 -36.9324C271.068 85.9103 218.953 249.249 218.953 423.006C218.953 596.763 271.068 760.101 365.702 882.944C460.266 1005.69 585.968 1073.3 719.649 1073.3C853.331 1073.3 979.033 1005.69 1073.6 882.944C1168.23 760.101 1220.35 596.763 1220.35 423.006C1220.35 249.249 1168.23 85.9103 1073.6 -36.9324C979.033 -159.681 853.331 -227.284 719.649 -227.284Z" fill="#8EABC5" fill-opacity="0.6"/>
<path d="M719.65 1075.63C656.041 1075.63 594.337 1058.35 536.26 1024.27C480.2 991.378 429.854 944.294 386.632 884.334C343.428 824.404 309.513 754.615 285.823 676.917C261.302 596.492 248.87 511.063 248.87 423C248.87 334.937 261.302 249.508 285.823 169.082C309.513 91.3846 343.434 21.6013 386.632 -38.335C429.854 -98.2949 480.2 -145.379 536.26 -178.273C594.337 -212.351 656.041 -229.629 719.65 -229.629C783.258 -229.629 844.962 -212.351 903.039 -178.273C959.1 -145.379 1009.45 -98.2949 1052.67 -38.335C1095.87 21.5954 1129.79 91.3846 1153.48 169.082C1178 249.508 1190.44 334.937 1190.44 423C1190.44 511.063 1178 596.492 1153.48 676.917C1129.79 754.615 1095.87 824.398 1052.67 884.334C1009.45 944.294 959.1 991.378 903.039 1024.27C844.962 1058.35 783.258 1075.63 719.65 1075.63ZM719.65 -227.266C594.602 -227.266 477.015 -159.675 388.543 -36.9502C299.988 85.8925 251.223 249.243 251.223 423.006C251.223 596.768 299.994 760.119 388.543 882.961C477.015 1005.69 594.602 1073.27 719.65 1073.27C844.697 1073.27 962.284 1005.68 1050.76 882.955C1139.31 760.113 1188.08 596.763 1188.08 423C1188.08 249.237 1139.3 85.8866 1050.76 -36.9561C962.284 -159.681 844.697 -227.266 719.65 -227.266Z" fill="#8EABC5" fill-opacity="0.6"/>
<path d="M719.649 1075.61C660.381 1075.61 602.894 1058.33 548.786 1024.24C496.564 991.338 449.681 944.254 409.419 884.288C369.188 824.358 337.601 754.58 315.539 676.889C292.705 596.475 281.128 511.052 281.128 423.001C281.128 334.949 292.705 249.526 315.539 169.112C337.601 91.4209 369.188 21.6434 409.419 -38.287C449.675 -98.2528 496.564 -145.337 548.786 -178.237C602.894 -212.327 660.381 -229.611 719.649 -229.611C778.918 -229.611 836.405 -212.327 890.513 -178.237C942.734 -145.337 989.618 -98.2528 1029.88 -38.287C1070.11 21.6434 1101.7 91.4209 1123.76 169.112C1146.59 249.526 1158.17 334.949 1158.17 423.001C1158.17 511.052 1146.59 596.475 1123.76 676.889C1101.7 754.58 1070.11 824.358 1029.88 884.288C989.624 944.254 942.734 991.338 890.513 1024.24C836.405 1058.33 778.918 1075.61 719.649 1075.61ZM719.649 -227.248C603.236 -227.248 493.757 -159.674 411.383 -36.967C328.909 85.8816 283.487 249.238 283.487 423.006C283.487 596.775 328.909 760.137 411.383 882.98C493.757 1005.68 603.236 1073.25 719.649 1073.25C836.063 1073.25 945.542 1005.68 1027.92 882.98C1110.39 760.131 1155.81 596.775 1155.81 423.006C1155.81 249.238 1110.39 85.8757 1027.92 -36.967C945.542 -159.674 836.063 -227.248 719.649 -227.248Z" fill="#8EABC5" fill-opacity="0.6"/>
<path d="M719.65 1075.59C664.722 1075.59 611.451 1058.3 561.312 1024.2C512.936 991.297 469.502 944.207 432.213 884.241C394.947 824.317 365.697 754.545 345.262 676.859C324.114 596.451 313.393 511.04 313.393 423.001C313.393 334.961 324.114 249.55 345.262 169.142C365.697 91.4562 394.947 21.6847 432.213 -38.2399C469.502 -98.2057 512.936 -145.296 561.312 -178.195C611.451 -212.297 664.722 -229.593 719.65 -229.593C774.578 -229.593 827.848 -212.303 877.988 -178.195C926.364 -145.296 969.797 -98.2057 1007.09 -38.2399C1044.35 21.6847 1073.6 91.4562 1094.04 169.142C1115.18 249.55 1125.91 334.961 1125.91 423.001C1125.91 511.04 1115.18 596.451 1094.04 676.859C1073.6 754.545 1044.35 824.317 1007.09 884.241C969.797 944.207 926.364 991.297 877.988 1024.2C827.848 1058.3 774.578 1075.59 719.65 1075.59ZM719.65 -227.23C611.876 -227.23 510.506 -159.668 434.218 -36.9906C357.824 85.8639 315.752 249.226 315.752 423.007C315.752 596.787 357.824 760.155 434.218 883.004C510.506 1005.68 611.87 1073.24 719.65 1073.24C827.43 1073.24 928.793 1005.68 1005.08 883.004C1081.48 760.155 1123.55 596.787 1123.55 423.007C1123.55 249.226 1081.48 85.858 1005.08 -36.9906C928.793 -159.668 827.424 -227.23 719.65 -227.23Z" fill="#8EABC5" fill-opacity="0.6"/>
<path d="M719.649 1075.58C669.062 1075.58 620.002 1058.28 573.832 1024.16C529.307 991.255 489.328 944.165 455.006 884.2C420.713 824.281 393.791 754.515 374.985 676.836C355.524 596.439 345.657 511.034 345.657 423.006C345.657 334.979 355.524 249.573 374.985 169.177C393.786 91.5031 420.713 21.7316 455.006 -38.1871C489.323 -98.1529 529.307 -145.243 573.832 -178.149C620.002 -212.268 669.062 -229.57 719.649 -229.57C770.237 -229.57 819.297 -212.268 865.467 -178.149C909.992 -145.243 949.97 -98.1529 984.293 -38.1871C1018.59 21.7316 1045.51 91.4972 1064.31 169.177C1083.78 249.573 1093.64 334.979 1093.64 423.006C1093.64 511.034 1083.78 596.439 1064.31 676.836C1045.51 754.509 1018.59 824.281 984.293 884.2C949.97 944.165 909.992 991.255 865.467 1024.16C819.297 1058.28 770.237 1075.58 719.649 1075.58ZM719.649 -227.213C620.509 -227.213 527.254 -159.669 457.058 -37.0144C386.744 85.84 348.022 249.214 348.022 423.006C348.022 596.799 386.744 760.172 457.058 883.027C527.254 1005.68 620.509 1073.23 719.649 1073.23C818.79 1073.23 912.045 1005.68 982.241 883.027C1052.55 760.167 1091.28 596.799 1091.28 423.006C1091.28 249.214 1052.55 85.84 982.241 -37.0144C912.045 -159.669 818.79 -227.213 719.649 -227.213Z" fill="#8EABC5" fill-opacity="0.6"/>
<path d="M719.649 1075.56C673.396 1075.56 628.552 1058.25 586.351 1024.11C545.671 991.202 509.155 944.112 477.804 884.146C446.483 824.234 421.891 754.474 404.718 676.806C386.944 596.415 377.927 511.028 377.927 423.006C377.927 334.984 386.938 249.597 404.718 169.206C421.891 91.5384 446.483 21.7786 477.804 -38.1341C509.155 -98.0999 545.677 -145.19 586.351 -178.101C628.552 -212.245 673.396 -229.552 719.649 -229.552C765.902 -229.552 810.745 -212.239 852.946 -178.101C893.626 -145.19 930.143 -98.0999 961.493 -38.1341C992.814 21.7786 1017.41 91.5384 1034.58 169.206C1052.35 249.597 1061.37 334.984 1061.37 423.006C1061.37 511.028 1052.36 596.415 1034.58 676.806C1017.41 754.474 992.814 824.234 961.493 884.146C930.143 944.112 893.62 991.202 852.946 1024.11C810.745 1058.25 765.896 1075.56 719.649 1075.56ZM719.649 -227.201C629.148 -227.201 544.002 -159.669 479.892 -37.0499C415.658 85.8164 380.286 249.196 380.286 423C380.286 596.804 415.658 760.184 479.892 883.05C543.996 1005.67 629.148 1073.2 719.649 1073.2C810.149 1073.2 895.295 1005.67 959.405 883.05C1023.64 760.184 1059.01 596.804 1059.01 423C1059.01 249.196 1023.64 85.8164 959.405 -37.0499C895.295 -159.669 810.149 -227.201 719.649 -227.201Z" fill="#8EABC5" fill-opacity="0.6"/>
<path d="M719.649 1075.55C677.731 1075.55 637.098 1058.22 598.866 1024.06C562.037 991.149 528.976 944.059 500.598 884.093C472.244 824.186 449.987 754.433 434.442 676.776C418.354 596.398 410.192 511.016 410.192 423.006C410.192 334.996 418.348 249.615 434.442 169.236C449.987 91.5797 472.244 21.8258 500.598 -38.081C528.976 -98.0468 562.043 -145.137 598.866 -178.048C637.092 -212.215 677.731 -229.534 719.649 -229.534C761.568 -229.534 802.201 -212.209 840.433 -178.048C877.262 -145.137 910.322 -98.0468 938.701 -38.081C967.055 21.8258 989.312 91.5797 1004.86 169.236C1020.95 249.615 1029.11 334.996 1029.11 423.006C1029.11 511.016 1020.95 596.398 1004.86 676.776C989.312 754.433 967.055 824.186 938.701 884.093C910.322 944.053 877.256 991.149 840.433 1024.06C802.201 1058.22 761.568 1075.55 719.649 1075.55ZM719.649 -227.183C637.788 -227.183 560.751 -159.669 502.733 -37.0792C444.579 85.7929 412.557 249.184 412.557 423C412.557 596.816 444.585 760.208 502.733 883.08C560.751 1005.67 637.788 1073.18 719.649 1073.18C801.51 1073.18 878.548 1005.67 936.566 883.08C994.719 760.208 1026.74 596.816 1026.74 423C1026.74 249.184 994.714 85.7929 936.566 -37.0792C878.548 -159.669 801.51 -227.183 719.649 -227.183Z" fill="#8EABC5" fill-opacity="0.6"/>
<path d="M719.649 1075.53C682.065 1075.53 645.637 1058.19 611.38 1024C578.402 991.084 548.803 943.994 523.391 884.034C498.009 824.133 478.082 754.391 464.164 676.747C449.757 596.38 442.456 511.004 442.456 423.006C442.456 335.008 449.757 249.632 464.164 169.265C478.082 91.6149 498.009 21.8729 523.391 -38.0222C548.797 -97.9821 578.402 -145.072 611.38 -177.984C645.637 -212.174 682.065 -229.517 719.649 -229.517C757.233 -229.517 793.661 -212.18 827.919 -177.984C860.897 -145.072 890.495 -97.9821 915.907 -38.0222C941.289 21.8788 961.216 91.6208 975.134 169.265C989.541 249.632 996.842 335.008 996.842 423.006C996.842 511.004 989.541 596.38 975.134 676.747C961.216 754.397 941.289 824.139 915.907 884.034C890.501 943.994 860.897 991.084 827.919 1024C793.661 1058.19 757.233 1075.53 719.649 1075.53ZM719.649 -227.165C682.714 -227.165 646.846 -210.058 613.049 -176.322C580.289 -143.622 550.855 -96.7858 525.567 -37.1088C473.494 85.7692 444.821 249.178 444.821 423C444.821 596.822 473.5 760.231 525.567 883.109C550.855 942.786 580.289 989.623 613.049 1022.32C646.846 1056.06 682.714 1073.17 719.649 1073.17C756.584 1073.17 792.452 1056.06 826.25 1022.32C859.009 989.623 888.443 942.786 913.731 883.109C965.805 760.225 994.477 596.822 994.477 423C994.477 249.178 965.799 85.7692 913.731 -37.1088C888.443 -96.7858 859.009 -143.622 826.25 -176.322C792.452 -210.058 756.584 -227.165 719.649 -227.165Z" fill="#8EABC5" fill-opacity="0.6"/>
<path d="M719.649 1075.51C686.394 1075.51 654.171 1058.16 623.888 1023.93C594.767 991.019 568.624 943.93 546.191 883.976C523.781 824.086 506.183 754.35 493.893 676.712C481.172 596.351 474.727 510.993 474.727 423C474.727 335.008 481.178 249.65 493.893 169.289C506.183 91.6503 523.775 21.9201 546.191 -37.975C568.624 -97.929 594.767 -145.013 623.888 -177.931C654.171 -212.156 686.388 -229.511 719.649 -229.511C752.91 -229.511 785.128 -212.156 815.41 -177.931C844.532 -145.019 870.675 -97.929 893.108 -37.975C915.518 21.9142 933.116 91.6503 945.406 169.289C958.126 249.65 964.572 335.008 964.572 423C964.572 510.993 958.121 596.351 945.406 676.712C933.116 754.35 915.524 824.081 893.108 883.976C870.675 943.93 844.532 991.013 815.41 1023.93C785.128 1058.16 752.905 1075.51 719.649 1075.51ZM719.649 -227.148C585.898 -227.148 477.086 64.5078 477.086 423C477.086 781.493 585.898 1073.15 719.649 1073.15C853.401 1073.15 962.213 781.499 962.213 423.006C962.213 64.5137 853.401 -227.148 719.649 -227.148Z" fill="#8EABC5" fill-opacity="0.6"/>
<path d="M719.65 1075.49C690.717 1075.49 662.705 1058.12 636.397 1023.85C611.132 990.936 588.451 943.858 568.99 883.91C549.546 824.027 534.284 754.309 523.622 676.682C512.588 596.333 506.991 510.98 506.991 423C506.991 335.019 512.588 249.667 523.622 169.318C534.284 91.6913 549.546 21.9669 568.99 -37.9105C588.451 -97.8528 611.132 -144.937 636.397 -177.848C662.705 -212.115 690.711 -229.493 719.65 -229.493C748.588 -229.493 776.594 -212.115 802.902 -177.848C828.167 -144.937 850.848 -97.8586 870.309 -37.9105C889.753 21.9728 905.015 91.6913 915.677 169.318C926.711 249.667 932.308 335.019 932.308 423C932.308 510.98 926.711 596.333 915.677 676.682C905.015 754.309 889.753 824.033 870.309 883.91C850.848 943.853 828.167 990.936 802.902 1023.85C776.594 1058.12 748.588 1075.49 719.65 1075.49ZM719.65 -227.13C603.69 -227.13 509.35 64.5193 509.35 423C509.35 781.481 603.69 1073.13 719.65 1073.13C835.609 1073.13 929.949 781.481 929.949 423C929.949 64.5193 835.609 -227.13 719.65 -227.13Z" fill="#8EABC5" fill-opacity="0.6"/>
<path d="M719.65 1075.48C695.034 1075.48 671.227 1058.07 648.905 1023.76C627.498 990.855 608.284 943.783 591.795 883.852C557.921 760.738 539.262 597.076 539.262 423.007C539.262 248.937 557.915 85.2688 591.795 -37.839C608.284 -97.7695 627.504 -144.842 648.905 -177.747C671.233 -212.067 695.034 -229.463 719.65 -229.463C744.265 -229.463 768.073 -212.062 790.394 -177.747C811.802 -144.842 831.015 -97.7695 847.504 -37.839C881.379 85.2747 900.038 248.937 900.038 423.007C900.038 597.076 881.385 760.744 847.504 883.852C831.015 943.783 811.796 990.855 790.394 1023.76C768.073 1058.07 744.265 1075.48 719.65 1075.48ZM719.65 -227.112C695.884 -227.112 672.742 -210.07 650.881 -176.469C629.609 -143.769 610.49 -96.915 594.066 -37.2203C560.245 85.6931 541.621 249.138 541.621 423.001C541.621 596.864 560.245 760.308 594.066 883.221C610.49 942.916 629.609 989.77 650.881 1022.47C672.742 1056.08 695.878 1073.11 719.65 1073.11C743.422 1073.11 766.557 1056.07 788.419 1022.47C809.691 989.77 828.81 942.916 845.234 883.221C879.055 760.308 897.679 596.864 897.679 423.001C897.679 249.138 879.055 85.6931 845.234 -37.2203C828.81 -96.915 809.691 -143.769 788.419 -176.469C766.557 -210.07 743.416 -227.112 719.65 -227.112Z" fill="#8EABC5" fill-opacity="0.6"/>
<path d="M719.65 1075.46C679.789 1075.46 642.483 1007.39 614.594 883.787C586.824 760.697 571.526 597.052 571.526 423.007C571.526 248.961 586.824 85.3159 614.594 -37.7743C642.483 -161.377 679.789 -229.446 719.65 -229.446C759.51 -229.446 796.816 -161.377 824.705 -37.7743C852.476 85.3159 867.773 248.961 867.773 423.007C867.773 597.052 852.476 760.697 824.705 883.787C796.816 1007.39 759.51 1075.46 719.65 1075.46ZM719.65 -227.094C700.283 -227.094 681.388 -210.088 663.495 -176.539C646.045 -143.828 630.37 -96.9681 616.894 -37.2616C589.159 85.6636 573.885 249.126 573.885 423.001C573.885 596.876 589.159 760.338 616.894 883.263C630.364 942.975 646.045 989.835 663.495 1022.54C681.388 1056.09 700.283 1073.1 719.65 1073.1C739.017 1073.1 757.912 1056.08 775.804 1022.54C793.254 989.829 808.93 942.969 822.405 883.263C850.14 760.338 865.414 596.876 865.414 423.001C865.414 249.126 850.14 85.6636 822.405 -37.2616C808.936 -96.974 793.254 -143.834 775.804 -176.539C757.912 -210.088 739.017 -227.094 719.65 -227.094Z" fill="#8EABC5" fill-opacity="0.6"/>
<path d="M719.649 1075.44C703.644 1075.44 688.264 1057.98 673.921 1023.54C660.234 990.654 647.943 943.612 637.399 883.717C615.726 760.644 603.79 597.029 603.79 423.001C603.79 248.973 615.726 85.3571 637.399 -37.7154C647.943 -97.6105 660.234 -144.653 673.921 -177.535C688.258 -211.979 703.644 -229.44 719.649 -229.44C735.655 -229.44 751.035 -211.979 765.377 -177.535C779.065 -144.653 791.355 -97.6105 801.9 -37.7154C823.572 85.3571 835.509 248.973 835.509 423.001C835.509 597.029 823.572 760.644 801.9 883.717C791.355 943.612 779.065 990.654 765.377 1023.54C751.035 1057.98 735.655 1075.44 719.649 1075.44ZM719.649 -227.077C704.688 -227.077 690.039 -210.099 676.097 -176.622C662.475 -143.899 650.238 -97.0271 639.717 -37.297C618.067 85.6459 606.149 249.12 606.149 423.007C606.149 596.893 618.073 760.373 639.717 883.31C650.232 943.034 662.475 989.912 676.097 1022.63C690.033 1056.11 704.688 1073.08 719.649 1073.08C734.611 1073.08 749.26 1056.11 763.195 1022.63C776.818 989.906 789.055 943.034 799.576 883.31C821.225 760.367 833.144 596.893 833.144 423.007C833.144 249.12 821.219 85.64 799.576 -37.297C789.061 -97.0212 776.818 -143.899 763.195 -176.622C749.26 -210.105 734.611 -227.077 719.649 -227.077Z" fill="#8EABC5" fill-opacity="0.6"/>
<path d="M719.65 1075.42C707.943 1075.42 696.768 1057.92 686.442 1023.41C676.611 990.542 667.782 943.523 660.204 883.651C644.635 760.602 636.055 597.005 636.055 423.006C636.055 249.008 644.629 85.4098 660.204 -37.6391C667.782 -97.5107 676.605 -144.536 686.442 -177.394C696.768 -211.909 707.943 -229.411 719.65 -229.411C731.356 -229.411 742.531 -211.909 752.858 -177.394C762.688 -144.53 771.517 -97.5107 779.095 -37.6391C794.664 85.4098 803.245 249.008 803.245 423.006C803.245 597.005 794.67 760.602 779.095 883.651C771.517 943.523 762.694 990.548 752.858 1023.41C742.531 1057.92 731.356 1075.42 719.65 1075.42ZM719.65 -227.059C698.614 -227.059 677.802 -157.913 662.546 -37.3445C646.988 85.6101 638.42 249.102 638.42 423.006C638.42 596.91 646.988 760.402 662.546 883.357C677.802 1003.92 698.614 1073.07 719.65 1073.07C740.685 1073.07 761.497 1003.92 776.754 883.357C792.311 760.402 800.88 596.91 800.88 423.006C800.88 249.102 792.311 85.6101 776.754 -37.3445C761.497 -157.913 740.685 -227.059 719.65 -227.059Z" fill="#8EABC5" fill-opacity="0.6"/>
<path d="M719.649 1075.41C712.124 1075.41 705.36 1058.35 698.967 1023.26C692.987 990.418 687.621 943.423 683.015 883.575C673.544 760.544 668.325 596.975 668.325 423C668.325 249.025 673.544 85.451 683.015 -37.5743C687.621 -97.4222 692.993 -144.418 698.967 -177.259C705.354 -212.345 712.118 -229.405 719.649 -229.405C727.18 -229.405 733.939 -212.351 740.331 -177.259C746.311 -144.418 751.678 -97.4222 756.284 -37.5743C765.755 85.4569 770.974 249.025 770.974 423C770.974 596.975 765.755 760.549 756.284 883.575C751.678 943.423 746.305 990.418 740.331 1023.26C733.939 1058.35 727.174 1075.41 719.649 1075.41ZM719.649 -227.042C716.205 -227.042 709.246 -220.518 701.291 -176.834C695.329 -144.076 689.968 -97.157 685.368 -37.3916C675.897 85.5807 670.684 249.084 670.684 423.006C670.684 596.928 675.897 760.432 685.368 883.404C689.968 943.169 695.329 990.088 701.291 1022.85C709.246 1066.53 716.205 1073.05 719.649 1073.05C723.093 1073.05 730.052 1066.53 738.008 1022.85C743.97 990.088 749.331 943.169 753.931 883.404C763.402 760.432 768.615 596.928 768.615 423.006C768.615 249.084 763.402 85.5807 753.931 -37.3916C749.331 -97.157 743.97 -144.076 738.008 -176.834C730.052 -220.524 723.093 -227.042 719.649 -227.042Z" fill="#8EABC5" fill-opacity="0.6"/>
<path d="M719.65 1075.39C718.14 1075.39 716.642 1074.3 714.879 1061.14C713.729 1052.56 712.596 1039.77 711.517 1023.11C709.388 990.301 707.477 943.328 705.832 883.51C702.453 760.502 700.595 596.958 700.595 423.006C700.595 249.055 702.453 85.5042 705.832 -37.4976C707.472 -97.3161 709.388 -144.288 711.517 -177.1C712.596 -193.747 713.729 -206.54 714.879 -215.126C716.642 -228.291 718.146 -229.381 719.65 -229.381C721.153 -229.381 722.657 -228.291 724.421 -215.126C725.571 -206.546 726.703 -193.753 727.788 -177.1C729.917 -144.288 731.828 -97.3161 733.473 -37.4976C736.852 85.51 738.71 249.055 738.71 423.006C738.71 596.958 736.852 760.502 733.473 883.51C731.828 943.328 729.917 990.301 727.788 1023.11C726.709 1039.76 725.576 1052.55 724.421 1061.14C722.657 1074.3 721.159 1075.39 719.65 1075.39ZM719.65 -226.647C717.692 -222.893 712.461 -196.741 708.044 -32.141C704.759 90.2184 702.954 251.86 702.954 423C702.954 594.141 704.765 755.782 708.044 878.142C712.461 1042.74 717.692 1068.89 719.65 1072.65C721.608 1068.89 726.838 1042.74 731.256 878.142C734.54 755.782 736.351 594.141 736.351 423C736.351 251.86 734.54 90.2184 731.256 -32.141C726.838 -196.741 721.608 -222.893 719.65 -226.647Z" fill="#8EABC5" fill-opacity="0.6"/>
<path d="M719.65 455.665C404.59 455.665 108.389 452.388 -114.395 446.442C-222.729 443.549 -307.787 440.184 -367.208 436.436C-397.344 434.533 -420.491 432.547 -436.013 430.52C-459.071 427.515 -461 425.063 -461 423.007C-461 420.95 -459.071 418.499 -436.013 415.493C-420.491 413.466 -397.344 411.48 -367.208 409.577C-307.787 405.829 -222.729 402.458 -114.395 399.571C108.389 393.625 404.59 390.348 719.65 390.348C1034.71 390.348 1330.91 393.625 1553.69 399.571C1662.03 402.464 1747.09 405.829 1806.51 409.577C1836.64 411.48 1859.79 413.466 1875.31 415.493C1898.37 418.499 1900.3 420.95 1900.3 423.007C1900.3 425.063 1898.37 427.515 1875.31 430.52C1859.79 432.547 1836.64 434.533 1806.51 436.436C1747.09 440.184 1662.03 443.555 1553.69 446.442C1330.91 452.388 1034.71 455.665 719.65 455.665ZM-458.594 423.007C-458.104 423.625 -454.819 425.835 -432.993 428.528C-416.823 430.52 -393.174 432.482 -362.703 434.356C-302.503 438.057 -217.203 441.381 -109.176 444.227C112.989 450.084 407.338 453.308 719.65 453.308C1031.96 453.308 1326.32 450.084 1548.47 444.227C1656.5 441.381 1741.8 438.057 1802 434.356C1832.47 432.482 1856.12 430.52 1872.29 428.528C1894.12 425.835 1897.4 423.625 1897.89 423.007C1897.4 422.388 1894.12 420.178 1872.29 417.485C1856.12 415.493 1832.47 413.531 1802 411.657C1741.8 407.956 1656.5 404.633 1548.47 401.786C1326.32 395.929 1031.96 392.705 719.65 392.705C407.338 392.705 112.983 395.929 -109.176 401.786C-217.203 404.633 -302.503 407.956 -362.703 411.657C-393.174 413.531 -416.823 415.493 -432.993 417.485C-454.825 420.178 -458.104 422.388 -458.594 423.007Z" fill="#8EABC5" fill-opacity="0.6"/>
<path d="M719.65 517.698C404.572 517.698 108.348 507.969 -114.454 490.302C-222.818 481.711 -307.905 471.705 -367.35 460.561C-430.369 448.752 -461 436.465 -461 423.006C-461 409.547 -430.369 397.26 -367.35 385.445C-307.905 374.301 -222.818 364.295 -114.454 355.704C108.348 338.037 404.572 328.308 719.65 328.308C1034.73 328.308 1330.95 338.037 1553.75 355.704C1662.12 364.295 1747.2 374.301 1806.65 385.445C1869.67 397.26 1900.3 409.541 1900.3 423.006C1900.3 436.471 1869.67 448.752 1806.65 460.567C1747.2 471.71 1662.12 481.717 1553.75 490.308C1330.95 507.969 1034.73 517.698 719.65 517.698ZM719.65 330.665C404.631 330.665 108.472 340.388 -114.271 358.049C-222.552 366.635 -307.551 376.629 -366.919 387.755C-442.73 401.974 -458.641 414.768 -458.641 423.006C-458.641 431.244 -442.73 444.038 -366.913 458.245C-307.551 469.371 -222.546 479.371 -114.265 487.951C108.478 505.612 404.637 515.335 719.655 515.335C1034.67 515.335 1330.83 505.612 1553.58 487.951C1661.86 479.365 1746.86 469.371 1806.22 458.245C1882.03 444.032 1897.95 431.238 1897.95 423.006C1897.95 414.774 1882.04 401.974 1806.22 387.767C1746.86 376.641 1661.86 366.641 1553.58 358.061C1330.83 340.394 1034.67 330.665 719.65 330.665Z" fill="#8EABC5" fill-opacity="0.6"/>
<path d="M719.65 579.733C404.554 579.733 108.307 563.551 -114.519 534.163C-222.906 519.867 -308.017 503.22 -367.485 484.675C-429.537 465.329 -461 444.58 -461 423.006C-461 401.432 -429.537 380.684 -367.485 361.337C-308.017 342.792 -222.906 326.145 -114.519 311.849C108.301 282.461 404.548 266.279 719.65 266.279C1034.75 266.279 1330.99 282.461 1553.81 311.849C1662.2 326.145 1747.31 342.792 1806.78 361.337C1868.83 380.684 1900.29 401.432 1900.29 423.006C1900.29 444.58 1868.83 465.329 1806.78 484.675C1747.31 503.22 1662.2 519.867 1553.81 534.163C1330.99 563.545 1034.74 579.733 719.65 579.733ZM719.65 268.631C404.654 268.631 108.513 284.807 -114.206 314.183C-222.458 328.461 -307.439 345.079 -366.778 363.582C-396.784 372.94 -419.807 382.717 -435.217 392.646C-450.762 402.664 -458.641 412.876 -458.641 423.006C-458.641 433.136 -450.762 443.348 -435.217 453.366C-419.813 463.296 -396.784 473.072 -366.778 482.43C-307.439 500.933 -222.458 517.551 -114.206 531.83C108.519 561.2 404.654 577.381 719.65 577.381C1034.64 577.381 1330.79 561.206 1553.51 531.83C1661.76 517.551 1746.74 500.933 1806.08 482.43C1836.08 473.072 1859.11 463.296 1874.52 453.366C1890.06 443.348 1897.94 433.136 1897.94 423.006C1897.94 412.876 1890.06 402.664 1874.52 392.646C1859.11 382.717 1836.08 372.94 1806.08 363.582C1746.74 345.079 1661.76 328.461 1553.51 314.183C1330.79 284.807 1034.64 268.631 719.65 268.631Z" fill="#8EABC5" fill-opacity="0.6"/>
<path d="M719.65 641.766C560.392 641.766 405.899 636.015 260.452 624.665C119.96 613.705 -6.21979 598.006 -114.578 578.017C-222.989 558.017 -308.117 534.723 -367.603 508.776C-429.579 481.746 -461 452.888 -461 423.006C-461 393.123 -429.579 364.26 -367.603 337.229C-308.117 311.283 -222.983 287.988 -114.578 267.988C-6.2139 247.999 119.96 232.307 260.452 221.34C405.893 209.99 560.392 204.239 719.65 204.239C878.907 204.239 1033.4 209.99 1178.85 221.34C1319.34 232.301 1445.51 247.993 1553.88 267.988C1662.29 287.988 1747.42 311.283 1806.9 337.229C1868.88 364.26 1900.3 393.117 1900.3 423.006C1900.3 452.894 1868.88 481.752 1806.9 508.782C1747.42 534.728 1662.28 558.023 1553.88 578.023C1445.52 598.012 1319.34 613.705 1178.85 624.671C1033.4 636.009 878.907 641.766 719.65 641.766ZM719.65 206.596C404.672 206.596 108.554 229.225 -114.147 270.304C-222.381 290.269 -307.338 313.51 -366.66 339.386C-396.648 352.468 -419.665 366.139 -435.069 380.023C-450.709 394.131 -458.641 408.586 -458.641 423.006C-458.641 437.425 -450.709 451.881 -435.069 465.982C-419.665 479.866 -396.654 493.537 -366.66 506.619C-307.338 532.495 -222.381 555.737 -114.147 575.702C108.554 616.787 404.672 639.409 719.65 639.409C1034.63 639.409 1330.74 616.787 1553.45 575.702C1661.68 555.737 1746.64 532.495 1805.96 506.619C1835.95 493.537 1858.96 479.866 1874.37 465.982C1890.01 451.881 1897.94 437.42 1897.94 423.006C1897.94 408.592 1890.01 394.131 1874.37 380.029C1858.96 366.145 1835.95 352.474 1805.96 339.392C1746.64 313.516 1661.68 290.275 1553.45 270.31C1330.74 229.225 1034.63 206.596 719.65 206.596Z" fill="#8EABC5" fill-opacity="0.6"/>
<path d="M719.65 703.801C560.386 703.801 405.881 696.405 260.429 681.821C119.925 667.731 -6.26105 647.56 -114.631 621.873C-223.059 596.168 -308.205 566.226 -367.704 532.873C-429.614 498.175 -461 461.21 -461 423.006C-461 384.803 -429.614 347.837 -367.71 313.139C-308.211 279.792 -223.059 249.844 -114.637 224.14C-6.26697 198.447 119.925 178.275 260.423 164.191C405.875 149.607 560.38 142.211 719.644 142.211C878.907 142.211 1033.41 149.607 1178.86 164.191C1319.37 178.281 1445.55 198.453 1553.92 224.14C1662.35 249.844 1747.5 279.786 1807 313.139C1868.9 347.837 1900.29 384.803 1900.29 423.006C1900.29 461.21 1868.9 498.175 1807 532.873C1747.5 566.22 1662.35 596.168 1553.92 621.873C1445.55 647.565 1319.36 667.737 1178.86 681.821C1033.42 696.405 878.913 703.801 719.65 703.801ZM719.65 144.562C404.69 144.562 108.596 173.638 -114.088 226.426C-222.305 252.078 -307.244 281.943 -366.554 315.184C-396.542 331.991 -419.559 349.563 -434.963 367.413C-450.673 385.622 -458.641 404.32 -458.641 423.006C-458.641 441.692 -450.673 460.39 -434.963 478.588C-419.559 496.437 -396.542 514.01 -366.554 530.816C-307.244 564.058 -222.305 593.923 -114.088 619.574C108.596 672.368 404.69 701.438 719.65 701.438C1034.61 701.438 1330.7 672.363 1553.39 619.574C1661.6 593.923 1746.54 564.058 1805.85 530.816C1835.84 514.01 1858.86 496.437 1874.26 478.588C1889.97 460.384 1897.94 441.686 1897.94 423.006C1897.94 404.326 1889.97 385.622 1874.26 367.425C1858.86 349.575 1835.84 332.003 1805.85 315.196C1746.54 281.954 1661.6 252.089 1553.39 226.438C1330.7 173.638 1034.61 144.562 719.65 144.562Z" fill="#8EABC5" fill-opacity="0.6"/>
<path d="M719.65 765.836C560.374 765.836 405.863 756.802 260.405 738.976C119.889 721.763 -6.30826 697.113 -114.69 665.722C-223.13 634.313 -308.288 597.718 -367.798 556.963C-398.022 536.267 -421.246 514.587 -436.821 492.536C-452.867 469.825 -461 446.43 -461 423C-461 399.57 -452.867 376.176 -436.821 353.465C-421.246 331.414 -398.022 309.74 -367.798 289.038C-308.288 248.283 -223.13 211.694 -114.69 180.279C-6.30826 148.882 119.889 124.238 260.405 107.025C405.863 89.205 560.374 80.1653 719.65 80.1653C878.925 80.1653 1033.44 89.1991 1178.89 107.025C1319.4 124.238 1445.61 148.888 1553.99 180.279C1662.43 211.688 1747.59 248.283 1807.1 289.038C1837.32 309.734 1860.54 331.414 1876.12 353.465C1892.17 376.176 1900.3 399.57 1900.3 423C1900.3 446.43 1892.17 469.825 1876.12 492.536C1860.54 514.587 1837.32 536.261 1807.1 556.963C1747.59 597.718 1662.43 634.307 1553.99 665.722C1445.61 697.119 1319.41 721.763 1178.89 738.976C1033.44 756.796 878.925 765.836 719.65 765.836ZM719.65 82.5284C404.708 82.5284 108.637 118.051 -114.035 182.548C-222.234 213.892 -307.167 250.375 -366.465 290.988C-427.627 332.875 -458.641 377.295 -458.641 423.006C-458.641 468.717 -427.627 513.132 -366.465 555.018C-307.161 595.632 -222.234 632.115 -114.035 663.459C108.631 727.956 404.708 763.478 719.65 763.478C1034.59 763.478 1330.66 727.956 1553.33 663.459C1661.53 632.115 1746.47 595.632 1805.76 555.018C1866.93 513.132 1897.94 468.717 1897.94 423.006C1897.94 377.295 1866.93 332.881 1805.76 290.994C1746.46 250.381 1661.53 213.898 1553.33 182.554C1330.66 118.051 1034.59 82.5284 719.65 82.5284Z" fill="#8EABC5" fill-opacity="0.6"/>
<path d="M719.65 827.869C560.368 827.869 405.846 817.191 260.376 796.136C119.854 775.794 -6.35541 746.671 -114.743 709.57C-168.167 691.284 -216.673 671.16 -258.915 649.763C-301.589 628.142 -338.246 605.03 -367.869 581.058C-398.087 556.609 -421.299 531.01 -436.868 504.969C-452.879 478.186 -461 450.608 -461 423.006C-461 395.403 -452.879 367.825 -436.868 341.042C-421.299 315.001 -398.087 289.403 -367.869 264.953C-338.246 240.981 -301.589 217.863 -258.915 196.248C-216.673 174.845 -168.167 154.727 -114.743 136.441C-6.35541 99.3459 119.854 70.2175 260.376 49.8753C405.84 28.8142 560.362 18.1422 719.65 18.1422C878.937 18.1422 1033.45 28.8201 1178.92 49.8753C1319.45 70.2175 1445.65 99.34 1554.04 136.441C1607.47 154.727 1655.97 174.851 1698.21 196.248C1740.89 217.869 1777.55 240.981 1807.17 264.953C1837.38 289.403 1860.6 315.001 1876.17 341.042C1892.18 367.819 1900.3 395.398 1900.3 423.006C1900.3 450.614 1892.18 478.186 1876.17 504.969C1860.6 531.01 1837.39 556.609 1807.17 581.058C1777.55 605.03 1740.89 628.148 1698.21 649.763C1655.97 671.166 1607.47 691.284 1554.04 709.57C1445.65 746.665 1319.45 775.794 1178.92 796.136C1033.45 817.191 878.931 827.869 719.65 827.869ZM719.65 20.4935C404.731 20.4935 108.672 62.4624 -113.982 138.669C-222.169 175.7 -307.097 218.8 -366.394 266.786C-427.603 316.321 -458.641 368.88 -458.641 423.006C-458.641 477.132 -427.603 529.69 -366.389 579.225C-307.091 627.211 -222.169 670.317 -113.976 707.342C108.672 783.543 404.731 825.512 719.65 825.512C1034.57 825.512 1330.63 783.543 1553.28 707.336C1661.47 670.306 1746.4 627.199 1805.69 579.22C1866.91 529.684 1897.95 477.126 1897.95 423C1897.95 368.874 1866.91 316.315 1805.69 266.78C1746.4 218.794 1661.47 175.694 1553.28 138.663C1330.63 62.4624 1034.57 20.4935 719.65 20.4935Z" fill="#8EABC5" fill-opacity="0.6"/>
<path d="M719.65 889.904C560.356 889.904 405.828 877.582 260.352 853.291C119.818 829.82 -6.3967 796.219 -114.796 753.419C-168.226 732.322 -216.737 709.105 -258.98 684.413C-301.653 659.475 -338.311 632.804 -367.934 605.148C-398.14 576.951 -421.346 547.428 -436.903 517.41C-452.891 486.555 -461 454.792 -461 423.006C-461 391.22 -452.891 359.457 -436.903 328.602C-421.346 298.578 -398.14 269.061 -367.934 240.863C-338.311 213.208 -301.653 186.537 -258.98 161.599C-216.737 136.907 -168.226 113.69 -114.796 92.5931C-6.3967 49.7932 119.818 16.1862 260.352 -7.27917C405.828 -31.5755 560.356 -43.8915 719.65 -43.8915C878.943 -43.8915 1033.47 -31.5755 1178.95 -7.27917C1319.48 16.1921 1445.7 49.7932 1554.09 92.5931C1607.52 113.69 1656.04 136.907 1698.28 161.599C1740.95 186.537 1777.61 213.208 1807.23 240.863C1837.44 269.061 1860.65 298.584 1876.2 328.602C1892.19 359.451 1900.3 391.214 1900.3 423.006C1900.3 454.798 1892.19 486.555 1876.2 517.41C1860.65 547.434 1837.44 576.951 1807.23 605.148C1777.61 632.804 1740.95 659.475 1698.28 684.413C1656.04 709.105 1607.52 732.322 1554.09 753.419C1445.7 796.219 1319.48 829.82 1178.95 853.291C1033.47 877.582 878.943 889.904 719.65 889.904ZM719.65 -41.5403C404.749 -41.5403 108.708 6.8755 -113.929 94.7852C-222.11 137.503 -307.032 187.227 -366.33 242.584C-427.579 299.769 -458.641 360.471 -458.641 423.006C-458.641 485.541 -427.579 546.238 -366.324 603.422C-307.026 658.779 -222.11 708.504 -113.923 751.221C108.714 839.131 404.749 887.546 719.655 887.546C1034.56 887.546 1330.6 839.131 1553.23 751.221C1661.41 708.504 1746.34 658.779 1805.63 603.422C1866.89 546.238 1897.95 485.535 1897.95 423.006C1897.95 360.477 1866.89 299.774 1805.63 242.59C1746.34 187.232 1661.42 137.508 1553.23 94.7911C1330.59 6.87547 1034.55 -41.5403 719.65 -41.5403Z" fill="#8EABC5" fill-opacity="0.6"/>
<path d="M719.65 951.938C560.35 951.938 405.81 937.978 260.329 910.446C119.789 883.846 -6.43799 845.766 -114.843 797.262C-168.273 773.355 -216.791 747.043 -259.039 719.064C-301.712 690.802 -338.37 660.583 -367.993 629.245C-398.187 597.3 -421.381 563.863 -436.933 529.862C-452.903 494.929 -461 458.982 -461 423.006C-461 387.03 -452.903 351.078 -436.933 316.157C-421.381 282.155 -398.187 248.719 -367.993 216.774C-338.37 185.435 -301.712 155.217 -259.039 126.955C-216.791 98.9753 -168.279 72.6637 -114.843 48.7563C-6.43799 0.252144 119.789 -37.8335 260.329 -64.428C405.81 -91.9594 560.35 -105.92 719.65 -105.92C878.949 -105.92 1033.49 -91.9594 1178.97 -64.428C1319.51 -37.8276 1445.74 0.252144 1554.14 48.7563C1607.57 72.6637 1656.09 98.9753 1698.33 126.955C1741.01 155.217 1777.66 185.435 1807.29 216.774C1837.48 248.719 1860.67 282.155 1876.23 316.157C1892.2 351.078 1900.29 387.03 1900.29 423.006C1900.29 458.982 1892.2 494.935 1876.23 529.856C1860.67 563.857 1837.48 597.294 1807.29 629.239C1777.66 660.577 1741.01 690.796 1698.33 719.058C1656.08 747.037 1607.57 773.349 1554.14 797.256C1445.74 845.76 1319.51 883.84 1178.97 910.44C1033.49 937.978 878.949 951.938 719.65 951.938ZM719.65 -103.574C404.766 -103.574 108.743 -48.7117 -113.882 50.9013C-222.063 99.3053 -306.979 155.659 -366.277 218.388C-427.562 283.222 -458.641 352.068 -458.641 423.006C-458.641 493.945 -427.562 562.785 -366.277 627.624C-306.979 690.354 -222.063 746.707 -113.882 795.111C108.743 894.718 404.766 949.581 719.65 949.581C1034.53 949.581 1330.56 894.724 1553.18 795.105C1661.36 746.701 1746.28 690.348 1805.58 627.618C1866.86 562.779 1897.94 493.939 1897.94 423.006C1897.94 352.074 1866.86 283.228 1805.58 218.388C1746.28 155.659 1661.36 99.3053 1553.18 50.9013C1330.56 -48.7117 1034.53 -103.574 719.65 -103.574Z" fill="#8EABC5" fill-opacity="0.6"/>
<path d="M719.65 1013.97C560.339 1013.97 405.793 998.367 260.305 967.595C190.374 952.804 122.92 934.495 59.8187 913.18C-2.68726 892.066 -61.4662 867.811 -114.89 841.099C-168.326 814.38 -216.838 784.975 -259.086 753.707C-301.76 722.122 -338.412 688.355 -368.034 653.334C-398.222 617.647 -421.405 580.292 -436.95 542.313C-452.909 503.314 -461 463.171 -461 423.006C-461 382.84 -452.909 342.692 -436.95 303.699C-421.405 265.713 -398.222 228.364 -368.034 192.671C-338.417 157.656 -301.76 123.884 -259.086 92.2982C-216.838 61.0247 -168.32 31.6252 -114.89 4.90108C-61.4662 -21.8113 -2.68726 -46.0663 59.8187 -67.1804C122.914 -88.4949 190.368 -106.804 260.305 -121.595C405.799 -152.368 560.344 -167.972 719.65 -167.972C878.955 -167.972 1033.51 -152.368 1178.99 -121.595C1248.92 -106.804 1316.38 -88.4949 1379.48 -67.1804C1441.99 -46.0663 1500.77 -21.8113 1554.19 4.90108C1607.63 31.6193 1656.14 61.0247 1698.39 92.2982C1741.06 123.884 1777.71 157.65 1807.33 192.671C1837.52 228.359 1860.7 265.713 1876.25 303.699C1892.21 342.698 1900.3 382.84 1900.3 423.006C1900.3 463.171 1892.21 503.32 1876.25 542.313C1860.7 580.292 1837.52 617.647 1807.33 653.334C1777.72 688.35 1741.06 722.122 1698.39 753.707C1656.14 784.981 1607.62 814.38 1554.19 841.099C1500.77 867.811 1441.99 892.066 1379.48 913.18C1316.38 934.495 1248.93 952.804 1178.99 967.595C1033.51 998.367 878.961 1013.97 719.65 1013.97ZM719.65 -165.609C404.784 -165.609 108.779 -104.305 -113.835 7.01073C-336.188 118.197 -458.641 265.931 -458.641 423.006C-458.641 580.08 -336.188 727.808 -113.835 838.995C108.779 950.311 404.778 1011.61 719.65 1011.61C1034.52 1011.61 1330.52 950.311 1553.13 838.995C1775.49 727.808 1897.94 580.074 1897.94 423.006C1897.94 265.937 1775.49 118.203 1553.13 7.01662C1330.52 -104.305 1034.51 -165.609 719.65 -165.609Z" fill="#8EABC5" fill-opacity="0.6"/>
<path d="M719.649 1076.01C560.332 1076.01 405.775 1058.76 260.275 1024.75C190.339 1008.4 122.885 988.167 59.7831 964.607C-2.72879 941.272 -61.5077 914.465 -114.932 884.942C-168.368 855.413 -216.885 822.914 -259.134 788.352C-301.801 753.448 -338.453 716.129 -368.07 677.436C-398.246 638.007 -421.429 596.734 -436.962 554.776C-452.915 511.705 -461 467.368 -461 423.006C-461 378.645 -452.915 334.307 -436.962 291.23C-421.423 249.267 -398.246 207.999 -368.07 168.57C-338.453 129.871 -301.801 92.5578 -259.134 57.6543C-216.885 23.0927 -168.368 -9.40059 -114.932 -38.9356C-61.5077 -68.4589 -2.7229 -95.2655 59.7831 -118.601C122.885 -142.161 190.339 -162.397 260.275 -178.744C405.775 -212.752 560.327 -230 719.649 -230C878.972 -230 1033.52 -212.757 1179.02 -178.744C1248.96 -162.397 1316.41 -142.161 1379.52 -118.601C1442.03 -95.2655 1500.81 -68.4589 1554.23 -38.9356C1607.67 -9.40648 1656.18 23.0927 1698.43 57.6543C1741.1 92.5578 1777.75 129.877 1807.37 168.57C1837.54 207.999 1860.73 249.273 1876.26 291.23C1892.21 334.301 1900.3 378.639 1900.3 423.006C1900.3 467.373 1892.21 511.705 1876.26 554.782C1860.72 596.745 1837.54 638.013 1807.37 677.442C1777.75 716.141 1741.1 753.454 1698.43 788.358C1656.18 822.919 1607.67 855.413 1554.23 884.948C1500.81 914.471 1442.02 941.278 1379.52 964.613C1316.41 988.173 1248.96 1008.41 1179.02 1024.76C1033.52 1058.76 878.966 1076.01 719.649 1076.01ZM719.649 -227.643C404.796 -227.643 108.808 -159.893 -113.794 -36.8731C-336.171 86.0226 -458.641 249.343 -458.641 423.006C-458.641 596.669 -336.171 759.99 -113.794 882.885C108.808 1005.9 404.796 1073.66 719.649 1073.66C1034.5 1073.66 1330.49 1005.9 1553.09 882.885C1775.47 759.99 1897.94 596.669 1897.94 423.006C1897.94 249.343 1775.47 86.0226 1553.09 -36.8731C1330.49 -159.893 1034.5 -227.643 719.649 -227.643Z" fill="#8EABC5" fill-opacity="0.6"/>
</g>
</g>
</svg>
