<svg width="26" height="30" viewBox="0 0 26 30" fill="none" xmlns="http://www.w3.org/2000/svg">
<path d="M14.1657 29.5205L25 18.6864C25.3092 18.3772 25.479 17.965 25.479 17.5255C25.479 17.0855 25.309 16.6735 25 16.3643L24.0161 15.3806C23.7073 15.0716 23.2949 14.9013 22.8551 14.9013C22.4156 14.9013 21.9893 15.0716 21.6805 15.3806L15.3462 21.701L15.3462 1.62072C15.3462 0.71536 14.6374 -4.73902e-07 13.7318 -5.13487e-07L12.3408 -5.74288e-07C11.4352 -6.13873e-07 10.655 0.71536 10.655 1.62072L10.655 21.7728L4.28528 15.3809C3.97601 15.0718 3.57479 14.9016 3.13504 14.9016C2.69578 14.9016 2.28871 15.0718 1.97968 15.3809L0.998962 16.3645C0.689697 16.6738 0.521161 17.0857 0.521161 17.5257C0.521161 17.9652 0.69189 18.3774 1.00116 18.6867L11.8352 29.5207C12.1455 29.8307 12.5596 30.0012 12.9998 30C13.4415 30.001 13.8559 29.8307 14.1657 29.5205Z" fill="#6F91AD"/>
</svg>
