<svg width="135" height="36" viewBox="0 0 135 36" fill="none" xmlns="http://www.w3.org/2000/svg">
<path d="M44.1128 18.0245C44.1128 22.4041 41.0124 25.3094 36.6544 25.3094C31.9062 25.3094 28.5239 21.7753 28.5239 17.4391C28.5239 13.1028 31.9496 9.52539 36.481 9.52539C39.3646 9.52539 41.8146 10.978 43.0938 13.0594L40.5354 14.5338C39.8416 13.3196 38.3022 12.4307 36.4593 12.4307C33.5757 12.4307 31.4943 14.5555 31.4943 17.4391C31.4943 20.3227 33.5106 22.3824 36.6761 22.3824C39.0611 22.3824 40.5787 21.2333 41.0991 19.4988H36.5027V16.8537H44.1128V18.0245Z" fill="#595857"/>
<path d="M45.8906 9.17969H48.6875V25.0071H45.8906V9.17969Z" fill="#595857"/>
<path d="M50.4653 19.5852C50.4653 16.3547 53.002 13.8613 56.1892 13.8613C59.3764 13.8613 61.9348 16.3547 61.9348 19.5852C61.9348 22.8157 59.3764 25.3091 56.1892 25.3091C53.002 25.3091 50.4653 22.8157 50.4653 19.5852ZM59.1379 19.5852C59.1379 17.829 57.8587 16.5932 56.1892 16.5932C54.5197 16.5932 53.2622 17.829 53.2622 19.5852C53.2622 21.3414 54.5414 22.5772 56.1892 22.5772C57.837 22.5772 59.1379 21.3414 59.1379 19.5852Z" fill="#595857"/>
<path d="M75.2904 19.5867C75.2904 22.8172 72.9055 25.3106 70.0002 25.3106C68.4174 25.3106 67.2683 24.7252 66.4878 23.7278V25.007H63.6909V9.83008H66.4878V15.4455C67.2683 14.4482 68.4174 13.8628 70.0002 13.8628C72.9055 13.8628 75.2904 16.3562 75.2904 19.5867ZM72.4935 19.5867C72.4935 17.7654 71.2143 16.5296 69.4798 16.5296C67.7453 16.5296 66.4878 17.7654 66.4878 19.5867C66.4878 21.4079 67.767 22.6437 69.4798 22.6437C71.1927 22.6437 72.4935 21.4079 72.4935 19.5867Z" fill="#595857"/>
<path d="M88.0819 14.1649V25.0055H85.285V23.7263C84.5045 24.702 83.3337 25.3091 81.751 25.3091C78.8674 25.3091 76.4824 22.8157 76.4824 19.5852C76.4824 16.3547 78.8674 13.8613 81.751 13.8613C83.3337 13.8613 84.5045 14.4684 85.285 15.4441V14.1649H88.0819ZM85.285 19.5852C85.285 17.764 84.0058 16.5281 82.2713 16.5281C80.5368 16.5281 79.2793 17.764 79.2793 19.5852C79.2793 21.4064 80.5585 22.6423 82.2713 22.6423C83.9842 22.6423 85.285 21.4064 85.285 19.5852Z" fill="#595857"/>
<path d="M90.4014 9.17969H93.1983V25.0071H90.4014V9.17969Z" fill="#595857"/>
<path d="M110.717 14.166L107.269 25.0067H104.603L102.608 18.4372L100.613 25.0067H97.9464L94.499 14.166H97.4694L99.3123 20.8222L101.285 14.166H103.93L105.903 20.8439L107.746 14.166H110.717Z" fill="#595857"/>
<path d="M122.62 14.1649V25.0055H119.823V23.7263C119.043 24.702 117.872 25.3091 116.289 25.3091C113.405 25.3091 111.021 22.8157 111.021 19.5852C111.021 16.3547 113.405 13.8613 116.289 13.8613C117.872 13.8613 119.043 14.4684 119.823 15.4441V14.1649H122.62ZM119.823 19.5852C119.823 17.764 118.544 16.5281 116.809 16.5281C115.075 16.5281 113.817 17.764 113.817 19.5852C113.817 21.4064 115.097 22.6423 116.809 22.6423C118.522 22.6423 119.823 21.4064 119.823 19.5852Z" fill="#595857"/>
<path d="M135 14.166L131.054 25.0067C129.926 28.1288 128.084 29.4947 125.33 29.3429V26.7412C126.869 26.7629 127.65 26.1124 128.17 24.6598L123.726 14.166H126.783L129.601 21.4509L132.008 14.166H135Z" fill="#595857"/>
<path d="M18.2547 10.6056C18.0827 11.4425 17.3795 11.8465 16.6438 11.488C15.8597 11.1057 15.3415 10.0144 15.5352 9.07488C15.7288 8.13536 16.5412 7.79279 17.3036 8.28135C18.0184 8.73955 18.4267 9.76869 18.2547 10.6056ZM8.12664 7.08598C6.92044 7.45818 6.62702 8.88409 7.49138 10.1727C8.30371 11.3847 9.78599 11.9238 10.7913 11.4649C11.7424 11.0313 11.991 9.82144 11.3629 8.68823C10.698 7.48998 9.25985 6.73619 8.12664 7.08598ZM0.0387834 16.0259C-0.253192 17.4439 1.1402 18.7701 2.97949 18.971C4.65402 19.1531 6.1045 18.3205 6.35094 17.1244C6.59666 15.9291 5.57764 14.6658 3.94648 14.2726C2.15488 13.8412 0.330759 14.608 0.0387834 16.0252V16.0259ZM4.01586 27.0661C4.93226 27.7729 6.56992 27.5539 7.66483 26.6621C8.70048 25.8179 8.94909 24.6088 8.2365 23.8854C7.48271 23.1208 5.88913 23.1244 4.65185 23.9794C3.33507 24.8885 3.04165 26.3144 4.01659 27.0661H4.01586ZM13.0331 29.0376C13.8809 28.8519 14.6701 28.0302 14.8421 27.1933C15.0141 26.3564 14.5205 25.7442 13.693 25.8309C12.8113 25.9234 11.8956 26.7647 11.7019 27.7049C11.5082 28.6452 12.129 29.2364 13.0331 29.0376ZM19.2564 25.3778C19.7269 24.8509 19.8895 24.0625 19.625 23.5862C19.3511 23.0926 18.7122 23.094 18.1889 23.6238C17.6455 24.1745 17.4655 25.049 17.7943 25.5397C18.1109 26.0116 18.7678 25.9242 19.2557 25.3778H19.2564ZM22.0403 19.8556C22.1725 19.2116 21.9326 18.606 21.4845 18.4983C21.0147 18.3848 20.4987 18.8589 20.3542 19.5621C20.2097 20.2653 20.5016 20.8796 20.9837 20.9324C21.4433 20.9823 21.9073 20.4995 22.0403 19.8556ZM21.6428 13.7797C21.4057 13.1069 20.829 12.8048 20.3462 13.138C19.8447 13.4841 19.6647 14.3586 19.9516 15.0539C20.2277 15.7231 20.8225 15.9392 21.2735 15.5713C21.7086 15.2165 21.8712 14.4287 21.6421 13.7797H21.6428Z" fill="url(#paint0_linear_86_1609)"/>
<path d="M15.9893 16.4707C15.9358 16.7287 15.7067 16.892 15.4733 16.8342C15.2355 16.775 15.0838 16.5097 15.1387 16.2423L15.3765 12.9988C15.4834 12.4799 15.9402 12.2233 16.3818 12.4192C16.8074 12.6085 17.0611 13.1506 16.9614 13.6362L15.9893 16.4714V16.4707Z" fill="#9E9E9F"/>
<path d="M14.3224 16.3796C14.464 16.6196 14.3997 16.9325 14.1771 17.085C13.9516 17.2389 13.6452 17.1725 13.4941 16.9303L11.1207 14.106C10.7565 13.5394 10.8996 12.8449 11.4351 12.5782C11.9548 12.3194 12.629 12.5738 12.9463 13.1253L14.3224 16.3804V16.3796Z" fill="#9E9E9F"/>
<path d="M12.9759 17.7049C13.2556 17.7591 13.4312 18.0301 13.3741 18.3112C13.3163 18.5923 13.0453 18.7853 12.7627 18.7419L8.91789 18.7008C8.19663 18.6017 7.69507 17.9939 7.82805 17.3464C7.96102 16.6988 8.67 16.3014 9.38043 16.4517L12.9759 17.7056V17.7049Z" fill="#9E9E9F"/>
<path d="M12.9371 19.6359C13.1742 19.4617 13.4856 19.5022 13.6345 19.7212C13.7812 19.9373 13.7169 20.2509 13.4893 20.4265L10.915 22.9943C10.4004 23.4005 9.6719 23.4106 9.29103 22.9951C8.8986 22.5665 9.04169 21.872 9.60541 21.4672L12.9364 19.6359H12.9371Z" fill="#9E9E9F"/>
<path d="M14.1941 20.8333C14.2491 20.5659 14.4962 20.3701 14.7412 20.3947C14.9819 20.4192 15.13 20.6476 15.0773 20.9063L14.8554 23.8716C14.7557 24.3573 14.304 24.7772 13.8328 24.8097C13.3435 24.8437 13.0205 24.4512 13.1267 23.9323L14.1941 20.8326V20.8333Z" fill="#9E9E9F"/>
<path d="M15.8226 20.6516C15.7012 20.4579 15.7612 20.1674 15.9549 20.0084C16.1464 19.8508 16.3936 19.8833 16.5078 20.0763L17.998 21.8838C18.1794 22.1989 18.0789 22.6896 17.7696 22.9924C17.4538 23.3025 17.0317 23.3083 16.8294 22.9924L15.8212 20.6516H15.8226Z" fill="#9E9E9F"/>
<path d="M16.9156 19.3815C16.7089 19.3497 16.5795 19.1227 16.6301 18.8763C16.6807 18.6298 16.891 18.4622 17.097 18.5019L19.3034 18.5518C19.6178 18.6183 19.7978 19.0028 19.7132 19.4125C19.6286 19.8223 19.3085 20.1201 18.9898 20.076L16.9163 19.3807L16.9156 19.3815Z" fill="#9E9E9F"/>
<path d="M16.9927 17.7226C16.8099 17.8643 16.5671 17.8108 16.4507 17.5998C16.3336 17.3858 16.3929 17.096 16.583 16.9565L18.4512 15.1158C18.7648 14.8903 19.1551 15.0377 19.3264 15.4323C19.4933 15.8183 19.3921 16.309 19.098 16.541L16.9927 17.7226Z" fill="#9E9E9F"/>
<defs>
<linearGradient id="paint0_linear_86_1609" x1="-0.000242949" y1="18.0379" x2="22.0757" y2="18.0379" gradientUnits="userSpaceOnUse">
<stop stop-color="#9ACA5F"/>
<stop offset="1" stop-color="#248D3A"/>
</linearGradient>
</defs>
</svg>
