<svg width="135" height="36" viewBox="0 0 135 36" fill="none" xmlns="http://www.w3.org/2000/svg">
<path d="M101.54 36C111.481 36 119.54 27.9411 119.54 18C119.54 8.05887 111.481 0 101.54 0C91.5989 0 83.54 8.05887 83.54 18C83.54 27.9411 91.5989 36 101.54 36Z" fill="#0057B8"/>
<path d="M101.449 29.2075C99.3375 29.2075 97.4966 28.6487 96.1196 27.5931C94.7425 26.5338 93.928 25.0509 93.7673 23.3086L93.7563 23.1844H97.9386L97.9605 23.272C98.2965 24.7185 99.8489 25.7704 101.646 25.7704C103.735 25.7704 105.138 24.6564 105.138 22.9981C105.138 21.6759 104.228 20.7627 102.271 20.1162L99.5384 19.2798C96.9852 18.5894 93.9353 16.9677 93.9353 13.1799C93.9353 9.39217 97.0948 6.79883 101.445 6.79883C103.41 6.79883 105.131 7.35768 106.413 8.41693C107.695 9.47618 108.451 10.9591 108.601 12.7014L108.611 12.8256H104.444L104.429 12.7306C104.177 11.2367 102.997 10.3053 101.35 10.3053C99.4982 10.3053 98.1541 11.4705 98.1541 13.0776C98.1541 13.9214 98.6107 15.0537 100.777 15.6673L103.144 16.3942C104.331 16.7595 106.062 17.3694 107.34 18.4397C108.674 19.5537 109.32 20.9563 109.32 22.7315C109.32 24.8098 108.484 26.5119 106.902 27.6515C105.503 28.6596 103.567 29.2112 101.449 29.2112V29.2075Z" fill="white"/>
<path d="M47.5694 34.9882H16L30.7017 1.01172H62.2711L47.5694 34.9882Z" fill="#0057B8"/>
<path d="M48.0038 7.2207L44.1612 16.0965H35.7566L39.5955 7.2207H35.0553L25.7266 28.7783H30.2667L33.996 20.1655H42.4007L38.675 28.7783H43.2152L52.5439 7.2207H48.0038Z" fill="white"/>
<path d="M70.7303 34.9882H52.1094L66.8111 1.01172H85.4357L70.7303 34.9882Z" fill="#0057B8"/>
<path d="M71.1652 7.2207L61.8364 28.7783H66.3803L75.709 7.2207H71.1652Z" fill="white"/>
</svg>
