<svg width="135" height="36" viewBox="0 0 135 36" fill="none" xmlns="http://www.w3.org/2000/svg">
<path d="M26.0588 33.4392C26.0588 33.4392 13.0286 30.7573 0 33.4392C0 33.4392 2.66738 20.338 0 7.23828C13.0302 9.92495 26.0588 7.23828 26.0588 7.23828C23.3914 20.3395 26.0588 33.4392 26.0588 33.4392Z" fill="#00AF98"/>
<path d="M31.2297 2C31.2297 2 18.1995 4.68667 5.1709 2C7.83827 15.1013 5.1709 28.2009 5.1709 28.2009C18.2011 25.519 31.2297 28.2009 31.2297 28.2009C31.2297 28.2009 28.5623 15.0997 31.2297 2ZM6.19318 27.1557C6.19318 27.1557 8.36672 15.0981 6.21363 3.04842C18.1995 5.21167 30.1917 3.02944 30.1917 3.02944C30.1917 3.02944 28.0355 15.1028 30.2106 27.1747C18.1979 24.9877 6.19318 27.1557 6.19318 27.1557Z" fill="#00654D"/>
<path d="M41.6291 9.64453H39.2559V27.7665H41.6291V9.64453Z" fill="black"/>
<path d="M50.5829 13.3102C49.3671 13.3102 48.2536 13.7134 47.3572 14.4788V13.4651H44.9839V27.7666H47.3572V18.5697C47.3572 16.9852 48.6389 15.6948 50.2148 15.6948C51.7907 15.6948 53.0741 16.9836 53.0741 18.5681V27.765H55.4474V18.5681C55.4474 17.1386 54.9692 15.8182 54.0995 14.8504C53.2078 13.8557 51.959 13.3086 50.5829 13.3086V13.3102Z" fill="black"/>
<path d="M133.652 14.8504C132.76 13.8557 131.512 13.3086 130.136 13.3086C128.92 13.3086 127.806 13.7118 126.91 14.4772V13.4636H124.537V27.7651H126.91V18.5681C126.91 16.9836 128.192 15.6948 129.768 15.6948C131.343 15.6948 132.627 16.9836 132.627 18.5681V27.7651H135V18.5681C135 17.1386 134.522 15.8182 133.652 14.8504Z" fill="black"/>
<path d="M86.9236 13.4922V22.6892C86.9236 24.2736 85.6418 25.5624 84.0659 25.5624C82.49 25.5624 81.2067 24.2736 81.2067 22.6892V13.4922H78.835V22.6892C78.835 25.5893 81.1815 27.9486 84.0659 27.9486C86.9503 27.9486 89.2969 25.5893 89.2969 22.6892V13.4922H86.9236Z" fill="black"/>
<path d="M115.059 13.2969C111.041 13.2969 107.771 16.5844 107.771 20.6247C107.771 24.665 111.041 27.9526 115.059 27.9526C119.077 27.9526 122.347 24.665 122.347 20.6247C122.347 16.5844 119.077 13.2969 115.059 13.2969ZM119.974 20.6247C119.974 23.3493 117.769 25.5664 115.059 25.5664C112.349 25.5664 110.144 23.3493 110.144 20.6247C110.144 17.9001 112.349 15.6831 115.059 15.6831C117.769 15.6831 119.974 17.9001 119.974 20.6247Z" fill="black"/>
<path d="M64.5926 7.48438C61.7082 7.48438 59.3616 9.84371 59.3616 12.7439V13.4618H58.2041V15.848H59.3616V27.7648H61.7349V15.848H64.0469V13.4618H61.7349V12.7439C61.7349 11.1594 63.0167 9.87059 64.5926 9.87059C65.6762 9.87059 66.3525 10.481 66.3525 10.481V7.79115C66.3525 7.79115 65.6039 7.48438 64.5926 7.48438Z" fill="black"/>
<path d="M73.7398 13.2969C69.7214 13.2969 66.4517 16.5844 66.4517 20.6247C66.4517 24.665 69.7214 27.9526 73.7398 27.9526C74.4129 27.9526 75.0845 27.8577 75.7356 27.6727L75.756 27.6664V25.1315L75.7151 25.1489C75.0892 25.4272 74.4239 25.5679 73.7382 25.5679C71.0284 25.5679 68.8234 23.3509 68.8234 20.6263C68.8234 17.9017 71.0284 15.6847 73.7382 15.6847C74.9099 15.6847 75.756 16.1211 75.756 16.1211V13.5863C75.756 13.5863 74.8816 13.3 73.7398 13.3V13.2969Z" fill="black"/>
<path d="M98.1488 13.3086C96.933 13.3086 95.8195 13.7118 94.9231 14.4772V13.4636H92.5498V27.7651H94.9231V18.5681C94.9231 16.9836 96.2049 15.6948 97.7807 15.6948C98.8581 15.6948 99.5406 16.3052 99.5406 16.3052V13.5078C99.5406 13.5078 98.9666 13.3102 98.1488 13.3102V13.3086Z" fill="black"/>
<path d="M105.199 13.4648H102.826V27.7663H105.199V13.4648Z" fill="black"/>
<path d="M105.202 9.64453H102.829V12.0307H105.202V9.64453Z" fill="black"/>
</svg>
