<svg width="135" height="36" viewBox="0 0 135 36" fill="none" xmlns="http://www.w3.org/2000/svg">
<path d="M9.42637 5.92969C5.66129 5.92969 4.49439 6.16671 3.51438 6.60886C1.98738 7.28803 0.911641 8.49596 0.546985 10.4879C0.132188 12.7396 0 16.1993 0 18.4875C0 21.7877 0.205119 24.5044 0.496845 26.2365C0.907083 28.666 2.53892 29.9286 4.06592 30.4073C5.59292 30.8859 7.01508 30.8312 9.43093 30.8312C11.8468 30.8312 13.0228 30.8129 14.5133 30.4392C16.0039 30.0654 17.6403 28.9851 18.1736 26.7333C18.7069 24.4816 18.6886 20.9763 18.6886 18.4875C18.6886 15.9988 18.5428 12.1699 18.1371 10.3238C17.7269 8.47773 16.7788 7.07836 14.7412 6.39918C13.8159 6.09378 12.5396 5.92969 9.43093 5.92969" fill="#5185C5"/>
<path d="M24.756 9.08458C22.0165 11.6645 21.3283 12.6354 20.9135 13.6291C20.2708 15.1698 20.3118 16.7925 21.4103 18.4927C22.6501 20.4163 24.9201 23.0281 26.4881 24.6964C28.749 27.0986 30.7592 28.9401 32.1586 29.9976C34.1231 31.4882 36.1743 31.2876 37.6193 30.5902C39.0597 29.8928 40.0579 28.8809 41.8174 27.2262C43.5769 25.5716 44.4201 24.7511 45.2497 23.4612C46.0793 22.1666 46.5306 20.2613 45.3774 18.2511C44.2196 16.2455 41.8037 13.702 40.1035 11.8924C38.3987 10.0828 35.6684 7.38437 34.1095 6.32231C32.546 5.25569 30.8959 4.89103 28.9496 5.789C28.0698 6.19923 27.0215 6.9559 24.756 9.08458Z" fill="#5185C5"/>
<path d="M108.002 16.0311C105.996 14.6363 106.366 12.1385 108.435 11.0491C108.95 10.7756 109.725 10.6435 110.313 10.6435C111.329 10.6435 112.761 10.8942 113.759 12.1157L114.388 10.06C112.984 9.58143 111.849 9.25781 110.167 9.25781C107.004 9.25781 104.137 11.0446 104.137 14.0848C104.137 18.1962 108.781 19.0166 111.051 20.8991C113.9 23.2556 111.995 27.0752 108.54 27.0752C106.22 27.0752 104.483 25.407 104.483 25.407L103.959 27.5356C105.372 28.2148 107.327 28.6341 108.918 28.6341C112.127 28.6341 115.126 26.7926 115.126 23.0687C115.126 19.3448 110.554 17.8133 108.007 16.0356" fill="#898989"/>
<path d="M87.3032 9.29297C81.6877 9.29297 78.7021 13.7462 78.7021 18.9424C78.7021 24.6126 81.9931 28.6738 87.2941 28.6738C92.5951 28.6738 96.0091 25.0502 96.0091 18.9424C96.0091 13.2858 92.8002 9.29297 87.3032 9.29297ZM87.2941 27.279C83.6203 27.279 81.56 23.6782 81.56 18.9105C81.56 14.1427 83.7707 10.6877 87.3214 10.6877C91.4465 10.6877 93.1557 14.6669 93.1557 18.9105C93.1557 23.8013 91.059 27.279 87.2941 27.279Z" fill="#898989"/>
<path d="M68.9246 23.5101C67.27 21.7507 64.2161 18.3823 64.2161 18.3823C64.2161 18.3823 66.9099 15.3603 68.4141 13.7787C69.9183 12.2062 72.6804 9.60352 72.6804 9.60352C72.6804 9.60352 72.1016 9.69468 71.1899 9.69468C70.2783 9.69468 69.7131 9.60352 69.704 9.60352C69.704 9.60352 67.2016 12.4341 65.6747 13.9792C64.1523 15.5199 61.3993 18.3595 61.3765 18.3823C61.3856 12.5252 61.5406 9.60807 61.5406 9.60807C61.5406 9.60807 60.8386 9.69923 59.9999 9.69923C59.1612 9.69923 58.4639 9.60807 58.4639 9.60807C58.4639 9.60807 58.628 12.6893 58.628 18.8928C58.628 25.0963 58.4639 28.1639 58.4639 28.1776C58.4639 28.1776 59.1612 28.091 59.9999 28.091C60.8386 28.091 61.5406 28.1776 61.5406 28.1776C61.5406 28.1639 61.3765 25.0781 61.3765 18.8928V18.3869C61.3765 18.3869 64.2708 21.4408 65.9163 23.3005C67.4934 25.0781 70.1553 28.1821 70.1553 28.1821C70.1553 28.1821 70.8253 28.0955 71.8098 28.0955C72.7944 28.0955 73.5465 28.1821 73.5465 28.1821C73.5465 28.1821 70.5883 25.2787 68.9292 23.5192" fill="#898989"/>
<path d="M135 26.5093C135 26.5093 133.063 26.6324 129.777 26.6324C128.993 26.6324 128.259 26.6233 127.63 26.6142C127.602 25.7253 127.57 24.4217 127.552 22.7945C127.539 21.7917 127.529 20.6067 127.529 19.3213C127.78 19.3213 128.058 19.3213 128.368 19.3213C131.363 19.3213 131.659 19.3213 134.326 19.3988C134.326 19.3988 134.257 19.1025 134.257 18.6148C134.257 18.2593 134.275 17.9721 134.294 17.8262C131.636 17.9083 131.34 17.9037 128.35 17.9037C128.035 17.9037 127.762 17.9037 127.511 17.9037C127.511 16.828 127.539 15.8207 127.548 14.9592C127.566 13.3457 127.598 12.0603 127.625 11.176C128.213 11.1669 128.897 11.1578 129.622 11.1578C132.808 11.1578 134.699 11.2809 134.699 11.2809C134.699 11.2809 134.635 11.0712 134.635 10.5698C134.635 10.0684 134.699 9.61263 134.699 9.61263C134.699 9.61263 132.808 9.71747 129.622 9.71747C127.511 9.71747 125.984 9.67189 125.209 9.63998L124.612 9.60352V9.62631C124.621 9.83142 124.772 12.9035 124.772 18.8883C124.772 24.873 124.612 28.1776 124.612 28.1776C124.612 28.1776 126.49 28.0727 129.772 28.0727C133.054 28.0727 134.991 28.1776 134.996 28.1776C134.996 28.1502 134.927 27.7446 134.927 27.2569C134.927 26.7691 134.996 26.5093 134.996 26.5093" fill="#898989"/>
<path d="M129.403 7.48262C129.403 7.48262 129.184 7.32309 128.902 7.20914C128.606 7.08151 128.305 6.99035 128.305 6.99035C129.385 6.32487 130.205 5.44973 131.094 4.56547C131.308 4.34668 131.555 4.14157 131.851 4.05041C132.69 3.79516 133.46 4.55179 133.241 5.36313C133.123 5.82349 132.767 6.17446 132.38 6.41604C131.951 6.68952 131.473 6.89007 130.998 7.06784C130.538 7.23649 130.082 7.39146 129.599 7.45983C129.549 7.46895 129.399 7.48262 129.399 7.48262" fill="#898989"/>
</svg>
