<svg width="563" height="116" viewBox="0 0 563 116" fill="none" xmlns="http://www.w3.org/2000/svg">
<path d="M152.538 76.1947C152.445 75.9372 152.188 75.7734 151.932 75.7734H142.251C141.971 75.7734 141.738 75.9372 141.644 76.1947L137.539 86.2806C137.352 86.7253 137.679 87.1933 138.145 87.1933H156.037C156.504 87.1933 156.831 86.7253 156.644 86.2806L152.538 76.1947Z" fill="#2A2A2A"/>
<path d="M153.472 33.4869C153.355 33.2529 153.122 33.0891 152.865 33.0891H141.295C141.038 33.0891 140.805 33.2529 140.688 33.4869L111.996 98.3788C111.809 98.8235 112.112 99.3149 112.602 99.3149H127.602C127.882 99.3149 128.115 99.1511 128.208 98.8937L146.45 54.1035C146.684 53.5419 147.453 53.5419 147.663 54.1035L165.905 98.8937C165.999 99.1511 166.255 99.3149 166.512 99.3149H181.512C182.001 99.3149 182.305 98.8235 182.118 98.3788L153.425 33.4869H153.472Z" fill="#2A2A2A"/>
<path d="M386.467 67.1146C384.811 65.617 382.944 64.4001 380.845 63.464C378.746 62.528 376.553 61.8493 374.313 61.4281C372.121 61.0771 369.974 60.6325 367.875 60.1177C365.775 59.6028 363.886 58.9944 362.253 58.3157C360.597 57.6137 359.29 56.8181 358.264 55.9288C357.261 55.0162 356.748 54.0099 356.748 52.8632C356.748 50.9443 357.681 49.3296 359.594 48.0426C362.066 46.3343 365.309 45.7492 369.251 46.2875C369.321 46.2875 369.391 46.3109 369.438 46.3343C372.867 47.7617 375.083 49.9147 376.086 52.7696C376.179 53.027 376.413 53.2143 376.716 53.2143H390.106C390.479 53.2143 390.783 52.91 390.783 52.5356C390.689 49.9147 390.059 47.4809 388.87 45.2344C387.587 42.8007 385.837 40.6711 383.621 38.8692C381.405 37.0673 378.815 35.6633 375.9 34.6336C372.984 33.6039 369.858 33.0891 366.569 33.0891C362.906 33.0891 359.594 33.5805 356.631 34.5868C353.668 35.5697 351.149 36.9737 349.096 38.7756C347.02 40.5775 345.41 42.7071 344.291 45.1876C343.171 47.6447 342.588 50.3827 342.588 53.4015C342.588 55.7416 343.101 57.8243 344.151 59.6262C345.177 61.4281 346.6 63.0194 348.396 64.4001C350.193 65.7808 352.292 66.9508 354.672 67.9103C357.051 68.8697 359.57 69.6654 362.253 70.2504C364.702 70.7887 366.872 71.3269 368.785 71.8183C370.698 72.3331 372.33 72.9182 373.683 73.5734C375.036 74.2286 376.04 75.0009 376.739 75.8667C377.439 76.7326 377.789 77.8793 377.789 79.2599C377.789 82.0213 376.763 84.1742 374.733 85.6719C372.68 87.1696 369.951 87.9184 366.545 87.9184C363.606 87.9184 361.203 86.9824 359.267 85.0869C357.471 83.3318 356.398 81.1555 356.001 78.5813C355.955 78.2537 355.675 78.0197 355.348 78.0197H342.331C341.958 78.0197 341.655 78.3239 341.655 78.6983C341.748 81.5065 342.355 84.1976 343.521 86.7718C344.781 89.5331 346.507 91.9669 348.746 94.073C350.962 96.1791 353.598 97.8406 356.654 99.0809C359.71 100.321 362.999 100.93 366.545 100.93C370.441 100.93 373.963 100.391 377.113 99.3149C380.262 98.2384 382.921 96.7407 385.114 94.7984C387.307 92.8795 389.01 90.5862 390.199 87.9418C391.389 85.2975 391.972 82.4191 391.972 79.2833C391.972 76.7092 391.459 74.3925 390.456 72.38C389.453 70.3674 388.123 68.6123 386.467 67.0912V67.1146Z" fill="#2A2A2A"/>
<path d="M445.345 60.3514C443.666 57.941 441.66 55.8583 439.304 54.1032C436.947 52.3481 434.358 50.9908 431.489 49.9846C428.62 48.9783 425.564 48.4635 422.344 48.4635C418.565 48.4635 414.996 49.1421 411.637 50.5228C408.278 51.9035 405.362 53.7756 402.889 56.1625C400.417 58.5495 398.457 61.3342 397.034 64.5168C395.611 67.6994 394.888 71.0926 394.888 74.6964C394.888 78.3002 395.611 81.6934 397.034 84.876C398.457 88.0586 400.417 90.8433 402.889 93.2303C405.362 95.6172 408.278 97.4893 411.637 98.87C414.996 100.251 418.565 100.929 422.344 100.929C425.517 100.929 428.526 100.438 431.395 99.455C434.265 98.4721 436.854 97.1149 439.164 95.3598C441.473 93.6047 443.456 91.5688 445.112 89.2052C446.582 87.0991 447.725 84.8058 448.518 82.3252C448.658 81.904 448.331 81.4594 447.888 81.4594H434.428C434.195 81.4594 433.985 81.5764 433.868 81.787C432.725 83.7293 431.186 85.2972 429.249 86.5141C427.197 87.8011 424.91 88.433 422.344 88.433C420.455 88.433 418.659 88.0586 417.002 87.3331C415.323 86.6077 413.877 85.6248 412.663 84.4079C411.45 83.1911 410.471 81.7402 409.748 80.0553C409.024 78.3704 408.651 76.5919 408.651 74.6964C408.651 72.8009 409.024 71.0224 409.748 69.3375C410.471 67.6526 411.45 66.2017 412.663 64.9848C413.877 63.768 415.323 62.7851 417.002 62.0597C418.682 61.3342 420.455 60.9598 422.344 60.9598C425.027 60.9598 427.43 61.6385 429.529 62.9723C431.535 64.2594 433.122 65.9209 434.335 67.9568C434.451 68.1674 434.661 68.2844 434.895 68.2844H448.098C448.541 68.2844 448.868 67.8632 448.751 67.442C448.005 64.8912 446.885 62.5277 445.369 60.3514H445.345Z" fill="#2A2A2A"/>
<path d="M334.12 79.4939C334.447 79.4939 334.727 79.2599 334.773 78.9323C334.867 78.3239 334.937 77.7388 335.007 77.1538C335.1 76.3816 335.146 75.5859 335.146 74.7201C335.146 71.1163 334.423 67.7231 333 64.5405C331.577 61.3579 329.618 58.5732 327.145 56.1862C324.672 53.7993 321.756 51.9272 318.397 50.5465C315.038 49.1658 311.469 48.4872 307.69 48.4872C303.911 48.4872 300.342 49.1658 296.983 50.5465C293.623 51.9272 290.708 53.7993 288.258 56.1862C285.785 58.5732 283.826 61.3579 282.403 64.5405C280.98 67.7231 280.257 71.1163 280.257 74.7201C280.257 78.3239 280.98 81.7171 282.403 84.8997C283.826 88.0822 285.785 90.867 288.258 93.2539C290.731 95.6409 293.647 97.513 296.983 98.8936C300.342 100.274 303.911 100.953 307.69 100.953C310.746 100.953 313.615 100.508 316.344 99.6191C319.05 98.7298 321.57 97.513 323.856 95.9451C326.142 94.3772 328.125 92.5051 329.804 90.3054C331.274 88.363 332.464 86.2803 333.35 84.0572C333.514 83.636 333.187 83.1446 332.72 83.1446H318.817C318.631 83.1446 318.444 83.2382 318.304 83.3786C317.114 84.8529 315.621 86.0697 313.825 86.9824C311.936 87.9652 309.883 88.4567 307.69 88.4567C306.197 88.4567 304.797 88.246 303.468 87.8248C303.118 87.7078 302.768 87.5908 302.441 87.4504C302.278 87.3802 302.138 87.31 301.998 87.2398C301.811 87.1462 301.602 87.0526 301.415 86.959C301.182 86.842 300.925 86.7016 300.692 86.5611C300.668 86.5611 300.622 86.5143 300.598 86.5143C300.318 86.3271 300.039 86.1399 299.759 85.9527C297.636 84.4316 295.956 82.3255 294.976 79.8684L294.79 79.4471C294.253 77.9729 293.973 76.3816 293.973 74.7201C293.973 73.0586 294.277 71.4673 294.837 69.9696L294.976 69.5718C295.956 67.1146 297.636 65.0085 299.782 63.4874C300.039 63.3002 300.318 63.113 300.598 62.9492C300.645 62.9258 300.692 62.879 300.762 62.8556C300.972 62.7152 301.205 62.5982 301.415 62.4812C301.625 62.3642 301.858 62.2472 302.091 62.1536C302.208 62.1068 302.325 62.0366 302.441 61.9898C302.791 61.8493 303.141 61.7089 303.514 61.5919C303.771 61.4983 304.051 61.4281 304.307 61.3813C304.307 61.3813 304.354 61.3813 304.377 61.3813C304.424 61.3813 304.471 61.3579 304.517 61.3345C304.867 61.2409 305.241 61.1941 305.614 61.1239C306.29 61.0303 306.99 60.9835 307.713 60.9835C310.629 60.9835 313.265 61.8259 315.575 63.5108C317.604 64.9851 319.144 66.8338 320.194 69.057C320.403 69.4782 320.054 69.993 319.587 69.993L300.319 70.0398C300.039 70.0398 299.782 70.227 299.689 70.4844C299.245 71.8417 298.989 73.2692 298.989 74.7669C298.989 76.2646 299.222 77.7154 299.665 79.0727C299.759 79.3535 300.015 79.5173 300.295 79.5173H334.12V79.4939Z" fill="#2A2A2A"/>
<path d="M232.762 79.4939C233.088 79.4939 233.368 79.2599 233.415 78.9323C233.508 78.3239 233.578 77.7388 233.648 77.1538C233.741 76.3816 233.788 75.5859 233.788 74.7201C233.788 71.1163 233.065 67.7231 231.642 64.5405C230.219 61.3579 228.259 58.5732 225.787 56.1862C223.314 53.7993 220.398 51.9272 217.039 50.5465C213.68 49.1658 210.111 48.4872 206.332 48.4872C202.553 48.4872 198.983 49.1658 195.624 50.5465C192.265 51.9272 189.349 53.7993 186.9 56.1862C184.427 58.5732 182.468 61.3579 181.045 64.5405C179.622 67.7231 178.898 71.1163 178.898 74.7201C178.898 78.3239 179.622 81.7171 181.045 84.8997C182.468 88.0822 184.427 90.867 186.9 93.2539C189.372 95.6409 192.288 97.513 195.624 98.8936C198.983 100.274 202.553 100.953 206.332 100.953C209.387 100.953 212.257 100.508 214.986 99.6191C217.692 98.7298 220.211 97.513 222.498 95.9451C224.784 94.3772 226.766 92.5051 228.446 90.3054C229.916 88.363 231.105 86.2803 231.992 84.0572C232.155 83.636 231.829 83.1446 231.362 83.1446H217.459C217.272 83.1446 217.086 83.2382 216.946 83.3786C215.756 84.8529 214.263 86.0697 212.467 86.9824C210.577 87.9652 208.524 88.4567 206.332 88.4567C204.839 88.4567 203.439 88.246 202.109 87.8248C201.759 87.7078 201.409 87.5908 201.083 87.4504C200.92 87.3802 200.78 87.31 200.64 87.2398C200.453 87.1462 200.243 87.0526 200.056 86.959C199.823 86.842 199.567 86.7016 199.333 86.5611C199.31 86.5611 199.263 86.5143 199.24 86.5143C198.96 86.3271 198.68 86.1399 198.4 85.9527C196.277 84.4316 194.598 82.3255 193.618 79.8684L193.431 79.4471C192.895 77.9729 192.615 76.3816 192.615 74.7201C192.615 73.0586 192.918 71.4673 193.478 69.9696L193.618 69.5718C194.598 67.1146 196.277 65.0085 198.424 63.4874C198.68 63.3002 198.96 63.113 199.24 62.9492C199.287 62.9258 199.333 62.879 199.403 62.8556C199.613 62.7152 199.847 62.5982 200.056 62.4812C200.266 62.3642 200.5 62.2472 200.733 62.1536C200.85 62.1068 200.966 62.0366 201.083 61.9898C201.433 61.8493 201.783 61.7089 202.156 61.5919C202.413 61.4983 202.692 61.4281 202.949 61.3813C202.949 61.3813 202.996 61.3813 203.019 61.3813C203.066 61.3813 203.112 61.3579 203.159 61.3345C203.509 61.2409 203.882 61.1941 204.255 61.1239C204.932 61.0303 205.632 60.9835 206.355 60.9835C209.271 60.9835 211.907 61.8259 214.216 63.5108C216.246 64.9851 217.785 66.8338 218.835 69.057C219.045 69.4782 218.695 69.993 218.229 69.993L198.96 70.0398C198.68 70.0398 198.424 70.227 198.33 70.4844C197.887 71.8417 197.63 73.2692 197.63 74.7669C197.63 76.2646 197.864 77.7154 198.307 79.0727C198.4 79.3535 198.657 79.5173 198.937 79.5173H232.762V79.4939Z" fill="#2A2A2A"/>
<path d="M524.635 52.3951C524.635 51.8803 524.099 51.5527 523.655 51.8101C521.556 53.0035 519.69 54.4544 518.057 56.1627C515.794 58.5497 514.044 61.3344 512.808 64.4936C511.548 67.6762 510.942 71.0694 510.942 74.6732V98.7532C510.942 99.1276 511.245 99.4084 511.595 99.4084H523.959C524.332 99.4084 524.612 99.1042 524.612 98.7532V52.3951H524.635Z" fill="#2A2A2A"/>
<path d="M560.187 64.5171C558.927 61.3345 557.178 58.5498 554.938 56.1862C552.675 53.7993 549.993 51.9272 546.867 50.5465C543.741 49.1658 540.288 48.4872 536.509 48.4872C533.733 48.4872 531.144 48.8616 528.718 49.6104C528.438 49.7041 528.251 49.9615 528.251 50.2657V62.879C528.251 63.4406 528.905 63.7449 529.348 63.3938C529.978 62.879 530.678 62.4344 531.447 62.06C532.94 61.3345 534.62 60.9601 536.509 60.9601C538.399 60.9601 540.079 61.3345 541.571 62.06C543.064 62.7854 544.301 63.7683 545.327 64.9851C546.33 66.202 547.1 67.6529 547.613 69.3378C548.127 71.0227 548.383 72.8012 548.383 74.6967V98.7766C548.383 99.1511 548.686 99.4319 549.036 99.4319H561.4C561.773 99.4319 562.053 99.1277 562.053 98.7766V74.6967C562.053 71.0929 561.423 67.6997 560.187 64.5171Z" fill="#2A2A2A"/>
<path d="M254.48 73.1989L244.099 50.0784C243.982 49.8444 243.749 49.6805 243.493 49.6805H230.056C229.566 49.6805 229.263 50.1954 229.449 50.6166L246.782 87.8949C247.015 88.4098 247.738 88.4098 247.971 87.8949L254.457 73.7371C254.527 73.5733 254.527 73.3627 254.457 73.1989H254.48Z" fill="#2A2A2A"/>
<path d="M239.62 115.064C239.41 115.508 239.736 116 240.226 116H254.036C254.293 116 254.526 115.859 254.643 115.602L284.152 50.6166C284.362 50.172 284.035 49.6805 283.545 49.6805H270.085C269.829 49.6805 269.596 49.8209 269.479 50.055L239.596 115.04L239.62 115.064Z" fill="#2A2A2A"/>
<path d="M489.807 85.415V97.1625C489.807 97.3731 489.714 97.5837 489.527 97.7007C488.921 98.1453 488.314 98.5432 487.638 98.9176C485.142 100.298 482.389 100.977 479.403 100.977C475.694 100.977 472.172 100.298 468.836 98.9176C465.5 97.5369 462.631 95.6648 460.181 93.2779C457.732 90.8909 455.796 88.1062 454.373 84.9236C452.95 81.741 452.227 78.3478 452.227 74.744C452.227 71.1402 452.95 67.747 454.373 64.5644C455.796 61.3818 457.732 58.5971 460.181 56.2101C462.607 53.8232 465.5 51.9511 468.836 50.5704C472.148 49.1897 475.671 48.5111 479.403 48.5111C483.136 48.5111 486.728 49.1897 490.017 50.5704C493.306 51.9511 496.176 53.8232 498.625 56.2101C501.051 58.5971 502.987 61.3818 504.434 64.5644C505.857 67.747 506.58 71.1402 506.58 74.744V98.8474C506.58 99.2218 506.276 99.5026 505.927 99.5026L494.076 99.4558C493.703 99.4558 493.423 99.1516 493.423 98.8006V74.861C493.423 74.861 493.423 74.7908 493.423 74.744C493.423 72.8485 493.05 71.07 492.327 69.3851C491.603 67.7002 490.624 66.2493 489.387 65.0325C488.174 63.8156 486.728 62.8327 485.048 62.1073C483.369 61.3818 481.596 61.0074 479.706 61.0074C477.817 61.0074 476.021 61.3818 474.364 62.1073C472.685 62.8327 471.238 63.8156 470.025 65.0325C468.812 66.2493 467.833 67.7002 467.11 69.3851C466.386 71.07 466.013 72.8485 466.013 74.744C466.013 76.6395 466.386 78.4414 467.11 80.1029C467.833 81.7878 468.812 83.2387 470.025 84.4556C471.238 85.6724 472.685 86.6553 474.364 87.3807C476.044 88.1062 477.817 88.4806 479.706 88.4806C481.596 88.4806 483.369 88.1062 485.048 87.3807C485.048 87.3807 486.331 86.8425 488.734 84.9002C489.177 84.5492 489.807 84.8534 489.807 85.415Z" fill="#2A2A2A"/>
<path d="M49.501 65.5476C58.2488 65.5476 65.3404 58.4336 65.3404 49.6581C65.3404 40.8825 58.2488 33.7686 49.501 33.7686C40.7532 33.7686 33.6616 40.8825 33.6616 49.6581C33.6616 58.4336 40.7532 65.5476 49.501 65.5476Z" fill="#8EABC5"/>
<path d="M41.8726 0V19.0955H57.1054C57.1054 17.1766 58.9016 15.7491 60.7678 16.2171C73.9712 19.5635 83.7688 31.5684 83.7688 45.8432H99.0016C99.0016 20.523 78.5434 0 53.2797 0H41.8726Z" fill="#8EABC5"/>
<path d="M57.1058 99.3153V80.2198H41.8729C41.8729 82.1387 40.0767 83.5662 38.2105 83.0981C25.0071 79.7517 15.2095 67.7469 15.2095 53.472H0C0 78.7923 20.4582 99.3153 45.6986 99.3153H57.1058Z" fill="#8EABC5"/>
</svg>
