<svg width="120" height="58" viewBox="0 0 120 58" fill="none" xmlns="http://www.w3.org/2000/svg">
<path d="M10.822 47.4496C10.794 47.3845 10.7318 47.3411 10.6603 47.3411H8.07705C8.00555 47.3411 7.94027 47.3845 7.9154 47.4496L6.82116 50.119C6.77453 50.2338 6.85847 50.3609 6.98281 50.3609H11.7546C11.8789 50.3609 11.966 50.2338 11.9162 50.119L10.822 47.4496Z" fill="#3E3A39"/>
<path d="M11.0731 36.1395C11.0452 36.0775 10.983 36.0341 10.9115 36.0341H7.82462C7.75623 36.0341 7.69095 36.0744 7.66297 36.1395L0.015722 53.334C-0.0371248 53.4487 0.049917 53.5821 0.177371 53.5821H4.17819C4.24969 53.5821 4.31497 53.5387 4.33984 53.4735L9.20485 41.6023C9.26392 41.4566 9.4722 41.4566 9.53126 41.6023L14.3963 53.4735C14.4243 53.5387 14.4864 53.5821 14.561 53.5821H18.5618C18.6893 53.5821 18.7732 53.4518 18.7235 53.334L11.0763 36.1395H11.0731Z" fill="#3E3A39"/>
<path d="M73.1836 45.0499C72.7452 44.6499 72.2447 44.3275 71.6852 44.0826C71.1256 43.8345 70.5412 43.6578 69.9412 43.5431C69.3568 43.447 68.7817 43.3323 68.2222 43.1959C67.6626 43.0595 67.1621 42.9013 66.7238 42.7184C66.2855 42.5355 65.9311 42.3247 65.6638 42.0859C65.3964 41.8472 65.2627 41.5744 65.2627 41.2737C65.2627 40.7621 65.5145 40.3373 66.0181 39.9932C66.6803 39.5437 67.5383 39.3886 68.5921 39.5282C68.6107 39.5282 68.6294 39.5344 68.6449 39.5437C69.5589 39.925 70.1495 40.4924 70.4169 41.2489C70.4417 41.3202 70.507 41.3698 70.5816 41.3698H74.1503C74.2498 41.3698 74.3337 41.2861 74.3275 41.1868C74.3027 40.4924 74.1317 39.8475 73.8177 39.2522C73.4758 38.6073 73.0095 38.0431 72.4157 37.5656C71.822 37.0882 71.135 36.713 70.3547 36.4402C69.5744 36.1705 68.7444 36.0341 67.8678 36.0341C66.8917 36.0341 66.0088 36.1643 65.2223 36.4278C64.4327 36.6913 63.7644 37.0603 63.211 37.5408C62.6577 38.0183 62.2318 38.5856 61.9303 39.2398C61.6287 39.894 61.4795 40.6195 61.4795 41.4163C61.4795 42.0394 61.6163 42.5882 61.893 43.0657C62.1697 43.5431 62.5458 43.9679 63.0276 44.3337C63.5064 44.6995 64.0628 45.0127 64.697 45.2669C65.3311 45.5211 66.0057 45.7289 66.7207 45.8901C67.3704 46.0327 67.9517 46.1722 68.4646 46.3086C68.9776 46.445 69.4128 46.6001 69.7703 46.7737C70.1278 46.9504 70.4013 47.1519 70.5878 47.3844C70.7744 47.617 70.8676 47.9146 70.8676 48.2805C70.8676 49.0152 70.5941 49.5795 70.05 49.9794C69.506 50.3794 68.7786 50.5778 67.8678 50.5778C67.0875 50.5778 66.4409 50.3267 65.928 49.8244C65.4524 49.3563 65.1602 48.7827 65.0576 48.0975C65.0451 48.0107 64.9736 47.9456 64.8866 47.9456H61.4174C61.3179 47.9456 61.2371 48.0293 61.2371 48.1285C61.2588 48.8757 61.4267 49.5888 61.7344 50.2678C62.0671 51.0026 62.5303 51.6474 63.124 52.2055C63.7178 52.7636 64.4203 53.2069 65.2348 53.5324C66.0461 53.858 66.9259 54.0223 67.8678 54.0223C68.9092 54.0223 69.848 53.8797 70.6842 53.5914C71.5204 53.303 72.2323 52.9062 72.8167 52.3946C73.4012 51.8831 73.8519 51.2785 74.169 50.5778C74.4861 49.8771 74.6446 49.1113 74.6446 48.2805C74.6446 47.5953 74.5109 46.9845 74.2436 46.4512C73.9763 45.918 73.6219 45.4498 73.1836 45.053V45.0499Z" fill="#3E3A39"/>
<path d="M88.8796 43.2579C88.432 42.6162 87.8942 42.0674 87.2693 41.6055C86.6445 41.1435 85.9482 40.7777 85.1834 40.511C84.4187 40.2444 83.6074 40.1111 82.7463 40.1111C81.7391 40.1111 80.7878 40.294 79.8925 40.6567C78.9972 41.0226 78.2232 41.5217 77.5642 42.1511C76.9051 42.7836 76.386 43.5215 76.0036 44.3648C75.6213 45.2081 75.4316 46.1072 75.4316 47.0652C75.4316 48.0232 75.6213 48.9223 76.0036 49.7656C76.386 50.6089 76.9051 51.3468 77.5642 51.9792C78.2232 52.6117 78.9972 53.1109 79.8925 53.4736C80.7878 53.8394 81.7391 54.0193 82.7463 54.0193C83.5918 54.0193 84.397 53.889 85.1617 53.6317C85.9264 53.3713 86.6165 53.0116 87.2351 52.5497C87.8538 52.0877 88.3822 51.5452 88.8205 50.9189C89.2153 50.3608 89.5169 49.7501 89.7252 49.0928C89.7625 48.9812 89.6723 48.8634 89.5542 48.8634H85.9668C85.9046 48.8634 85.8487 48.8975 85.8176 48.9502C85.5129 49.4617 85.1026 49.8803 84.5866 50.2027C84.0426 50.5438 83.4271 50.7143 82.7463 50.7143C82.2427 50.7143 81.767 50.6182 81.3194 50.4229C80.8718 50.2275 80.4863 49.9702 80.1599 49.6447C79.8335 49.3191 79.5755 48.9347 79.3796 48.4882C79.1838 48.0418 79.0874 47.5674 79.0874 47.0652C79.0874 46.5629 79.1838 46.0886 79.3796 45.6421C79.5755 45.1957 79.8335 44.8112 80.1599 44.4857C80.4863 44.1601 80.8718 43.9028 81.3194 43.7075C81.767 43.5122 82.2427 43.4161 82.7463 43.4161C83.4612 43.4161 84.0985 43.5959 84.6612 43.9524C85.1928 44.2904 85.6186 44.7337 85.9419 45.2763C85.973 45.329 86.029 45.3631 86.0912 45.3631H89.6101C89.7283 45.3631 89.8153 45.2484 89.7811 45.1368C89.5822 44.4609 89.2837 43.8346 88.8796 43.2579Z" fill="#3E3A39"/>
<path d="M59.2282 48.3268C59.3153 48.3268 59.3899 48.2617 59.4023 48.1749C59.4241 48.0168 59.4458 47.8587 59.4645 47.7068C59.4894 47.5052 59.5018 47.2882 59.5018 47.0619C59.5018 46.1039 59.3122 45.2048 58.9298 44.3615C58.5475 43.5182 58.0283 42.7803 57.3693 42.1478C56.7102 41.5153 55.9331 41.0162 55.0409 40.6535C54.1456 40.2876 53.1944 40.1078 52.1872 40.1078C51.18 40.1078 50.2287 40.2907 49.3334 40.6535C48.4382 41.0193 47.6641 41.5184 47.0051 42.1478C46.3461 42.7803 45.8269 43.5182 45.4445 44.3615C45.0622 45.2048 44.8726 46.1039 44.8726 47.0619C44.8726 48.0199 45.0622 48.919 45.4445 49.7623C45.8269 50.6056 46.3461 51.3435 47.0051 51.9759C47.6641 52.6084 48.4382 53.1076 49.3334 53.4703C50.2287 53.8361 51.18 54.016 52.1872 54.016C52.9985 54.016 53.7664 53.8982 54.4907 53.6625C55.215 53.4269 55.8802 53.1045 56.4895 52.689C57.0988 52.2767 57.6273 51.7775 58.0749 51.1946C58.4697 50.68 58.7837 50.1281 59.02 49.536C59.0666 49.4212 58.9764 49.2972 58.8552 49.2972H55.1466C55.0938 49.2972 55.044 49.322 55.0129 49.3623C54.6958 49.753 54.2979 50.0723 53.8192 50.3203C53.3156 50.5808 52.7716 50.7079 52.1872 50.7079C51.7893 50.7079 51.4131 50.6521 51.0619 50.5405C50.9686 50.5126 50.8784 50.4785 50.7883 50.4413C50.7479 50.4258 50.7075 50.4041 50.6671 50.3855C50.6142 50.3607 50.5645 50.3389 50.5147 50.311C50.4495 50.2769 50.3873 50.2397 50.3251 50.2025C50.3158 50.1963 50.3096 50.1932 50.3002 50.187C50.2256 50.1405 50.151 50.0909 50.0764 50.0382H50.0702C49.5044 49.6352 49.0568 49.0771 48.7957 48.4229L48.7459 48.3113C48.6029 47.9176 48.5283 47.5021 48.5283 47.0588C48.5283 46.6154 48.6122 46.1938 48.7552 45.8031L48.7957 45.6946C49.0599 45.0404 49.5075 44.4824 50.0733 44.0793C50.1448 44.0266 50.2163 43.9801 50.2878 43.9336C50.3002 43.9243 50.3158 43.9181 50.3282 43.9088C50.3873 43.8747 50.4463 43.8406 50.5054 43.8096C50.5645 43.7786 50.6235 43.7507 50.6857 43.7228C50.7168 43.7073 50.7479 43.6918 50.779 43.6794C50.8722 43.6391 50.9655 43.605 51.065 43.574C51.1334 43.5523 51.2048 43.5337 51.2763 43.5151C51.2826 43.5151 51.2888 43.512 51.2919 43.512C51.3043 43.5089 51.3199 43.5058 51.3323 43.5027C51.4287 43.481 51.525 43.4655 51.6245 43.45C51.8048 43.4252 51.9913 43.4097 52.1841 43.4097C52.9643 43.4097 53.6638 43.6329 54.2824 44.0793C54.8264 44.4731 55.2367 44.9598 55.5165 45.5489C55.5725 45.6636 55.4823 45.7938 55.3549 45.7938L50.2163 45.8031C50.1417 45.8031 50.0702 45.8496 50.0484 45.924C49.9303 46.2837 49.8619 46.665 49.8619 47.0619C49.8619 47.4587 49.9241 47.8432 50.0422 48.2028C50.0671 48.2741 50.1355 48.3237 50.2132 48.3237H59.2282V48.3268Z" fill="#3E3A39"/>
<path d="M32.2087 48.3268C32.2958 48.3268 32.3704 48.2617 32.3828 48.1749C32.4046 48.0168 32.4263 47.8587 32.445 47.7068C32.4698 47.5052 32.4823 47.2882 32.4823 47.0619C32.4823 46.1039 32.2926 45.2048 31.9103 44.3615C31.5279 43.5182 31.0088 42.7803 30.3497 42.1478C29.6907 41.5153 28.9136 41.0162 28.0214 40.6535C27.1261 40.2876 26.1748 40.1078 25.1676 40.1078C24.1605 40.1078 23.2092 40.2907 22.3139 40.6535C21.4186 41.0193 20.6446 41.5184 19.9856 42.1478C19.3265 42.7803 18.8074 43.5182 18.425 44.3615C18.0427 45.2048 17.853 46.1039 17.853 47.0619C17.853 48.0199 18.0427 48.919 18.425 49.7623C18.8074 50.6056 19.3265 51.3435 19.9856 51.9759C20.6446 52.6084 21.4186 53.1076 22.3139 53.4703C23.2092 53.8361 24.1605 54.016 25.1676 54.016C25.979 54.016 26.7468 53.8982 27.4711 53.6625C28.1955 53.4269 28.8607 53.1045 29.47 52.689C30.0793 52.2767 30.6078 51.7775 31.0554 51.1946C31.4502 50.68 31.7642 50.1281 32.0004 49.536C32.0471 49.4212 31.9569 49.2972 31.8357 49.2972H28.1271C28.0742 49.2972 28.0245 49.322 27.9934 49.3623C27.6763 49.753 27.2784 50.0723 26.7997 50.3203C26.2961 50.5808 25.7521 50.7079 25.1676 50.7079C24.7697 50.7079 24.3936 50.6521 24.0423 50.5405C23.9491 50.5126 23.8589 50.4785 23.7688 50.4413C23.7283 50.4258 23.6879 50.4041 23.6475 50.3855C23.5947 50.3607 23.5449 50.3389 23.4952 50.311C23.4299 50.2769 23.3677 50.2397 23.3056 50.2025C23.2962 50.1963 23.29 50.1932 23.2807 50.187C23.2061 50.1405 23.1315 50.0909 23.0569 50.0382H23.0507C22.4849 49.6352 22.0373 49.0771 21.7761 48.4229L21.7264 48.3113C21.5834 47.9176 21.5088 47.5021 21.5088 47.0588C21.5088 46.6154 21.5927 46.1938 21.7357 45.8031L21.7761 45.6946C22.0404 45.0404 22.488 44.4824 23.0538 44.0793C23.1253 44.0266 23.1968 43.9801 23.2683 43.9336C23.2807 43.9243 23.2963 43.9181 23.3087 43.9088C23.3677 43.8747 23.4268 43.8406 23.4859 43.8096C23.5449 43.7786 23.604 43.7507 23.6662 43.7228C23.6973 43.7073 23.7284 43.6918 23.7594 43.6794C23.8527 43.6391 23.946 43.605 24.0454 43.574C24.1138 43.5523 24.1853 43.5337 24.2568 43.5151C24.263 43.5151 24.2693 43.512 24.2724 43.512C24.2848 43.5089 24.3003 43.5058 24.3128 43.5027C24.4091 43.481 24.5055 43.4655 24.605 43.45C24.7853 43.4252 24.9718 43.4097 25.1645 43.4097C25.9448 43.4097 26.6442 43.6329 27.2629 44.0793C27.8069 44.4731 28.2172 44.9598 28.497 45.5489C28.553 45.6636 28.4628 45.7938 28.3354 45.7938L23.1968 45.8031C23.1222 45.8031 23.0507 45.8496 23.0289 45.924C22.9108 46.2837 22.8424 46.665 22.8424 47.0619C22.8424 47.4587 22.9046 47.8432 23.0227 48.2028C23.0476 48.2741 23.1159 48.3237 23.1937 48.3237H32.2087V48.3268Z" fill="#3E3A39"/>
<path d="M110.011 41.1495C110.011 41.0162 109.865 40.9294 109.75 40.9945C109.194 41.3107 108.693 41.6921 108.261 42.1478C107.661 42.7803 107.195 43.5151 106.862 44.3584C106.53 45.2017 106.362 46.0977 106.362 47.0526V53.4331C106.362 53.5292 106.44 53.6098 106.539 53.6098H109.837C109.934 53.6098 110.014 53.5323 110.014 53.4331V41.1464L110.011 41.1495Z" fill="#3E3A39"/>
<path d="M119.494 44.3584C119.161 43.5182 118.695 42.7804 118.095 42.1479C117.495 41.5154 116.777 41.0194 115.94 40.6535C115.104 40.2908 114.184 40.1078 113.177 40.1078C112.437 40.1078 111.747 40.2102 111.1 40.4055C111.026 40.4272 110.976 40.4985 110.976 40.576V43.9213C110.976 44.0701 111.147 44.1476 111.265 44.0546C111.436 43.9182 111.622 43.8004 111.828 43.7012C112.226 43.5058 112.676 43.4097 113.18 43.4097C113.683 43.4097 114.134 43.5058 114.532 43.7012C114.93 43.8965 115.263 44.1538 115.53 44.4793C115.797 44.8018 115.999 45.1862 116.139 45.6327C116.276 46.0791 116.348 46.5504 116.348 47.0526V53.4332C116.348 53.5293 116.425 53.6099 116.525 53.6099H119.823C119.919 53.6099 120 53.5324 120 53.4332V47.0526C120 46.0977 119.832 45.1986 119.503 44.3584H119.494Z" fill="#3E3A39"/>
<path d="M37.996 46.6591L35.2294 40.5297C35.2014 40.4677 35.1392 40.4274 35.0677 40.4274H31.4834C31.356 40.4274 31.2689 40.5607 31.3249 40.6785L35.9443 50.5562C36.0065 50.6926 36.2024 50.6926 36.2645 50.5562L37.996 46.8079C38.0178 46.7614 38.0178 46.7087 37.996 46.6622V46.6591Z" fill="#3E3A39"/>
<path d="M34.0361 57.7552C33.9832 57.8731 34.0672 58.0033 34.1946 58.0033H37.8784C37.9467 58.0033 38.0089 57.963 38.04 57.901L45.908 40.6754C45.9608 40.5576 45.8769 40.4274 45.7463 40.4274H42.1589C42.0906 40.4274 42.0284 40.4677 42.0004 40.5297L34.0361 57.7552Z" fill="#3E3A39"/>
<path d="M100.732 49.8956V53.0053C100.732 53.0611 100.704 53.1138 100.661 53.1479C100.502 53.2626 100.337 53.3711 100.16 53.4703C99.4919 53.8361 98.7614 54.016 97.9656 54.016C96.9739 54.016 96.0351 53.833 95.1492 53.4703C94.2632 53.1045 93.4954 52.6084 92.8457 51.9759C92.196 51.3435 91.6799 50.6056 91.2976 49.7623C90.9152 48.919 90.7256 48.0199 90.7256 47.0619C90.7256 46.1039 90.9152 45.2048 91.2976 44.3615C91.6799 43.5182 92.196 42.7803 92.8457 42.1478C93.4954 41.5153 94.2632 41.0162 95.1492 40.6535C96.0351 40.2876 96.9739 40.1078 97.9656 40.1078C98.9573 40.1078 99.9147 40.2907 100.794 40.6535C101.671 41.0193 102.436 41.5184 103.086 42.1478C103.735 42.7803 104.251 43.5182 104.634 44.3615C105.016 45.2048 105.206 46.1039 105.206 47.0619V53.4486C105.206 53.5447 105.125 53.6253 105.028 53.6253L101.87 53.6129C101.774 53.6129 101.696 53.5354 101.696 53.4362V47.0929C101.696 47.0929 101.696 47.0743 101.696 47.0619C101.696 46.5596 101.6 46.0853 101.404 45.6388C101.208 45.1924 100.95 44.8079 100.623 44.4824C100.297 44.1568 99.9116 43.8995 99.464 43.7042C99.0163 43.5089 98.5407 43.4128 98.0371 43.4128C97.5335 43.4128 97.0579 43.5089 96.6102 43.7042C96.1626 43.8995 95.7771 44.1568 95.4507 44.4824C95.1243 44.8079 94.8663 45.1924 94.6704 45.6388C94.4746 46.0853 94.3782 46.5596 94.3782 47.0619C94.3782 47.5641 94.4746 48.0385 94.6704 48.4849C94.8663 48.9314 95.1243 49.3158 95.4507 49.6414C95.7771 49.9669 96.1626 50.2242 96.6102 50.4196C97.0579 50.6149 97.5335 50.711 98.0371 50.711C98.5407 50.711 99.0163 50.6149 99.464 50.4196C99.464 50.4196 99.8059 50.2769 100.443 49.7623C100.558 49.6693 100.732 49.7499 100.732 49.8956Z" fill="#3E3A39"/>
<path d="M57.8782 -0.0032959V5.2797H62.1152C62.1152 4.74954 62.6157 4.3527 63.1318 4.48291C66.8031 5.40992 69.5293 8.7304 69.5293 12.6771H73.7664C73.7664 5.67345 68.0745 -0.0032959 61.0521 -0.0032959H57.8782Z" fill="#8EABC5"/>
<path d="M62.1133 27.4626V22.1796H57.8763C57.8763 22.7098 57.3758 23.1066 56.8597 22.9764C53.1884 22.0494 50.4622 18.7289 50.4622 14.7822H46.2251C46.2251 21.7859 51.917 27.4595 58.9363 27.4595H62.1102L62.1133 27.4626Z" fill="#8EABC5"/>
<path d="M59.9921 18.1214C62.4249 18.1214 64.397 16.1545 64.397 13.7282C64.397 11.3019 62.4249 9.33502 59.9921 9.33502C57.5593 9.33502 55.5872 11.3019 55.5872 13.7282C55.5872 16.1545 57.5593 18.1214 59.9921 18.1214Z" fill="#8EABC5"/>
</svg>
