<svg width="143" height="81" viewBox="0 0 143 81" fill="none" xmlns="http://www.w3.org/2000/svg">
<path d="M121.866 24.2604C122.422 24.2604 122.873 24.7115 122.873 25.2681V77.3333C122.873 78.5606 121.879 79.5555 120.651 79.5555H112.297C111.07 79.5555 110.075 78.5606 110.075 77.3333V41.6562C110.075 40.1743 108.652 39.1076 107.23 39.5231L100.312 41.5443C98.8895 41.9599 97.4666 40.8931 97.4666 39.4112V34.2354C97.4666 33.2884 98.0666 32.4455 98.9614 32.1356L121.536 24.3159C121.642 24.2791 121.753 24.2604 121.866 24.2604Z" fill="#FFB530"/>
<path d="M90.4419 73.9832C90.4419 72.2905 91.0532 70.8799 92.2757 69.7514C93.4982 68.5994 95.0733 68.0234 97.0011 68.0234C98.9525 68.0234 100.528 68.5994 101.727 69.7514C102.949 70.8799 103.56 72.2905 103.56 73.9832C103.56 75.6759 102.949 77.0982 101.727 78.2502C100.528 79.3787 98.9525 79.9429 97.0011 79.9429C95.0733 79.9429 93.4982 79.3787 92.2757 78.2502C91.0532 77.0982 90.4419 75.6759 90.4419 73.9832Z" fill="#FFB530"/>
<path d="M49.0598 60.8653V60.1247C49.0598 57.3271 49.4595 54.7527 50.2588 52.4017C51.0582 50.0273 52.2336 47.9701 53.7853 46.2304C55.3369 44.4907 57.253 43.1389 59.5334 42.175C61.8139 41.1876 64.447 40.6938 67.4328 40.6938C70.442 40.6938 73.0869 41.1876 75.3673 42.175C77.6713 43.1389 79.5991 44.4907 81.1507 46.2304C82.7024 47.9701 83.8779 50.0273 84.6772 52.4017C85.4766 54.7527 85.8762 57.3271 85.8762 60.1247V60.8653C85.8762 63.6395 85.4766 66.2138 84.6772 68.5883C83.8779 70.9393 82.7024 72.9964 81.1507 74.7596C79.5991 76.4993 77.683 77.8511 75.4026 78.8151C73.1221 79.779 70.489 80.2609 67.5033 80.2609C64.5175 80.2609 61.8727 79.779 59.5687 78.8151C57.2647 77.8511 55.3369 76.4993 53.7853 74.7596C52.2336 72.9964 51.0582 70.9393 50.2588 68.5883C49.4595 66.2138 49.0598 63.6395 49.0598 60.8653ZM60.944 60.1247V60.8653C60.944 62.2994 61.0498 63.6395 61.2614 64.8855C61.473 66.1315 61.8257 67.2247 62.3194 68.1651C62.8131 69.082 63.4831 69.799 64.3295 70.3162C65.1758 70.8335 66.2338 71.0921 67.5033 71.0921C68.7493 71.0921 69.7837 70.8335 70.6066 70.3162C71.4529 69.799 72.123 69.082 72.6167 68.1651C73.1104 67.2247 73.463 66.1315 73.6746 64.8855C73.8862 63.6395 73.992 62.2994 73.992 60.8653V60.1247C73.992 58.7376 73.8862 57.4329 73.6746 56.2103C73.463 54.9643 73.1104 53.8711 72.6167 52.9307C72.123 51.9668 71.4529 51.2145 70.6066 50.6738C69.7602 50.133 68.7023 49.8627 67.4328 49.8627C66.1867 49.8627 65.1405 50.133 64.2942 50.6738C63.4713 51.2145 62.8131 51.9668 62.3194 52.9307C61.8257 53.8711 61.473 54.9643 61.2614 56.2103C61.0498 57.4329 60.944 58.7376 60.944 60.1247Z" fill="#FFB530"/>
<path d="M41.4432 28.2101C42.6705 28.2101 43.6654 29.205 43.6654 30.4323V77.3333C43.6654 78.5606 42.6705 79.5556 41.4432 79.5556H32.6157C31.8164 79.5556 31.0787 79.1264 30.6838 78.4315L17.3155 54.9138C16.1881 52.9303 13.1614 53.7304 13.1614 56.0119V77.3333C13.1614 78.5606 12.1665 79.5556 10.9392 79.5556H3.00567C1.77837 79.5556 0.783447 78.5606 0.783447 77.3333V30.4323C0.783447 29.205 1.77837 28.2101 3.00567 28.2101H11.8684C12.6677 28.2101 13.4054 28.6393 13.8003 29.3341L27.1686 52.8519C28.296 54.8353 31.3227 54.0352 31.3227 51.7537V30.4323C31.3227 29.205 32.3176 28.2101 33.5449 28.2101H41.4432Z" fill="#FFB530"/>
<path d="M137 70.3645C136.508 70.3645 136.1 69.9565 136.1 69.4645C136.1 68.9725 136.508 68.5645 137 68.5645C137.492 68.5645 137.9 68.9725 137.9 69.4645C137.9 69.9565 137.492 70.3645 137 70.3645ZM137 72.5365L140.96 68.5765L141.308 68.9245L137.348 72.8845L141.308 76.8445L140.96 77.1925L137 73.2325L133.028 77.2045L132.68 76.8565L136.652 72.8845L132.692 68.9245L133.04 68.5765L137 72.5365ZM134.48 72.8845C134.48 73.3765 134.072 73.7845 133.58 73.7845C133.088 73.7845 132.68 73.3765 132.68 72.8845C132.68 72.3925 133.088 71.9845 133.58 71.9845C134.072 71.9845 134.48 72.3925 134.48 72.8845ZM139.52 72.8845C139.52 72.3925 139.928 71.9845 140.42 71.9845C140.912 71.9845 141.32 72.3925 141.32 72.8845C141.32 73.3765 140.912 73.7845 140.42 73.7845C139.928 73.7845 139.52 73.3765 139.52 72.8845ZM137 75.4045C137.492 75.4045 137.9 75.8125 137.9 76.3045C137.9 76.7965 137.492 77.2045 137 77.2045C136.508 77.2045 136.1 76.7965 136.1 76.3045C136.1 75.8125 136.508 75.4045 137 75.4045Z" fill="#7E7E7E"/>
<path d="M5.2 4.05558H13.2333V6.15558H5.2V4.05558ZM5.61667 7.28892H12.9V9.30558H5.61667V7.28892ZM5.05 10.8222H13.4667V12.7722H5.05V10.8222ZM8.11667 4.72225H10.35V11.8556H8.11667V4.72225ZM10.6 9.72225L12.1167 8.93892C12.5333 9.38892 13.0667 10.0389 13.3167 10.4556L11.7167 11.3389C11.5 10.9056 11 10.2222 10.6 9.72225ZM2.18333 1.23892H16.4167V16.4389H13.8167V3.45558H4.65V16.4389H2.18333V1.23892ZM3.53333 13.3889H15.0167V15.6222H3.53333V13.3889ZM26.1333 8.42225L27.9833 7.08892C29.3333 8.33892 31.2833 10.1389 32.2 11.3556L30.1833 12.9222C29.3667 11.7056 27.5167 9.78892 26.1333 8.42225ZM26.1 0.638916H28.6V5.05558C28.6 7.88892 27.7667 11.2389 24.25 13.3556C23.9 12.8389 23.0833 11.9556 22.5 11.5222C25.7833 9.90558 26.1 7.13892 26.1 5.03892V0.638916ZM20.3833 3.37225H33V5.73892H22.8167V16.5056H20.3833V3.37225ZM31.95 3.37225H34.35V13.8389C34.35 15.0556 34.1 15.7056 33.3333 16.0889C32.5667 16.4722 31.5 16.5056 30.0167 16.5056C29.9333 15.8389 29.5667 14.7389 29.2333 14.1222C30.1 14.1722 31.2167 14.1722 31.5333 14.1722C31.8333 14.1556 31.95 14.0722 31.95 13.7889V3.37225ZM43.9833 0.572249H46.6V4.10558H43.9833V0.572249ZM44.0167 4.85558H46.55V16.4889H44.0167V4.85558ZM37.6333 2.63892H53.1V5.00558H37.6333V2.63892ZM39.15 6.45558H50.15V8.82225H41.6V14.5056H39.15V6.45558ZM49.25 6.45558H51.7833V11.9889C51.7833 13.1056 51.55 13.7722 50.7833 14.1389C50 14.5056 49.0333 14.5389 47.8 14.5389C47.7 13.8389 47.3333 12.8056 47 12.1556C47.6667 12.2056 48.65 12.2056 48.8833 12.2056C49.15 12.2056 49.25 12.1389 49.25 11.9389V6.45558ZM60.6833 7.28892H71.2667V9.30558H60.6833V7.28892ZM62.4667 9.88892H69.0833V11.7722H62.4667V9.88892ZM63 8.02225L65.0667 8.53892C64.2333 10.5056 62.7333 12.2056 61.1333 13.2389C60.7833 12.8389 59.9833 12.1056 59.5167 11.7889C61.0667 10.9722 62.3667 9.60558 63 8.02225ZM68.7333 9.88892H70.9667C70.9667 9.88892 70.95 10.4222 70.9167 10.6889C70.7 13.8389 70.4333 15.2056 69.9833 15.7222C69.6333 16.1389 69.2333 16.2889 68.7833 16.3556C68.3833 16.4222 67.7667 16.4389 67.0667 16.4222C67.0333 15.8556 66.8333 15.0389 66.5333 14.5389C67 14.5889 67.3833 14.5889 67.6 14.5889C67.8167 14.5889 67.95 14.5556 68.0833 14.3889C68.3333 14.1056 68.5667 13.0056 68.7333 10.2056V9.88892ZM64.1833 4.68892V5.18892H67.9V4.68892H64.1833ZM64.1833 2.65558V3.15558H67.9V2.65558H64.1833ZM62.05 1.02225H70.1333V6.82225H62.05V1.02225ZM55.6667 4.08892H60.85V6.37225H55.6667V4.08892ZM57.2 0.888916H59.45V11.3222H57.2V0.888916ZM55.2667 11.4889C56.5667 11.0389 58.6333 10.2056 60.5667 9.38892L61.0833 11.4556C59.4333 12.3222 57.6333 13.2222 56.15 13.9389L55.2667 11.4889ZM66.95 10.2889L68.5667 11.1722C67.9333 13.1056 66.5167 15.3889 65.05 16.5389C64.6333 16.0889 63.9333 15.5389 63.3333 15.2056C64.9667 14.2222 66.3333 12.1556 66.95 10.2889ZM64.4667 10.2889L66.0333 11.2222C65.2 12.8889 63.4667 14.7889 61.9 15.7889C61.5167 15.3056 60.8833 14.7222 60.3167 14.3722C61.9667 13.5722 63.6667 11.8556 64.4667 10.2889ZM78.2167 1.47225C79.3833 2.10558 81.1667 3.22225 82.1167 3.87225L80.6167 6.10558C79.6167 5.43892 77.9167 4.35558 76.75 3.70558L78.2167 1.47225ZM74.8 13.2556C76.6833 12.9389 78.6333 12.4389 80.5167 11.4222C83.3833 9.83892 85.7833 7.48892 87.1 5.08892L88.65 7.85558C87.05 10.2056 84.6667 12.2889 81.9 13.8722C80.2 14.8222 77.75 15.6889 76.3167 15.9222L74.8 13.2556ZM75.6167 5.30558C76.8167 5.93892 78.5833 7.05558 79.5167 7.70558L78.0333 9.97225C77.0167 9.27225 75.3333 8.17225 74.15 7.53892L75.6167 5.30558ZM92.8833 5.62225C93.25 5.68892 93.8833 5.72225 94.3 5.72225H101.9C102.3 5.72225 102.833 5.68892 103.267 5.62225V8.13892C102.817 8.10558 102.283 8.07225 101.9 8.07225H94.3C93.8833 8.07225 93.25 8.10558 92.8833 8.13892V5.62225ZM96.6167 14.3889V6.98892H99.2833V14.3889H96.6167ZM92.0167 12.8889C92.4667 12.9556 93.0333 13.0056 93.4833 13.0056H102.683C103.183 13.0056 103.683 12.9389 104.033 12.8889V15.5222C103.667 15.4556 103 15.4389 102.683 15.4389H93.4833C93.05 15.4389 92.4833 15.4556 92.0167 15.5222V12.8889ZM122.467 3.60558C122.267 3.85558 121.883 4.33892 121.717 4.60558C120.867 6.00558 119.283 8.08892 117.783 9.17225L115.7 7.50558C116.933 6.72225 118.083 5.45558 118.45 4.75558C117.533 4.75558 111.4 4.75558 110.217 4.75558C109.483 4.75558 108.967 4.80558 108.1 4.88892V2.10558C108.783 2.20558 109.483 2.28892 110.217 2.28892C111.4 2.28892 118.067 2.28892 118.867 2.28892C119.417 2.28892 120.517 2.22225 120.867 2.12225L122.467 3.60558ZM115.6 5.87225C115.6 9.78892 115.683 13.3889 110.983 16.0056L108.633 14.0889C109.217 13.8889 109.833 13.6056 110.533 13.0722C112.383 11.6722 112.8 10.2556 112.8 7.53892C112.8 6.95558 112.767 6.47225 112.667 5.87225H115.6Z" fill="#FFB530"/>
</svg>
