<svg width="135" height="36" viewBox="0 0 135 36" fill="none" xmlns="http://www.w3.org/2000/svg">
<path d="M11.2566 9.8457C10.438 9.8457 9.6298 10.0155 9.06303 10.2352C8.49626 10.0155 7.68809 9.8457 6.86943 9.8457C3.25891 9.8457 0 13.0915 0 17.5457C0 22.3993 4.17204 26.1544 9.06303 26.1544C13.954 26.1544 18.1208 22.3993 18.1208 17.5457C18.1208 13.0915 14.8619 9.8457 11.2566 9.8457ZM9.06303 12.4923C9.76099 12.8867 10.6794 14.0253 10.6794 15.3136C10.6794 16.2573 10.0234 16.9964 9.06303 16.9964C8.10267 16.9964 7.44669 16.2523 7.44669 15.3136C7.44669 14.0253 8.36506 12.8867 9.06303 12.4923ZM9.06303 24.0372C5.32656 24.0372 2.23033 21.1759 2.23033 17.5057C2.23033 14.1551 4.77029 11.8631 6.76972 11.953C5.82511 12.8518 5.24784 14.1551 5.24784 15.4234C5.24784 17.6006 7.0636 19.1236 9.06303 19.1236C11.0625 19.1236 12.8782 17.5956 12.8782 15.4234C12.8782 14.1601 12.3062 12.8518 11.3616 11.953C13.3558 11.8681 15.901 14.1551 15.901 17.5057C15.901 21.1759 12.8047 24.0372 9.06828 24.0372H9.06303Z" fill="#0068B7"/>
<path d="M24.3925 13.9229V15.5329H25.5162V18.4982L22.5039 13.9229H19.0269V15.5329H20.1506V20.4624H19.0269V22.0772H23.6218V20.4624H22.5039V17.5019L25.5162 22.0772H27.8696V15.5329H28.9933V13.9229H24.3925Z" fill="black"/>
<path d="M38.0538 17.0533V13.9229H29.8994V17.0533H31.7549V15.5329H32.7477V20.4624H31.3968V22.0772H36.5618V20.4624H35.2054V15.5329H36.2037V17.0533H38.0538Z" fill="black"/>
<path d="M47.1143 17.0533V13.9229H38.96V17.0533H40.8112V15.5329H41.8048V20.4624H40.4529V22.0772H45.6213V20.4624H44.2695V15.5329H45.263V17.0533H47.1143Z" fill="black"/>
<path d="M51.9706 20.9818H55.6398V22.5301H51.1433C49.2018 22.5301 48.02 21.4713 48.02 19.858V13.9093H50.0797V15.5675H55.5835L55.1502 17.1159H50.0797V19.2336C50.0797 20.3624 50.6368 20.9818 51.9706 20.9818ZM53.6701 13.4697V15.133H54.5987V13.4697H53.6701ZM55.2458 13.4697V15.133H56.1744V13.4697H55.2458Z" fill="black"/>
<path d="M60.2008 13.9942L59.8689 15.5026H57.0806V13.9942H60.2008ZM57.085 16.8362V18.3496H60.0282V16.8362H57.085ZM61.6481 16.0919C61.3958 19.5083 60.8735 20.8519 57.8064 20.8519H57.0806V22.5301H57.9525C62.1438 22.5301 62.8962 20.0128 63.0776 16.0919H61.6436H61.6481ZM61.4533 13.4697V15.128H62.1836V13.4697H61.4533ZM62.6882 13.4697V15.128H63.4228V13.4697H62.6882Z" fill="black"/>
<path d="M70.6666 20.675C70.0179 20.5084 69.1344 20.2353 68.2765 19.8512V22.0772H66.7144V19.8558C65.8566 20.2399 64.9944 20.5037 64.3286 20.675V19.2681C65.5749 18.8377 68.0674 17.9769 68.4345 16.3756H64.7213V14.941H66.7144V13.9229H68.2765V14.941H70.1417V15.774C70.1417 16.9171 69.5996 17.8242 68.8143 18.5369C69.4801 18.8608 70.1331 19.0922 70.6709 19.2681V20.675H70.6666Z" fill="black"/>
<path d="M76.208 21.9119C75.927 21.2788 75.5453 20.5229 75.1048 19.7386C74.1862 20.863 72.9278 21.6473 71.5771 22.0772V20.5748C73.3892 19.7433 74.9916 18.1323 75.0545 15.3874H71.854V13.9229H76.5897V15.3874C76.5897 16.5166 76.359 17.5134 75.9563 18.378C76.6904 19.5402 77.4245 20.8867 77.9194 21.9119H76.2038H76.208Z" fill="black"/>
<path d="M80.4363 13.9276L81.3286 18.3376H79.6658L78.8257 13.9276H80.4363ZM83.553 13.9276L83.2614 16.5009C82.9175 19.2017 82.1078 20.1366 79.7529 20.604V22.0772C82.9436 21.5201 84.4106 20.4907 84.8589 16.6095L85.168 13.9229H83.553V13.9276Z" fill="black"/>
<path d="M91.51 13.9229V17.6353C91.51 20.6979 90.0246 21.9042 87.0453 22.0772V20.6371C89.1869 20.4781 89.9167 19.5337 89.9167 17.3828V13.9229H91.51ZM86.0737 13.9229V18.8276H87.6454V13.9229H86.0737Z" fill="black"/>
<path d="M96.9312 14.376H92.8743V15.9043H95.4082L95.1701 20.0904H92.416V21.6243H97.8523V20.0904H96.5988L96.9312 14.376Z" fill="black"/>
<path d="M98.7583 17.0938V18.9058H103.824L104.195 17.0938H98.7583Z" fill="black"/>
<path d="M108.867 13.9229L108.465 15.3638H105.101V13.9229H108.872H108.867ZM105.101 16.6378V18.0835H108.658V16.6378H105.101ZM110.616 15.9268C110.311 19.1905 109.68 20.474 105.978 20.474H105.101V22.0772H106.154C111.22 22.0772 112.13 19.6724 112.349 15.9268H110.616Z" fill="black"/>
<path d="M113.255 14.376V15.8299H117.109V17.2518H113.573V18.7111H117.109V20.165H113.255V21.6243H118.691V14.376H113.255Z" fill="black"/>
<path d="M123.009 13.9229L122.635 15.4831H119.602V13.9229H123.009ZM124.395 15.9268C124.114 19.3575 123.435 20.474 120.365 20.474H119.597V22.0772H120.519C124.98 22.0772 125.743 19.701 125.939 15.9268H124.39H124.395Z" fill="black"/>
<path d="M134.836 22.3569H132.676C132.328 21.6988 131.847 20.912 131.298 20.0955C130.141 21.293 128.552 22.1145 126.846 22.5301V20.9566C129.127 20.0857 131.145 18.3983 131.224 15.5233H127.194V13.9893H132.222V15.4045H133.157V15.5233C133.157 16.701 132.866 17.75 132.365 18.6605C133.284 19.8778 134.213 21.2831 134.831 22.3569H134.836ZM132.645 13.4697V15.1175H133.521V13.4697H132.645ZM134.123 13.4697V15.1175H135V13.4697H134.123Z" fill="black"/>
</svg>
