<svg width="135" height="36" viewBox="0 0 135 36" fill="none" xmlns="http://www.w3.org/2000/svg">
<g clip-path="url(#clip0_86_1567)">
<path d="M21.5469 -0.789062V3.1832H27.6017V18.0905H31.8918V3.1832H37.9466V-0.789062H21.5469Z" fill="#6785C1"/>
<path d="M92.134 -0.7912H81.3408V3.21511H91.8502C93.3938 3.21511 93.9953 3.91877 93.9953 5.72898C93.9953 5.73466 93.9953 6.24538 93.9953 6.39292H85.2847C81.9763 6.39292 80.3193 8.04992 80.3193 11.7952V12.6861C80.3193 16.5392 82.0274 18.0884 85.4606 18.0884H98.2399V5.67224C98.2399 0.916873 96.668 -0.796875 92.134 -0.796875M85.9089 14.048C85.2563 14.048 84.5356 13.7189 84.5356 12.096C84.5356 10.473 85.2563 10.1949 85.9089 10.1949H93.9953V14.048H85.9089Z" fill="#6785C1"/>
<path d="M127.742 -0.7912H116.944V3.21511H127.453C128.996 3.21511 129.598 3.91877 129.598 5.72898V6.39292H120.887C117.573 6.39292 115.928 8.04992 115.928 11.7952V12.6861C115.928 16.5392 117.636 18.0884 121.069 18.0884H133.843V5.67224C133.843 0.916873 132.271 -0.796875 127.742 -0.796875M121.512 14.048C120.865 14.048 120.138 13.7189 120.138 12.096C120.138 10.473 120.859 10.1949 121.512 10.1949H129.598V14.048H121.512Z" fill="#6785C1"/>
<path d="M39.314 -0.789062V3.1832H45.3688V18.0905H49.6589V3.1832H55.7137V-0.789062H39.314Z" fill="#6785C1"/>
<path d="M99.1021 -0.789062V3.1832H105.157V18.0905H109.447V3.1832H115.507V-0.789062H99.1021Z" fill="#6785C1"/>
<path d="M78.6563 11.4739V5.82759C78.6563 0.879287 76.7383 -0.789062 72.4142 -0.789062H60.9287V18.0905H72.6128C77.2093 18.0905 78.6563 15.8093 78.6563 11.4739ZM74.2812 11.559C74.2812 13.3692 73.674 14.0672 72.1305 14.0672H65.2244V3.2286H72.1305C73.674 3.2286 74.2812 3.93225 74.2812 5.7368V11.5533V11.559Z" fill="#6785C1"/>
<path d="M15.4975 13.5896C15.4067 13.4136 9.67529 2.25158 8.9773 1.1507C8.1715 -0.120428 7.18411 -1 5.30012 -1C3.54665 -1 1.46973 -0.222571 1.46973 3.97668V18.0952H5.70302V6.32031C5.70302 5.47479 5.65195 4.22069 5.6406 3.971C5.62925 3.76671 5.6406 3.5681 5.74842 3.51135C5.86759 3.43758 5.99243 3.55108 6.07755 3.70997C6.157 3.86318 11.4742 14.3783 12.6034 16.1488C13.4092 17.4199 14.3966 18.3052 16.2806 18.3052C18.0284 18.3052 20.1053 17.5278 20.1053 13.3228V-0.795712H15.8777V10.9792C15.8777 11.8247 15.9288 13.0732 15.9401 13.3285C15.9515 13.5328 15.9401 13.7314 15.838 13.7938C15.7131 13.8619 15.594 13.7484 15.5088 13.5952" fill="#6785C1"/>
<path d="M0 28.582H1.21438L5.72573 35.5335H5.74843V28.582H6.82662V37.1508H5.57819L1.10088 30.2731H1.07819V37.1508H0V28.582Z" fill="black"/>
<path d="M11.3378 29.541H8.4834V28.582H15.3384V29.541H12.484V37.1508H11.3434V29.541H11.3378Z" fill="black"/>
<path d="M19.4242 29.541H16.5698V28.582H23.4248V29.541H20.5705V37.1508H19.4299V29.541H19.4242Z" fill="black"/>
<path d="M32.6181 31.3922V32.232H29.2587C29.236 35.3417 27.8401 36.5504 25.19 37.0895L24.8211 36.2894C27.1194 35.8525 28.3678 35.0807 28.3054 32.232H24.2764V31.3922H32.6124H32.6181ZM31.0008 28.8045V29.616H25.1843V28.8045H31.0008ZM31.5626 29.633C31.4605 29.145 31.33 28.6456 31.1143 28.1746L31.7442 28.0158C31.9655 28.4754 32.1244 28.9634 32.2266 29.4741L31.5683 29.633H31.5626ZM32.7089 29.5025C32.5103 28.8045 32.4365 28.5605 32.1982 28.0214L32.7884 27.8398C33.0097 28.2484 33.2253 28.9294 33.3161 29.2982L32.7089 29.4968V29.5025Z" fill="black"/>
<path d="M42.8605 32.2285V33.1875H33.9854V32.2285H42.8605Z" fill="black"/>
<path d="M47.3947 31.7945C48.7055 32.396 49.6929 33.1734 49.9539 33.3948C50.5838 32.5833 51.0435 31.7378 51.3215 30.4383H47.4741C46.3051 32.0896 45.2156 32.7478 44.7673 33.0089L44.1885 32.3279C46.2768 31.1703 47.1563 29.4679 47.5649 28.3613L48.5239 28.5429C48.4161 28.8153 48.2856 29.1047 48.0018 29.6211H52.4394C52.1103 31.4086 51.191 35.7157 45.3631 37.1343L44.8524 36.3456C46.6513 35.9767 48.0189 35.3241 49.3297 34.0871C48.138 33.0883 47.2017 32.6287 46.7931 32.4301L47.3947 31.8002V31.7945Z" fill="black"/>
<path d="M60.0775 29.4596V28.0977H60.906V29.4596H64.5548V30.2313H60.906V32.1494H65.0201V32.9211H61.9899V36.2181C61.9899 36.4564 62.0693 36.4678 62.2282 36.4678H63.6355C63.8341 36.4678 63.9873 36.4678 64.0554 36.1954C64.1065 35.9854 64.1576 35.696 64.2143 35.0151L65.0145 35.174C64.8839 37.1544 64.4527 37.2509 63.9249 37.2509H61.9672C61.6891 37.2509 61.1557 37.2225 61.1557 36.5189V32.9098H59.4873C59.4363 34.527 58.9766 36.5642 56.1393 37.4552L55.708 36.655C58.046 36.0479 58.6248 34.6746 58.6532 32.9098H55.7875V32.138H60.0661V30.22H57.9098C57.4104 31.1903 57.0302 31.6216 56.8089 31.8713L56.0882 31.4003C57.1664 30.2427 57.575 28.9602 57.7679 28.2055L58.5567 28.3871C58.4489 28.8354 58.3751 29.085 58.2389 29.4539H60.0661L60.0775 29.4596Z" fill="black"/>
<path d="M68.9754 35.5212C68.1469 35.822 66.6374 36.2306 65.8487 36.4008L65.7295 35.5836C66.0302 35.5212 66.4899 35.4418 67.3978 35.2148C67.5851 34.3749 67.8972 32.4966 67.9483 31.078L68.7371 31.129C68.6746 32.3377 68.3569 34.2558 68.1753 35.0162C68.6349 34.897 68.7654 34.8459 68.9754 34.7892V35.5269V35.5212ZM67.7383 28.1385V29.699H68.947V30.4708H65.8089V29.699H66.9268V28.1385H67.7383ZM66.1778 34.653C66.2175 33.3251 66.087 32.2526 65.9395 31.2028L66.6488 31.1234C66.819 31.9802 66.9779 33.6316 66.9779 34.5622L66.1778 34.653ZM75.0303 31.3957V32.1278H72.4426C72.3745 32.4285 72.21 32.8485 72.1816 32.9166H74.7409V36.7753C74.7409 37.2463 74.5422 37.3768 74.0996 37.3768H73.4016L73.2598 36.5994L73.7818 36.6108C73.9918 36.6108 73.9918 36.5029 73.9918 36.3781V33.5918H73.1009V37.2974H72.4142V33.5918H71.5857V37.2974H70.8764V33.5918H70.0366V37.3768H69.2648V32.9222H71.4042C71.5233 32.5307 71.546 32.491 71.6141 32.1334H69.0151V31.4014H75.0303V31.3957ZM70.1954 28.3768V30.0225H71.6368V28.1328H72.4142V30.0225H73.8613V28.3768H74.6387V30.7034H69.4123V28.3768H70.1898H70.1954Z" fill="black"/>
<path d="M79.0932 33.0314C78.8719 33.1506 78.5939 33.2925 77.8618 33.6103V36.6065C77.8618 37.208 77.5838 37.3782 77.0844 37.3782H76.0176L75.8984 36.5611H76.7382C76.8688 36.5611 77.0674 36.5611 77.0674 36.283V33.9167C76.6872 34.0586 76.2502 34.1891 75.8473 34.3082L75.7168 33.44C75.9949 33.3776 76.307 33.3095 77.0674 33.0485V30.7219H75.7963V29.9615H77.0674V28.1342H77.8675V29.9615H79.0592V30.7219H77.8675V32.7818C78.7073 32.464 78.8379 32.3902 79.0365 32.2937L79.0989 33.0428L79.0932 33.0314ZM78.5655 36.5895C79.9217 36.2319 80.7559 35.812 81.4709 35.3127C80.8694 34.6657 80.4608 33.9337 80.092 33.0768L80.8524 32.7761C81.4198 34.0359 81.8511 34.5125 82.1121 34.8076C83.0541 33.9394 83.44 32.9577 83.6103 32.498H79.6153V31.749H81.7546V30.1998H79.2975V29.428H81.7546V28.1172H82.5718V29.428H85.0289V30.1998H82.5718V31.749H84.5125V32.447C84.3026 33.0371 83.8713 34.2231 82.6966 35.3467C83.4457 35.9255 84.2742 36.266 85.1651 36.5441L84.6828 37.3953C83.5649 36.947 82.7818 36.5043 82.0554 35.8858C80.7786 36.8448 79.5585 37.2023 79.0195 37.3555L78.5712 36.5951L78.5655 36.5895Z" fill="black"/>
<path d="M85.6473 32.9904C86.629 32.0825 87.117 31.0213 87.4178 30.2609L88.1044 30.5503C88.0023 30.8681 87.8944 31.2199 87.5142 31.9179V37.3769H86.7141V33.138C86.385 33.5579 86.2034 33.7054 85.9821 33.8984L85.6416 32.9904H85.6473ZM87.8944 28.3656C87.5653 29.1657 86.8957 30.051 86.0786 30.6354L85.6813 29.8637C86.6006 29.2338 87.0205 28.3542 87.1624 28.0762L87.9001 28.3656H87.8944ZM89.1826 31.9747C89.1542 33.4331 89.0124 35.09 88.5414 36.1228L87.8717 35.6008C88.2803 34.6418 88.3995 33.2344 88.4335 31.9747H89.1826ZM90.5332 28.1272V30.1134H92.1221V30.8738H90.5332V37.3769H89.7557V30.8738H88.2973V30.1134H89.7557V28.1272H90.5332ZM91.5603 29.858C91.2992 29.2679 91.1517 29.0068 90.8112 28.5018L91.4184 28.1726C91.7078 28.5301 91.9291 28.882 92.2072 29.4892L91.5603 29.858ZM91.8724 31.9747C92.1448 33.155 92.2639 34.795 92.2696 35.7143L91.4695 35.7824C91.4581 35.0049 91.4071 33.6146 91.1517 32.0655L91.8724 31.9747ZM95.0502 31.9463H94.2728V36.4747C94.2728 36.8946 94.2728 37.3826 93.4159 37.3826H92.1845L92.0369 36.5541L93.1265 36.5655C93.3478 36.5655 93.4783 36.5428 93.4783 36.2761V31.952H92.2015V31.1632H95.0615V31.952L95.0502 31.9463ZM94.9027 29.2962H92.3547V28.5188H94.9027V29.2962Z" fill="black"/>
<path d="M98.8924 34.0681C98.4554 33.4496 98.2625 33.1602 98.0015 32.5303V37.3992H97.2297V32.4622C97.1389 32.7743 96.7814 33.949 95.9699 35.152L95.6011 34.1646C96.4523 33.1034 96.9516 31.628 97.1616 30.8393H95.7713V30.0618H97.2297V28.1324H98.0015V30.0618H99.2385V30.8393H98.0015V31.4862C98.2001 31.9628 98.8413 32.8254 99.3804 33.3758L98.8924 34.0738V34.0681ZM102.598 37.3935H101.809V33.7333C101.162 34.925 100.481 35.7024 99.3917 36.5934L98.8243 35.884C100.271 34.8456 101.094 33.7333 101.571 32.8594H99.2442V32.0877H101.815V30.5272H100.544C100.254 31.2081 100.033 31.5089 99.823 31.7983L99.0853 31.3386C99.5847 30.7201 99.9933 30.0391 100.317 28.3935L101.145 28.5013C101.083 28.8191 101.037 29.1312 100.833 29.7724H101.815V28.1211H102.604V29.7724H104.8V30.5328H102.604V32.0934H105.032V32.8651H102.882C103.614 34.3746 104.351 35.135 105.169 35.8103L104.709 36.6501C103.568 35.64 102.972 34.5902 102.598 33.6823V37.3992V37.3935Z" fill="black"/>
<path d="M111.059 36.1399C109.618 36.469 107.762 36.7698 105.855 37.0081L105.736 36.1796C106.156 36.1512 106.684 36.1001 107.944 35.9186V32.7805H105.958V32.003H110.724V32.7805H108.778V35.7994C110.219 35.561 110.645 35.4703 111.025 35.3795L111.065 36.1399H111.059ZM111.848 28.1272C111.837 28.4677 111.837 28.8649 111.859 29.7842H115.026V30.5617H111.888C111.995 32.423 112.109 34.341 113.159 35.8561C113.267 36.015 113.55 36.4179 113.817 36.4179C114.084 36.4179 114.316 35.737 114.379 34.7723L115.151 35.1241C115.043 35.8845 114.838 37.3713 113.919 37.3713C112.813 37.3713 111.99 35.7143 111.74 34.9312C111.229 33.3933 111.178 32.5932 111.059 30.5617H105.776V29.7842H111.031C111.008 29.3132 111.002 28.7174 111.002 28.1272H111.854H111.848ZM114.027 29.7161C113.647 29.387 113.25 29.0976 112.466 28.6777L112.926 28.0762C113.658 28.4564 113.953 28.6663 114.532 29.0976L114.021 29.7161H114.027Z" fill="black"/>
<path d="M123.044 31.6318H117.76V31.07C116.87 31.6204 116.319 31.8588 115.984 32.0006L115.576 31.1892C118.555 30.0202 119.673 28.4029 119.939 28H120.83C121.869 29.3903 123.458 30.599 125.194 31.2175L124.757 32.0177C124.32 31.819 123.759 31.558 123.049 31.0757V31.6261L123.044 31.6318ZM122.164 33.9981C123.231 35.0479 123.844 35.7459 124.61 36.966L123.889 37.4483C123.73 37.1759 123.611 36.9887 123.401 36.6766C121.733 36.9149 117.658 37.0965 116.115 37.0965L116.024 36.2793H117.403C118.033 35.2011 118.413 34.2705 118.634 33.6917H115.899V32.9199H124.82V33.6917H119.605C119.366 34.2421 118.963 35.1103 118.317 36.2623C118.566 36.251 119.684 36.2226 119.894 36.2112C121.114 36.1602 122.141 36.0694 122.885 36.0013C122.783 35.8708 122.283 35.2409 121.506 34.4521L122.164 34.0038V33.9981ZM122.726 30.8714C121.318 29.8726 120.74 29.152 120.388 28.715C119.758 29.5946 118.907 30.2926 118.073 30.8714H122.731H122.726Z" fill="black"/>
<path d="M128.145 37.4009H127.334V33.3549C126.704 33.9337 126.244 34.2345 125.966 34.4161L125.625 33.5989C127.282 32.6002 128.213 31.312 128.554 30.5005H125.756V29.7515H127.334V28.1229H128.145V29.7515H129.433V30.5119C129.331 30.7502 129.076 31.3688 128.344 32.2824C128.871 32.8896 129.223 33.1903 129.785 33.5932L129.337 34.3253C128.809 33.894 128.695 33.7748 128.145 33.1279V37.4123V37.4009ZM132.571 28.1172V31.0056H134.767V31.8227H132.571V36.2206H135V37.0378H129.172V36.2206H131.731V31.8227H129.643V31.0056H131.731V28.1172H132.571Z" fill="black"/>
</g>
<defs>
<clipPath id="clip0_86_1567">
<rect width="135" height="36" fill="white"/>
</clipPath>
</defs>
</svg>
