<svg width="135" height="36" viewBox="0 0 135 36" fill="none" xmlns="http://www.w3.org/2000/svg">
<path d="M40.7549 0C44.1808 0 47.0438 1.14292 49.3468 3.42876C51.6555 5.71459 52.807 8.53474 52.807 11.8749C52.807 15.2151 51.6584 17.9981 49.3554 20.3039C47.0581 22.6098 44.2551 23.7613 40.9435 23.7613C37.6319 23.7613 34.766 22.6155 32.4602 20.3182C30.1515 18.021 29 15.2437 29 11.9835C29 9.80624 29.5257 7.7947 30.5744 5.93746C31.6259 4.08308 33.0545 2.62871 34.8689 1.57437C36.6804 0.525742 38.6462 0 40.7549 0ZM40.8578 2.21155C39.1834 2.21155 37.6033 2.64871 36.1032 3.52019C34.6032 4.39166 33.4402 5.56601 32.5973 7.04038C31.7544 8.51474 31.3344 10.1605 31.3344 11.9778C31.3344 14.6579 32.2659 16.9266 34.126 18.7724C35.9889 20.6268 38.2291 21.5526 40.8549 21.5526C42.6064 21.5526 44.2265 21.1268 45.7237 20.2725C47.2124 19.4239 48.3782 18.2638 49.2125 16.7866C50.0468 15.3094 50.4669 13.6693 50.4669 11.8663C50.4669 10.0634 50.0468 8.45474 49.2125 7.00037C48.3782 5.55173 47.201 4.39166 45.6837 3.52019C44.1694 2.64871 42.555 2.21155 40.8549 2.21155" fill="#B80016"/>
<path d="M52.7926 2.87626V0.767578H65.2733L55.3527 20.2343H64.7618V22.343H51.7183L61.6902 2.87626H52.7926Z" fill="#B80016"/>
<path d="M67.4961 10.5645H66.3418V22.1451H67.4961V10.5645Z" fill="#656565"/>
<path d="M70.1738 22.1451V10.5645L70.4281 10.5759L78.1028 19.4249V10.5759L79.2572 10.5645V22.1451H78.9943L71.3682 13.3846V22.1451H70.1738Z" fill="#656565"/>
<path d="M80.917 11.6988V10.5645H87.2316V11.6988H84.6486V22.1451H83.4943V11.6988H80.917Z" fill="#656565"/>
<path d="M88.9517 10.5645H95.5749V11.6988H90.1031V15.3304H95.5349V16.4619H90.1031V21.0107H95.5349V22.1451H88.9517V10.5645Z" fill="#656565"/>
<path d="M97.6264 10.5654H99.9322C101.218 10.5654 102.089 10.6196 102.541 10.7254C103.227 10.8797 103.787 11.2225 104.218 11.7368C104.647 12.254 104.861 12.8941 104.861 13.6512C104.861 14.2827 104.712 14.8342 104.418 15.3142C104.121 15.7942 103.698 16.1571 103.147 16.3971C102.598 16.6428 101.835 16.7685 100.864 16.7714L105.027 22.1431H103.601L99.4379 16.7714H98.7779V22.1431H97.6235V10.5625L97.6264 10.5654ZM98.7807 11.6997V15.6428L100.778 15.6628C101.547 15.6628 102.118 15.5885 102.49 15.437C102.861 15.2885 103.15 15.0542 103.358 14.7342C103.567 14.4084 103.67 14.0455 103.67 13.6484C103.67 13.2512 103.567 12.9055 103.355 12.5883C103.144 12.2712 102.867 12.0426 102.527 11.9054C102.181 11.7683 101.615 11.6997 100.821 11.6997H98.7836H98.7807Z" fill="#656565"/>
<path d="M32.8145 35.7418V25.4727L33.0516 25.4784L40.2377 33.3359V25.4784L41.3178 25.4727V35.7418H41.072L33.9345 27.9728V35.7418H32.8145Z" fill="#656565"/>
<path d="M48.3867 25.4727L53.4355 35.7418H52.2669L50.5811 32.3759H45.878L44.195 35.7418H42.9893L48.1124 25.4727H48.3867ZM48.2524 27.6156L46.378 31.3701H50.1068L48.2524 27.6156Z" fill="#656565"/>
<path d="M54.0273 26.4784V25.4727H59.9362V26.4784H57.5218V35.7418H56.4446V26.4784H54.0273Z" fill="#656565"/>
<path d="M62.4535 25.4727H61.3706V35.7418H62.4535V25.4727Z" fill="#656565"/>
<path d="M70.0995 25.207C71.7396 25.207 73.114 25.7271 74.2169 26.7671C75.3226 27.8043 75.8741 29.0844 75.8741 30.6016C75.8741 32.1188 75.3284 33.3818 74.2197 34.4275C73.1197 35.4761 71.7739 35.999 70.1909 35.999C68.608 35.999 67.2279 35.4761 66.1193 34.4332C65.0192 33.3932 64.4678 32.1303 64.4678 30.6473C64.4678 29.6616 64.7192 28.7472 65.2221 27.9015C65.725 27.0586 66.4136 26.3985 67.2794 25.9242C68.148 25.4442 69.088 25.207 70.0995 25.207ZM70.1509 26.2128C69.3452 26.2128 68.5909 26.41 67.8708 26.8071C67.1536 27.2014 66.5936 27.7357 66.1907 28.4015C65.7878 29.0758 65.5821 29.8244 65.5821 30.6445C65.5821 31.8617 66.0307 32.8932 66.9222 33.7361C67.8137 34.5732 68.888 34.9933 70.1481 34.9933C70.9853 34.9933 71.7653 34.799 72.4825 34.4132C73.1968 34.0275 73.754 33.4989 74.1512 32.8274C74.554 32.1617 74.754 31.4159 74.754 30.5959C74.754 29.7758 74.554 29.0472 74.1512 28.3901C73.7511 27.73 73.1882 27.2043 72.4625 26.8071C71.7339 26.4128 70.9653 26.2128 70.1481 26.2128" fill="#656565"/>
<path d="M78.0654 35.7418V25.4727L78.2997 25.4784L85.483 33.3359V25.4784L86.5659 25.4727V35.7418H86.3173L79.1798 27.9728V35.7418H78.0654Z" fill="#656565"/>
<path d="M93.6376 25.4727L98.6836 35.7418H97.5149L95.8263 32.3759H91.1232L89.4431 35.7418H88.2373L93.3604 25.4727H93.6376ZM93.5004 27.6156L91.6261 31.3701H95.3548L93.5004 27.6156Z" fill="#656565"/>
<path d="M100.355 25.4727H101.433V34.736H105.616V35.7418H100.355V25.4727Z" fill="#656565"/>
</svg>
