<svg width="135" height="36" viewBox="0 0 135 36" fill="none" xmlns="http://www.w3.org/2000/svg">
<path d="M56.1512 17.9453L56.7679 21.9115C56.9432 22.9755 57.1367 24.2029 57.3 25.4846H57.3483C57.5358 24.2089 57.8441 22.9514 58.0617 21.9417L58.9263 17.9453H62.0098L62.832 21.7664C63.0859 22.9755 63.358 24.2089 63.5454 25.4846H63.5877C63.7208 24.215 63.9082 22.9574 64.1198 21.7361L64.7667 17.9453H68.6119L65.4015 28.7071H61.6833L60.9396 25.5088C60.7099 24.5173 60.5587 23.6043 60.3471 22.2258H60.3048C60.1416 23.6043 59.9662 24.5535 59.7365 25.4786L58.9384 28.7071H55.2262L52.1367 17.9453H56.1512Z" fill="#C2143D"/>
<path d="M74.1562 26.1595C72.9591 26.1595 72.4271 24.9382 72.4271 23.3179C72.4271 21.9092 72.8684 20.4823 74.1683 20.4823C75.3412 20.4823 75.8249 21.8306 75.8249 23.3179C75.8249 25.047 75.2445 26.1595 74.1804 26.1595H74.1562ZM74.126 28.9466C77.1187 28.9466 79.918 27.1268 79.918 23.2151C79.918 19.9744 77.681 17.7012 74.3074 17.7012C70.6435 17.7012 68.3823 19.9805 68.3823 23.3965C68.3823 26.8124 70.8853 28.9466 74.1078 28.9466H74.132H74.126Z" fill="#C2143D"/>
<path d="M81.2599 21.5803C81.2599 19.8693 81.2297 18.8476 81.1753 17.9528H84.5489L84.694 19.8935H84.7787C85.353 18.2611 86.7134 17.7109 87.6445 17.7109C87.9951 17.7109 88.1523 17.7109 88.4304 17.7774V21.4776C88.1463 21.4171 87.844 21.3687 87.4208 21.3687C86.2539 21.3687 85.474 21.8524 85.2684 22.723C85.2321 22.9044 85.214 23.1462 85.214 23.3941V28.7085H81.2599V21.5743V21.5803Z" fill="#C2143D"/>
<path d="M93.9017 22.3276H93.9441C94.1919 21.8379 94.4096 21.4146 94.6514 21.0035L96.4169 17.9443H101.139L97.4084 22.2853L101.671 28.7061H96.8219L94.6877 24.6069L93.9078 25.6468V28.7061H89.9658V13.168H93.9078V22.3215L93.9017 22.3276Z" fill="#C2143D"/>
<path d="M102.85 25.3979C103.467 25.7727 104.864 26.208 105.837 26.208C106.671 26.208 107.004 26.0266 107.004 25.6276C107.004 25.2286 106.756 25.0593 105.601 24.6905C103.237 23.9408 102.427 22.659 102.445 21.3954C102.445 19.2552 104.277 17.6953 107.101 17.6953C108.431 17.6953 109.622 17.9916 110.305 18.306L109.682 20.9904C109.168 20.7364 108.165 20.3918 107.294 20.3918C106.617 20.3918 106.218 20.5671 106.218 20.9964C106.218 21.3531 106.556 21.5708 107.838 21.9819C109.96 22.6772 110.77 23.7836 110.789 25.3313C110.789 27.3809 109.186 28.9287 105.867 28.9287C104.368 28.9287 103.032 28.6022 102.179 28.1669L102.844 25.3858L102.85 25.3979Z" fill="#C2143D"/>
<path d="M51.8463 31.4269C50.9334 26.2878 47.4267 22.3156 43.8778 19.5042C46.3264 17.4849 47.8862 14.4256 47.8862 11.0157C47.8862 9.38332 47.5356 7.81137 46.8463 6.34221C46.2357 5.04233 44.954 4.27449 43.5997 4.25635C43.5815 2.90811 42.8076 1.62637 41.5017 1.02177C40.0446 0.344625 38.4848 5.53746e-06 36.8705 5.53746e-06C30.8004 -0.00604041 25.8608 4.93955 25.8608 11.0097C25.8608 11.8017 25.9455 12.5695 26.1087 13.3192C26.1087 13.3313 26.1087 13.3374 26.1087 13.3495C26.1269 13.4522 28.1039 23.7183 25.6371 31.445C24.4521 35.1512 24.9237 35.3204 27.0217 35.8223C29.3554 36.3785 31.8947 35.6167 32.5235 33.7122C33.8052 29.8247 34.174 25.5744 34.1559 21.8682C37.717 23.6397 43.8052 27.63 44.7061 32.6905C45.0567 34.6614 46.937 35.9795 48.908 35.6288C50.879 35.2781 52.191 33.3978 51.8403 31.4208L51.8463 31.4269ZM36.8705 7.2491C37.4207 7.2491 37.9527 7.36397 38.4485 7.59372C38.9322 7.81742 39.44 7.92625 39.9358 7.92625C39.9419 8.42806 40.0507 8.92987 40.2744 9.41355C40.5102 9.90932 40.6251 10.4474 40.6251 11.0097C40.6251 13.0895 38.9382 14.7703 36.8645 14.7703C34.7907 14.7703 33.0978 13.0895 33.0978 11.0097C33.0978 8.92987 34.7847 7.24305 36.8645 7.24305L36.8705 7.2491Z" fill="#C2143D"/>
</svg>
