<svg width="135" height="36" viewBox="0 0 135 36" fill="none" xmlns="http://www.w3.org/2000/svg">
<path d="M35.4924 11.6246C35.4924 11.1317 35.5615 11.0103 36.0068 11.0103H37.6832C38.9405 11.0103 39.7334 11.277 40.2406 11.6937C40.6145 12.0151 40.9074 12.7009 40.9074 13.2939C40.9074 14.144 40.6145 14.7702 40.1192 15.1989C39.4643 15.7347 38.4928 15.9728 37.2521 15.9728H35.4924V11.6246ZM34.1708 21.0186C34.1708 22.2831 34.0613 22.3521 32.7373 22.3521V22.9022H38.5285C40.3716 22.9022 41.4027 22.4545 42.1099 21.783C42.7957 21.1139 43.0862 20.2281 43.0862 19.3375C43.0862 18.3755 42.5719 17.6777 41.9646 17.1705C41.1741 16.58 40.1787 16.2919 39.0071 16.2585V16.2323C40.1335 16.0585 40.8526 15.6918 41.4003 15.2203C42.0646 14.6464 42.279 13.8582 42.279 13.182C42.279 12.2795 41.8289 11.577 41.1455 11.1055C40.2097 10.4816 39.119 10.334 37.4855 10.334H32.7373V10.8436C34.0613 10.8436 34.1708 10.9341 34.1708 12.2056V21.021V21.0186ZM35.4924 16.6371H37.6712C39.1214 16.6371 40.1216 16.8872 40.7121 17.3587C41.3622 17.8468 41.7146 18.5374 41.7146 19.3113C41.7146 20.2281 41.4384 20.8781 41.0074 21.3353C40.4287 21.9473 39.5953 22.2164 38.3499 22.2164H36.1377C35.5853 22.2164 35.4948 22.095 35.4948 21.3544V16.6371H35.4924Z" fill="black"/>
<path d="M30.0988 13.2037C29.7321 11.3677 29.3344 10.7581 27.246 10.7581C26.3626 10.7581 25.6387 11.0081 25.1434 11.4249C24.7171 11.7797 24.5314 12.2178 24.5314 12.7727C24.5314 13.2608 24.7886 13.8609 25.1267 14.1871C25.5839 14.6419 26.2554 15.0182 27.3675 15.5825C28.751 16.304 29.8059 16.7089 30.5607 17.5756C30.9393 18.0066 31.3108 18.7924 31.3108 19.6664C31.3108 20.5831 30.987 21.4166 30.3178 22.019C29.5701 22.6977 28.4033 23.1263 26.8222 23.1263C25.7982 23.1263 24.5409 22.9144 23.517 22.5262C23.3646 21.4285 23.1622 20.6855 22.9336 19.9045L23.5527 19.7497C24.1242 21.9309 25.1124 22.4524 26.9817 22.4524C27.7961 22.4524 28.5605 22.231 29.1058 21.8C29.6654 21.3832 30.0178 20.7665 30.0178 19.9569C30.0178 19.2687 29.8249 18.8353 29.4534 18.3972C28.8772 17.7256 27.9223 17.2851 26.8936 16.7874C25.8149 16.2421 24.3314 15.4349 23.8194 14.6991C23.4932 14.2395 23.286 13.6751 23.286 13.0084C23.286 12.2416 23.598 11.4868 24.3457 10.9248C24.9886 10.4271 25.9578 10.0938 27.3365 10.0938C28.4652 10.0938 29.3987 10.2366 30.2988 10.5867C30.4059 11.2939 30.5631 12.2631 30.725 13.0489L30.1011 13.2037H30.0988Z" fill="black"/>
<path d="M17.6712 10.0977H0V14.4434H17.6712V10.0977Z" fill="#B7BBBE"/>
<path d="M17.6712 18.7812H0V23.1318H17.6712V18.7812Z" fill="#B7BBBE"/>
<path d="M56.5094 17.5139C56.6309 16.3494 57.3048 15.004 58.9359 15.004C60.3694 15.004 61.1814 16.1327 61.1814 17.5139H56.5094ZM62.2601 20.8619C61.853 21.1977 60.579 21.7644 59.4812 21.7644C57.9049 21.7644 56.5094 20.5404 56.5094 18.7521H62.9507C62.9507 15.847 61.9768 13.6562 58.9669 13.6562C56.419 13.6562 54.7378 15.5493 54.7378 18.2211C54.7378 21.1596 56.2046 23.1098 59.4098 23.1098C60.8981 23.1098 61.6244 22.7526 62.2601 22.5264V20.8619Z" fill="black"/>
<path d="M70.6898 15.3922C70.054 15.1279 69.4159 15.004 68.8848 15.004C67.0275 15.004 65.9821 16.6661 65.9821 18.383C65.9821 19.9951 66.8489 21.7668 68.992 21.7668C69.5564 21.7668 70.266 21.5906 70.7779 21.2524L70.9018 22.7407C70.2112 23.0598 69.4135 23.1098 68.8134 23.1098C66.0869 23.1098 64.2104 20.9691 64.2104 18.3806C64.2104 15.6398 66.0535 13.6562 68.8134 13.6562C69.4849 13.6562 70.3541 13.8182 70.8303 14.0111L70.6874 15.3898L70.6898 15.3922Z" fill="black"/>
<path d="M72.3755 10H74.0376V15.1625H74.0709C74.6758 14.2053 75.7211 13.66 76.9761 13.66C79.3121 13.66 80.3574 15.1102 80.3574 17.539V22.8968H78.6929V18.2272C78.6929 16.1246 78.2334 15.0959 76.7832 15.0078C74.8877 15.0078 74.04 16.5318 74.04 18.7225V22.8968H72.3779V10H72.3755Z" fill="black"/>
<path d="M82.3984 13.8721H84.0105V15.3056H84.0486C84.5439 14.2793 85.7465 13.6602 87.0014 13.6602C89.3374 13.6602 90.3828 15.1103 90.3828 17.5392V22.897H88.7183V18.2274C88.7183 16.1247 88.2611 15.096 86.8061 15.0079C84.913 15.0079 84.0653 16.5319 84.0653 18.7227V22.897H82.4008V13.8721H82.3984Z" fill="black"/>
<path d="M93.6736 18.3806C93.6736 16.6638 94.7189 15.0017 96.5072 15.0017C98.2956 15.0017 99.3195 16.6638 99.3195 18.3806C99.3195 19.9927 98.4551 21.7644 96.5072 21.7644C94.5594 21.7644 93.6736 19.9951 93.6736 18.3806ZM91.9043 18.3806C91.9043 20.9667 93.7807 23.1098 96.5072 23.1098C99.2338 23.1098 101.091 20.9691 101.091 18.3806C101.091 15.6398 99.2504 13.6562 96.5072 13.6562C93.764 13.6562 91.9043 15.6398 91.9043 18.3806Z" fill="black"/>
<path d="M102.725 10H104.391V22.8944H102.725V10Z" fill="black"/>
<path d="M107.794 18.3806C107.794 16.6638 108.842 15.0017 110.63 15.0017C112.419 15.0017 113.443 16.6638 113.443 18.3806C113.443 19.9927 112.576 21.7644 110.63 21.7644C108.685 21.7644 107.794 19.9951 107.794 18.3806ZM106.027 18.3806C106.027 20.9667 107.904 23.1098 110.63 23.1098C113.357 23.1098 115.214 20.9691 115.214 18.3806C115.214 15.6398 113.373 13.6562 110.63 13.6562C107.887 13.6562 106.027 15.6398 106.027 18.3806Z" fill="black"/>
<path d="M120.82 21.554C119.265 21.554 118.307 20.0657 118.307 18.3679C118.307 16.8296 119.138 15.0056 120.82 15.0056C122.591 15.0056 123.456 16.6153 123.456 18.4917C123.456 20.1729 122.375 21.554 120.82 21.554ZM125.122 13.8721H123.584V15.2175H123.548C123.051 14.2436 122.165 13.6602 120.572 13.6602C117.845 13.6602 116.538 16.1367 116.538 18.4584C116.538 20.7801 117.812 22.897 120.396 22.897C121.543 22.897 122.713 22.4422 123.42 21.4992H123.456V22.3874C123.456 24.2972 122.413 25.4854 120.66 25.4854C119.438 25.4854 118.679 25.2521 117.402 24.6687L117.226 26.2093C118.679 26.7046 119.51 26.8284 120.467 26.8284C123.706 26.8284 125.122 25.2521 125.122 22.5089V13.8721Z" fill="black"/>
<path d="M127.178 25.3411C127.39 25.4126 127.673 25.484 127.956 25.484C129.445 25.484 129.94 23.429 129.94 23.2504C129.94 23.0599 129.726 22.5956 129.618 22.2979L126.556 13.873H128.38L130.804 21.343H130.84L133.319 13.873H135L131.673 23.0909C131.052 24.8292 130.397 26.8294 128.204 26.8294C127.673 26.8294 127.371 26.7604 127.071 26.7056L127.178 25.3435V25.3411Z" fill="black"/>
<path d="M55.9238 10.3301V11.8755H52.0018V22.9007H50.2373V11.8755H46.3154V10.3301H55.9238Z" fill="black"/>
</svg>
