<svg width="135" height="36" viewBox="0 0 135 36" fill="none" xmlns="http://www.w3.org/2000/svg">
<path d="M10.6979 23.52C10.6979 23.52 13.5743 19.0374 18.8308 18.8771C24.5158 18.7044 27.0531 22.3362 27.0531 22.3362C27.0531 22.3362 24.6113 20.5665 19.1082 20.5326C13.9782 20.4987 10.6948 23.52 10.6948 23.52H10.6979Z" fill="#CA1E1E"/>
<path d="M7.10938 30.5295C7.10938 30.5295 8.99923 25.6461 13.9597 23.5651C18.9202 21.4841 24.0564 23.1581 24.0564 23.1581C24.0564 23.1581 19.7835 22.7543 14.7829 24.9771C9.6035 27.2801 7.10938 30.5264 7.10938 30.5264V30.5295Z" fill="#CA1E1E"/>
<path d="M13.9102 17.5712C13.9102 17.5712 8.58902 17.3215 5.8236 12.8481C2.83004 8.01402 4.70448 4 4.70448 4C4.70448 4 4.39311 6.99664 7.11228 11.7814C9.64648 16.2394 13.9071 17.5712 13.9071 17.5712H13.9102Z" fill="#CA1E1E"/>
<path d="M21.7719 17.1744C21.7719 17.1744 16.5956 17.979 12.3164 14.7234C8.0989 11.5171 6.91504 6.18359 6.91504 6.18359C6.91504 6.18359 8.70008 10.0866 13.1272 13.3052C17.7116 16.6379 21.7688 17.1775 21.7688 17.1775L21.7719 17.1744Z" fill="#CA1E1E"/>
<path d="M7.15249 17.7668C7.15249 17.7668 9.5942 22.4991 7.10624 27.1328C4.41481 32.1396 0 32.5218 0 32.5218C0 32.5218 2.75309 31.2917 5.53393 26.544C8.1267 22.1199 7.15249 17.7637 7.15249 17.7637V17.7668Z" fill="#CA1E1E"/>
<path d="M2.87638 11.1543C2.87638 11.1543 6.15975 15.2331 5.48149 20.5697C4.81249 25.8261 0.786133 29.5165 0.786133 29.5165C0.786133 29.5165 3.271 26.0204 3.84752 20.5758C4.44253 14.9402 2.87947 11.1543 2.87947 11.1543H2.87638Z" fill="#CA1E1E"/>
<path d="M33.7368 23.0121L34.2054 21.4644C36.3327 22.1396 38.3613 22.528 40.7598 22.528C42.1441 22.528 45.3195 22.2876 45.3195 20.6443C45.3195 19.405 43.6116 19.3248 40.7783 19.1614C37.5566 19.0011 34.1099 18.8069 34.1099 15.875C34.1099 12.9431 37.6522 12.3789 40.2789 12.3789C42.1965 12.3789 44.4039 12.6533 46.2382 13.088L45.8683 14.6819C44.2405 14.2965 42.2119 14.0067 40.0045 14.0067C38.9563 14.0067 35.8795 14.1362 35.8795 15.7794C35.8795 17.2623 38.3428 17.3887 40.8739 17.5028C44.0463 17.6323 47.1076 17.9067 47.1076 20.5642C47.1076 23.5115 43.3063 24.1404 40.4546 24.1404C38.2626 24.1404 35.9288 23.7705 33.7368 23.0121Z" fill="#231815"/>
<path d="M50.1691 23.8975V12.623H59.0912C61.573 12.623 63.1977 13.3815 63.1977 15.4902C63.1977 16.8745 62.4578 17.5527 61.3603 17.9535C62.8894 18.2926 64.0024 19.0325 64.0024 20.7898C64.0024 22.5471 62.8432 23.8975 59.9421 23.8975H50.166H50.1691ZM51.9079 14.2478V17.2752H58.7367C60.5248 17.2752 61.573 17.0502 61.573 15.7923C61.573 14.664 60.7529 14.2447 59.0912 14.2447H51.9079V14.2478ZM51.9079 18.9031V22.2697H59.9452C61.6686 22.2697 62.3777 21.6253 62.3777 20.5309C62.3777 19.2113 61.2986 18.9031 59.5598 18.9031H51.9079Z" fill="#231815"/>
<path d="M78.3905 23.8966L76.6363 19.0656L75.2521 15.0547L73.8493 19.0656L72.0951 23.8966H70.2422L65.2817 12.6222H67.1839L69.2927 17.4532L71.1116 21.7046L72.5945 17.4347L74.3333 12.6191H76.1523L77.9096 17.4502L79.374 21.7016L81.1929 17.4502L83.3202 12.6191H85.2039L80.2588 23.8936H78.3905V23.8966Z" fill="#231815"/>
<path d="M91.8108 15.2012C95.5473 15.2012 97.6098 17.0694 97.6098 19.6622C97.6098 22.255 95.5473 24.1387 91.8108 24.1387C88.0742 24.1387 86.0117 22.255 86.0117 19.6622C86.0117 17.0694 88.0742 15.2012 91.8108 15.2012ZM91.8108 22.5294C94.4529 22.5294 95.8217 21.3054 95.8217 19.6622C95.8217 18.019 94.4529 16.8105 91.8108 16.8105C89.1687 16.8105 87.7844 18.0036 87.7844 19.6622C87.7844 21.3209 89.1533 22.5294 91.8108 22.5294Z" fill="#231815"/>
<path d="M100.351 15.5055L102.025 15.3113L102.074 16.825L102.089 16.8404C103.458 15.6165 104.972 15.117 106.954 15.2126L106.874 16.9052C105.216 16.7449 103.282 17.0501 102.089 18.2586V23.8973H100.351V15.5055Z" fill="#231815"/>
<path d="M121.595 23.8969H118.953L113.638 20.3545H111.464V23.8969H109.726V12.5731L111.464 12.3789V18.9518H113.672L119.116 15.4403H121.629L115.201 19.6609L121.595 23.8969Z" fill="#231815"/>
<path d="M123.8 21.8388C126.038 22.3537 127.376 22.5325 129.084 22.5325C130.194 22.5325 133.224 22.4369 133.224 21.3394C133.224 20.3744 131.322 20.3898 129.263 20.3744C126.655 20.3096 123.673 20.1339 123.673 17.8926C123.673 15.3492 127.185 15.2012 129.102 15.2012C130.666 15.2012 132.389 15.3615 134.257 15.6852L133.967 17.2945C131.97 16.94 130.585 16.8259 128.797 16.8259C127.154 16.8259 125.446 16.94 125.446 17.8895C125.446 18.8391 127.219 18.8391 129.217 18.8545C131.859 18.8853 135 18.984 135 21.3178C135 23.9753 130.585 24.1356 128.896 24.1356C127.012 24.1356 125.579 23.9599 123.467 23.4265L123.806 21.8326L123.8 21.8388Z" fill="#231815"/>
</svg>
