<svg width="240" height="240" viewBox="0 0 240 240" fill="none" xmlns="http://www.w3.org/2000/svg">
<circle cx="120" cy="120" r="120" fill="#F8F8F8"/>
<g clip-path="url(#clip0_289_8149)">
<path d="M69.239 94.0571V146.343H148.732V94.0571H69.239Z" fill="#8BBB87"/>
<path d="M102.38 172.457V152.857C102.38 149.254 105.332 146.314 109.015 146.314C112.697 146.314 115.649 149.225 115.649 152.857V172.457H125.585C127.427 172.457 128.888 173.927 128.888 175.714C128.888 177.501 127.397 178.971 125.585 178.971H92.4731C90.6319 178.971 89.1707 177.501 89.1707 175.714C89.1707 173.927 90.6611 172.457 92.4731 172.457H102.41H102.38Z" fill="#8EABC5"/>
<path d="M69.239 94.0571V146.314H148.732V94.0571H69.239ZM69.239 81H148.732C156.038 81 161.971 86.8512 161.971 94.0571V146.314C161.971 153.52 156.038 159.371 148.732 159.371H69.239C61.9327 159.371 56 153.52 56 146.314V94.0571C56 86.8512 61.9327 81 69.239 81Z" fill="#3E3A39"/>
<path d="M93.642 99.9946H140.052C141.075 99.9946 141.893 100.802 141.893 101.811V105.413C141.893 106.422 141.075 107.229 140.052 107.229H93.642C92.6191 107.229 91.8008 106.422 91.8008 105.413V101.811C91.8008 100.802 92.6191 99.9946 93.642 99.9946ZM93.642 110.832H140.052C141.075 110.832 141.893 111.639 141.893 112.648V116.251C141.893 117.26 141.075 118.067 140.052 118.067H93.642C92.6191 118.067 91.8008 117.26 91.8008 116.251V112.648C91.8008 111.639 92.6191 110.832 93.642 110.832ZM93.642 121.641H140.052C141.075 121.641 141.893 122.448 141.893 123.457V127.06C141.893 128.069 141.075 128.876 140.052 128.876H93.642C92.6191 128.876 91.8008 128.069 91.8008 127.06V123.457C91.8008 122.448 92.6191 121.641 93.642 121.641ZM93.642 133.055H140.052C141.075 133.055 141.893 133.862 141.893 134.871V138.474C141.893 139.483 141.075 140.29 140.052 140.29H93.642C92.6191 140.29 91.8008 139.483 91.8008 138.474V134.871C91.8008 133.862 92.6191 133.055 93.642 133.055Z" fill="white"/>
<path d="M86.3065 99.9946H77.9188C76.902 99.9946 76.0776 100.808 76.0776 101.811V138.445C76.0776 139.448 76.902 140.261 77.9188 140.261H86.3065C87.3233 140.261 88.1477 139.448 88.1477 138.445V101.811C88.1477 100.808 87.3233 99.9946 86.3065 99.9946Z" fill="white"/>
</g>
<path d="M165.723 58.6276L144.901 62.375H143.5V63.875V88.5063C143.5 96.8311 147.948 104.556 155.235 108.93C155.236 108.931 155.236 108.931 155.237 108.931L164.769 114.688C166.134 115.526 167.847 115.509 169.216 114.697L169.216 114.697L169.226 114.691L178.767 108.929L178.768 108.929C186.049 104.523 190.5 96.8352 190.5 88.5063V63.9087V62.6565L189.268 62.4328L168.313 58.6278C167.463 58.4575 166.573 58.4574 165.723 58.6276Z" fill="#8EABC5" stroke="white" stroke-width="3"/>
<path d="M173.133 81.8683C174.496 81.8683 175.58 82.9128 175.58 84.2269V91.303C175.58 92.6171 174.496 93.6616 173.133 93.6616H160.901C159.538 93.6616 158.455 92.6171 158.455 91.303V84.2269C158.455 82.9128 159.538 81.8683 160.901 81.8683V80.6889C160.901 77.4205 163.627 74.7922 167.017 74.7922C170.407 74.7922 173.133 77.4205 173.133 80.6889V81.8683ZM167.017 77.1509C164.99 77.1509 163.348 78.7346 163.348 80.6889V81.8683H170.687V80.6889C170.687 78.7346 169.044 77.1509 167.017 77.1509Z" fill="white"/>
<defs>
<clipPath id="clip0_289_8149">
<rect width="106" height="98" fill="white" transform="translate(56 81)"/>
</clipPath>
</defs>
</svg>
