<svg width="240" height="240" viewBox="0 0 240 240" fill="none" xmlns="http://www.w3.org/2000/svg">
<circle cx="120" cy="120" r="120" fill="#F8F8F8"/>
<path d="M78.7956 72.3868C80.0231 71.1836 81.6648 70.5461 83.3677 70.5753C86.6767 70.6417 89.4034 73.2798 89.5746 76.5801C89.6663 78.343 89.0497 80.0159 87.8386 81.2917C86.6267 82.5684 84.992 83.271 83.2352 83.271H79.9762V95.4597H86.4942V89.3649C88.7916 88.7596 90.9086 87.5247 92.5655 85.7796C95.0193 83.195 96.2686 79.8082 96.0843 76.2424C95.7363 69.5454 90.2081 64.1937 83.4994 64.059C80.014 63.969 76.7211 65.2931 74.2334 67.7317C71.7413 70.1737 70.3687 73.438 70.3687 76.9225H76.8867C76.8867 75.2039 77.5645 73.5931 78.7956 72.3868Z" fill="#8BBB87"/>
<path d="M153.809 101.978H160.327V108.496H153.809V101.978Z" fill="#8BBB87"/>
<path d="M152.629 72.3868C153.824 71.2149 155.396 70.574 157.069 70.574C157.113 70.574 157.157 70.5744 157.201 70.5753C160.51 70.6417 163.237 73.2798 163.408 76.5801C163.499 78.343 162.883 80.0159 161.672 81.2913C160.46 82.5679 158.825 83.271 157.068 83.271H153.809V95.4597H160.327V89.3649C162.625 88.7596 164.742 87.5247 166.399 85.7792C168.853 83.1945 170.102 79.8078 169.917 76.2424C169.57 69.5454 164.042 64.1937 157.332 64.059C153.843 63.969 150.555 65.2931 148.067 67.7317C145.575 70.1737 144.202 73.438 144.202 76.9225H150.72C150.72 75.2035 151.398 73.5927 152.629 72.3868Z" fill="#8BBB87"/>
<path d="M79.9758 101.978H86.4938V108.496H79.9758V101.978Z" fill="#8BBB87"/>
<path d="M68.0093 118.988L73.4648 115.422L77.0304 120.878L71.5749 124.444L68.0093 118.988Z" fill="#8BBB87"/>
<path d="M184.735 100.893C183.022 101.3 181.27 100.994 179.798 100.033L177.07 98.2501L170.404 108.453L175.86 112.019L179.194 106.917C181.448 107.667 183.896 107.79 186.238 107.235C189.706 106.414 192.604 104.262 194.399 101.176C197.771 95.3792 196.07 87.8756 190.527 84.0926C187.646 82.1263 184.178 81.4189 180.762 82.0998C177.34 82.7812 174.405 84.7631 172.499 87.6805L177.955 91.2459C178.896 89.8067 180.344 88.8286 182.035 88.4922C183.721 88.1564 185.431 88.5062 186.853 89.4765C189.587 91.3424 190.427 95.0424 188.765 97.899C187.877 99.4247 186.446 100.488 184.735 100.893Z" fill="#8BBB87"/>
<path d="M163.265 119.385L166.83 113.93L172.285 117.495L168.72 122.95L163.265 119.385Z" fill="#8BBB87"/>
<path d="M51.7263 99.7107C50.7869 98.272 50.4732 96.5534 50.8438 94.8705C51.2136 93.1923 52.2208 91.7653 53.6813 90.8528C56.4871 89.0981 60.2119 89.8147 62.1617 92.4849C63.2028 93.9106 63.6013 95.6483 63.2854 97.3786C62.9686 99.1102 61.9848 100.592 60.5144 101.553L57.7859 103.336L64.4521 113.54L69.909 109.974L66.5761 104.873C68.1682 103.11 69.265 100.917 69.6978 98.5505C70.3383 95.0447 69.5318 91.5254 67.4265 88.6419C63.4727 83.2254 55.9174 81.7688 50.2272 85.3251C47.2693 87.1736 45.2279 90.0658 44.4788 93.4687C43.7283 96.8758 44.3649 100.359 46.2708 103.276L51.7263 99.7107Z" fill="#8BBB87"/>
<g clip-path="url(#clip0_453_202)">
<path d="M120 138.333C110.915 138.333 103.556 130.875 103.556 121.667C103.556 112.458 110.915 105 120 105C129.086 105 136.445 112.458 136.445 121.667C136.445 130.875 129.086 138.333 120 138.333Z" fill="#8EABC5"/>
<path d="M83 176.667C84.6033 156.771 100.513 146.667 119.938 146.667C139.363 146.667 155.787 156.229 157 176.667C157.041 177.479 157 180 153.917 180H86.0011C84.9733 180 82.9178 177.75 83.0206 176.667H83Z" fill="#3E3A39"/>
</g>
<defs>
<clipPath id="clip0_453_202">
<rect width="74" height="75" fill="white" transform="translate(83 105)"/>
</clipPath>
</defs>
</svg>
