<svg width="240" height="240" viewBox="0 0 240 240" fill="none" xmlns="http://www.w3.org/2000/svg">
<circle cx="120" cy="120" r="120" fill="#F8F8F8"/>
<g filter="url(#filter0_d_289_8162)">
<path d="M99.775 160.5C89.825 160.5 89.25 159.275 89.25 149.675V68.825C89.25 59.225 89.825 58 99.775 58H139.175C141.25 58 143.25 58.725 144.825 60.075L168.65 80.225C170.625 81.9 171.75 84.325 171.75 86.9V149.675C171.75 159.275 171.175 160.5 161.225 160.5H99.775Z" fill="#D2CECE"/>
</g>
<g filter="url(#filter1_d_289_8162)">
<path d="M89.775 170.5C79.825 170.5 79.25 169.275 79.25 159.675V78.825C79.25 69.225 79.825 68 89.775 68H129.175C131.25 68 133.25 68.725 134.825 70.075L158.65 90.225C160.625 91.9 161.75 94.325 161.75 96.9V159.675C161.75 169.275 161.175 170.5 151.225 170.5H89.775Z" fill="#D2CECE"/>
</g>
<g clip-path="url(#clip0_289_8162)">
<path d="M112.875 102.7V109.825L112.4 117.225H108.275L107.775 109.825V102.7H112.875ZM112.875 120.95V126.175H107.775V120.95H112.875Z" fill="white"/>
<g filter="url(#filter2_d_289_8162)">
<path d="M79.775 180.5C69.825 180.5 69.25 179.275 69.25 169.675V88.825C69.25 79.225 69.825 78 79.775 78H119.175C121.25 78 123.25 78.725 124.825 80.075L148.65 100.225C150.625 101.9 151.75 104.325 151.75 106.9V169.675C151.75 179.275 151.175 180.5 141.225 180.5H79.775Z" fill="white"/>
</g>
<path d="M119.175 79.25C120.95 79.25 122.675 79.875 124.025 81.025L147.85 101.175C149.525 102.6 150.5 104.7 150.5 106.9V169.675C150.5 178.625 150.4 179.25 141.225 179.25H79.775C70.6 179.25 70.5 178.625 70.5 169.675V88.825C70.5 79.875 70.6 79.25 79.775 79.25H119.175ZM119.175 76.75H79.775C68.95 76.75 68 78.725 68 88.825V169.65C68 179.75 68.95 181.725 79.775 181.725H141.2C152.05 181.725 152.975 179.75 152.975 169.65V106.9C152.975 103.95 151.675 101.175 149.425 99.275L125.65 79.125C123.85 77.6 121.55 76.75 119.2 76.75H119.175Z" fill="#D0CCCC"/>
<path d="M130.946 98.75C127.872 98.75 125.413 101.209 125.413 104.283C125.413 105.205 125.72 106.127 126.181 106.895L118.343 114.58C117.575 114.119 116.653 113.811 115.577 113.811C114.501 113.811 113.579 114.119 112.657 114.58L105.588 108.125C105.895 107.356 106.202 106.588 106.202 105.666C106.202 102.592 103.743 100.133 100.67 100.133C97.5959 100.133 95.1369 102.592 95.1369 105.666C95.1369 106.588 95.4443 107.51 95.7517 108.278L87.299 116.27C86.5306 115.809 85.6085 115.502 84.5327 115.502C81.459 115.502 79 117.961 79 121.034C79 124.108 81.459 126.567 84.5327 126.567C87.6064 126.567 90.0653 124.108 90.0653 121.034C90.0653 120.112 89.758 119.19 89.4506 118.422L97.7496 110.43C98.518 110.891 99.5938 111.198 100.516 111.198C101.592 111.198 102.668 110.891 103.436 110.276L110.352 116.731C110.044 117.5 109.737 118.268 109.737 119.19C109.737 122.264 112.196 124.723 115.27 124.723C118.343 124.723 120.802 122.264 120.802 119.19C120.802 118.268 120.495 117.346 120.034 116.577L127.872 108.893C128.64 109.354 129.562 109.662 130.638 109.662C133.712 109.662 136.171 107.203 136.171 104.129C136.478 101.363 134.019 98.75 130.946 98.75ZM84.5327 123.801C83.1495 123.801 82.0737 122.725 82.0737 121.342C82.0737 119.959 83.1495 118.883 84.5327 118.883C85.9158 118.883 86.9916 119.959 86.9916 121.342C86.9916 122.725 85.9158 123.801 84.5327 123.801ZM98.057 105.973C98.057 104.59 99.1328 103.514 100.516 103.514C101.899 103.514 102.975 104.59 102.975 105.973C102.975 107.356 101.899 108.432 100.516 108.432C99.2864 108.432 98.057 107.356 98.057 105.973ZM115.577 121.956C114.194 121.956 113.118 120.881 113.118 119.497C113.118 118.114 114.194 117.039 115.577 117.039C116.96 117.039 118.036 118.114 118.036 119.497C118.036 120.881 116.96 121.956 115.577 121.956ZM130.946 106.895C129.562 106.895 128.487 105.82 128.487 104.436C128.487 103.053 129.562 101.977 130.946 101.977C132.329 101.977 133.405 103.053 133.405 104.436C133.405 105.82 132.329 106.895 130.946 106.895Z" fill="#8BBB87"/>
<path d="M133.559 134.866H81.9204C80.9983 134.866 80.3835 135.481 80.3835 136.403C80.3835 137.325 80.9983 137.94 81.9204 137.94H133.559C134.481 137.94 135.095 137.325 135.095 136.403C135.095 135.481 134.327 134.866 133.559 134.866Z" fill="#8EABC5"/>
<path d="M133.558 145.778H111.428C110.506 145.778 109.891 146.392 109.891 147.314C109.891 148.237 110.506 148.851 111.428 148.851H133.405C134.327 148.851 134.942 148.237 134.942 147.314C134.942 146.392 134.327 145.778 133.558 145.778Z" fill="#8EABC5"/>
<path d="M133.558 156.536H111.428C110.506 156.536 109.891 157.15 109.891 158.072C109.891 158.995 110.506 159.609 111.428 159.609H133.405C134.327 159.609 134.942 158.995 134.942 158.072C135.095 157.304 134.327 156.536 133.558 156.536Z" fill="#8EABC5"/>
<path d="M133.558 167.447H111.428C110.506 167.447 109.891 168.062 109.891 168.984C109.891 169.906 110.506 170.521 111.428 170.521H133.405C134.327 170.521 134.942 169.906 134.942 168.984C135.095 168.216 134.327 167.447 133.558 167.447Z" fill="#8EABC5"/>
<path d="M93.4468 145.163C86.2236 145.163 80.3835 151.003 80.3835 158.226C80.3835 165.449 86.2236 171.289 93.4468 171.289C100.516 171.289 106.203 165.603 106.51 158.687C106.971 151.925 101.131 145.163 93.4468 145.163ZM103.283 156.843H94.9836V148.237C99.2868 149.005 102.668 152.54 103.283 156.843ZM91.9099 148.237V157.765L85.4552 164.22C84.2257 162.529 83.4572 160.378 83.4572 158.226C83.4572 153.154 87.1457 149.005 91.9099 148.237ZM93.4468 168.062C91.2952 168.062 89.451 167.447 87.7604 166.218L94.0615 159.917H103.129C102.361 164.527 98.211 168.062 93.4468 168.062Z" fill="#8EABC5"/>
</g>
<defs>
<filter id="filter0_d_289_8162" x="74.25" y="43" width="112.5" height="132.5" filterUnits="userSpaceOnUse" color-interpolation-filters="sRGB">
<feFlood flood-opacity="0" result="BackgroundImageFix"/>
<feColorMatrix in="SourceAlpha" type="matrix" values="0 0 0 0 0 0 0 0 0 0 0 0 0 0 0 0 0 0 127 0" result="hardAlpha"/>
<feOffset/>
<feGaussianBlur stdDeviation="7.5"/>
<feComposite in2="hardAlpha" operator="out"/>
<feColorMatrix type="matrix" values="0 0 0 0 0.164706 0 0 0 0 0.164706 0 0 0 0 0.164706 0 0 0 0.1 0"/>
<feBlend mode="normal" in2="BackgroundImageFix" result="effect1_dropShadow_289_8162"/>
<feBlend mode="normal" in="SourceGraphic" in2="effect1_dropShadow_289_8162" result="shape"/>
</filter>
<filter id="filter1_d_289_8162" x="64.25" y="53" width="112.5" height="132.5" filterUnits="userSpaceOnUse" color-interpolation-filters="sRGB">
<feFlood flood-opacity="0" result="BackgroundImageFix"/>
<feColorMatrix in="SourceAlpha" type="matrix" values="0 0 0 0 0 0 0 0 0 0 0 0 0 0 0 0 0 0 127 0" result="hardAlpha"/>
<feOffset/>
<feGaussianBlur stdDeviation="7.5"/>
<feComposite in2="hardAlpha" operator="out"/>
<feColorMatrix type="matrix" values="0 0 0 0 0.164706 0 0 0 0 0.164706 0 0 0 0 0.164706 0 0 0 0.1 0"/>
<feBlend mode="normal" in2="BackgroundImageFix" result="effect1_dropShadow_289_8162"/>
<feBlend mode="normal" in="SourceGraphic" in2="effect1_dropShadow_289_8162" result="shape"/>
</filter>
<filter id="filter2_d_289_8162" x="54.25" y="63" width="112.5" height="132.5" filterUnits="userSpaceOnUse" color-interpolation-filters="sRGB">
<feFlood flood-opacity="0" result="BackgroundImageFix"/>
<feColorMatrix in="SourceAlpha" type="matrix" values="0 0 0 0 0 0 0 0 0 0 0 0 0 0 0 0 0 0 127 0" result="hardAlpha"/>
<feOffset/>
<feGaussianBlur stdDeviation="7.5"/>
<feComposite in2="hardAlpha" operator="out"/>
<feColorMatrix type="matrix" values="0 0 0 0 0.164706 0 0 0 0 0.164706 0 0 0 0 0.164706 0 0 0 0.1 0"/>
<feBlend mode="normal" in2="BackgroundImageFix" result="effect1_dropShadow_289_8162"/>
<feBlend mode="normal" in="SourceGraphic" in2="effect1_dropShadow_289_8162" result="shape"/>
</filter>
<clipPath id="clip0_289_8162">
<rect width="85" height="105" fill="white" transform="translate(68 76.75)"/>
</clipPath>
</defs>
</svg>
