<svg width="37" height="37" viewBox="0 0 37 37" fill="none" xmlns="http://www.w3.org/2000/svg">
<path d="M18.5322 0.00012207C8.31459 0.00012207 0.0322266 8.28321 0.0322266 18.5001C0.0322266 28.717 8.31459 37.0001 18.5322 37.0001C28.7499 37.0001 37.0322 28.717 37.0322 18.5001C37.0322 8.28321 28.7491 0.00012207 18.5322 0.00012207Z" fill="#7D9BB4"/>
<path d="M0.0317591 18.5C0.0271621 21.5586 0.784412 24.5702 2.23514 27.2629C4.08288 27.8054 5.99887 28.0802 7.92461 28.0788C19.0463 28.0788 28.0622 19.063 28.0622 7.94128C28.0632 5.98619 27.7796 4.04136 27.2203 2.16798C24.5466 0.741417 21.5622 -0.00325652 18.5318 1.07048e-05C8.31412 1.07048e-05 0.0317591 8.2831 0.0317591 18.5Z" fill="#8BABC4"/>
<path d="M29.0823 15.4375L17.9621 27.1149C17.6593 27.4328 17.2953 27.6863 16.8921 27.8601C16.4889 28.034 16.0547 28.1246 15.6156 28.1266H15.6005C15.1638 28.1267 14.7316 28.039 14.3295 27.8688C13.9274 27.6986 13.5637 27.4494 13.2598 27.1358L7.35929 21.0568C7.05442 20.7508 6.81336 20.3873 6.65012 19.9873C6.48687 19.5874 6.40468 19.159 6.40832 18.7271C6.41196 18.2951 6.50135 17.8682 6.67132 17.4711C6.84128 17.0739 7.08842 16.7145 7.39841 16.4137C7.70839 16.1128 8.07504 15.8765 8.47708 15.7185C8.87911 15.5605 9.30853 15.4839 9.7404 15.4932C10.1723 15.5025 10.598 15.5975 10.9929 15.7726C11.3877 15.9478 11.7439 16.1996 12.0407 16.5135L15.5773 20.1571L24.3569 10.9382C24.6523 10.6279 25.006 10.3789 25.3976 10.2053C25.7893 10.0317 26.2113 9.9369 26.6396 9.9264C27.0679 9.91589 27.4941 9.98985 27.8938 10.1441C28.2935 10.2983 28.659 10.5297 28.9692 10.8251C29.2795 11.1205 29.5286 11.4742 29.7022 11.8658C29.8758 12.2575 29.9705 12.6796 29.981 13.1079C29.9915 13.5361 29.9176 13.9623 29.7634 14.362C29.6092 14.7617 29.3778 15.1272 29.0823 15.4375Z" fill="white"/>
</svg>
